# Blender 3.5.0
# www.blender.org
mtllib SpinnyStandPaddle1.mtl
g SpinnyPaddleCenter.004_SpinnyPaddle3_0_SpinnyPaddleCenter.004_SpinnyPaddle3_0
v 0.038260 0.001901 -0.238860
v 0.034900 0.001901 -0.240252
v 0.031540 0.001901 -0.238860
v 0.030148 0.001901 -0.235500
v 0.039652 0.001901 -0.235500
v 0.031540 0.001901 -0.232140
v 0.038260 0.001901 -0.232140
v 0.034900 0.001901 -0.230748
v 0.038260 -0.003966 -0.238860
v 0.034900 -0.003966 -0.240252
v 0.036886 -0.003702 -0.240294
v 0.034900 -0.003725 -0.240803
v 0.034900 -0.003276 -0.240985
v 0.036987 -0.003276 -0.240539
v 0.036987 0.001212 -0.240539
v 0.034900 0.001212 -0.240985
v 0.034900 0.001660 -0.240803
v 0.036886 0.001637 -0.240294
v 0.034900 0.001901 -0.240252
v 0.038260 0.001901 -0.238860
v 0.038650 -0.003725 -0.239250
v 0.036987 -0.003276 -0.240539
v 0.039694 -0.003702 -0.237486
v 0.039652 -0.003966 -0.235500
v 0.040203 -0.003725 -0.235500
v 0.038779 -0.003276 -0.239379
v 0.039939 -0.003276 -0.237587
v 0.040385 -0.003276 -0.235500
v 0.040385 0.001212 -0.235500
v 0.039939 0.001212 -0.237587
v 0.039694 0.001637 -0.237486
v 0.039939 0.001212 -0.237587
v 0.040203 0.001660 -0.235500
v 0.038779 0.001212 -0.239379
v 0.038779 0.001212 -0.239379
v 0.036987 0.001212 -0.240539
v 0.038650 0.001660 -0.239250
v 0.039652 0.001901 -0.235500
v 0.039694 0.001637 -0.233514
v 0.038260 0.001901 -0.232140
v 0.038650 0.001660 -0.231751
v 0.038779 0.001212 -0.231621
v 0.039939 0.001212 -0.233413
v 0.040385 0.001212 -0.235500
v 0.040385 -0.003276 -0.235500
v 0.039939 -0.003276 -0.233413
v 0.039939 -0.003276 -0.233413
v 0.038779 -0.003276 -0.231621
v 0.038650 -0.003725 -0.231751
v 0.039694 -0.003702 -0.233514
v 0.040203 -0.003725 -0.235500
v 0.038260 -0.003966 -0.232140
v 0.039652 -0.003966 -0.235500
v 0.036886 -0.003702 -0.230706
v 0.038260 -0.003966 -0.232140
v 0.038650 -0.003725 -0.231751
v 0.034900 -0.003966 -0.230748
v 0.034900 -0.003725 -0.230197
v 0.038779 -0.003276 -0.231621
v 0.036987 -0.003276 -0.230461
v 0.036987 -0.003276 -0.230461
v 0.034900 -0.003276 -0.230015
v 0.036987 0.001212 -0.230461
v 0.034900 0.001212 -0.230015
v 0.038779 0.001212 -0.231621
v 0.038650 0.001660 -0.231751
v 0.036886 0.001637 -0.230706
v 0.034900 0.001660 -0.230197
v 0.038260 0.001901 -0.232140
v 0.034900 0.001901 -0.230748
v 0.030106 -0.003702 -0.233514
v 0.031540 -0.003966 -0.232140
v 0.031150 -0.003725 -0.231751
v 0.030148 -0.003966 -0.235500
v 0.029597 -0.003725 -0.235500
v 0.031021 -0.003276 -0.231621
v 0.029861 -0.003276 -0.233413
v 0.029861 -0.003276 -0.233413
v 0.029415 -0.003276 -0.235500
v 0.029861 0.001212 -0.233413
v 0.031021 0.001212 -0.231621
v 0.031150 0.001660 -0.231751
v 0.029415 0.001212 -0.235500
v 0.029861 0.001212 -0.233413
v 0.030106 0.001637 -0.233514
v 0.031540 0.001901 -0.232140
v 0.029597 0.001660 -0.235500
v 0.030148 0.001901 -0.235500
v 0.030106 -0.003702 -0.237486
v 0.030148 -0.003966 -0.235500
v 0.029597 -0.003725 -0.235500
v 0.031540 -0.003966 -0.238860
v 0.031150 -0.003725 -0.239250
v 0.029415 -0.003276 -0.235500
v 0.029861 -0.003276 -0.237587
v 0.029861 -0.003276 -0.237587
v 0.031021 -0.003276 -0.239379
v 0.029861 0.001212 -0.237587
v 0.029415 0.001212 -0.235500
v 0.029597 0.001660 -0.235500
v 0.031021 0.001212 -0.239379
v 0.029861 0.001212 -0.237587
v 0.030106 0.001637 -0.237486
v 0.030148 0.001901 -0.235500
v 0.031150 0.001660 -0.239250
v 0.031540 0.001901 -0.238860
v 0.032914 0.001637 -0.240294
v 0.034900 0.001901 -0.240252
v 0.034900 0.001660 -0.240803
v 0.034900 0.001212 -0.240985
v 0.032813 0.001212 -0.240539
v 0.032813 0.001212 -0.240539
v 0.031021 0.001212 -0.239379
v 0.032813 -0.003276 -0.240539
v 0.034900 -0.003276 -0.240985
v 0.034900 -0.003725 -0.240803
v 0.031021 -0.003276 -0.239379
v 0.032813 -0.003276 -0.240539
v 0.033023 -0.003725 -0.240032
v 0.034900 -0.003966 -0.240252
v 0.031150 -0.003725 -0.239250
v 0.031540 -0.003966 -0.238860
v 0.034900 0.001212 -0.230015
v 0.032813 0.001212 -0.230461
v 0.034900 -0.003276 -0.230015
v 0.034900 0.001660 -0.230197
v 0.032914 0.001637 -0.230706
v 0.034900 0.001901 -0.230748
v 0.031540 0.001901 -0.232140
v 0.031150 0.001660 -0.231751
v 0.031021 0.001212 -0.231621
v 0.032813 -0.003276 -0.230461
v 0.031021 -0.003276 -0.231621
v 0.031150 -0.003725 -0.231751
v 0.032914 -0.003702 -0.230706
v 0.034900 -0.003725 -0.230197
v 0.031540 -0.003966 -0.232140
v 0.034900 -0.003966 -0.230748
vn 0.1679 0.9714 -0.1679
vn -0.0000 0.9714 -0.2375
vn -0.1679 0.9714 -0.1679
vn -0.2375 0.9714 -0.0000
vn 0.2375 0.9714 -0.0000
vn -0.1679 0.9714 0.1679
vn 0.1679 0.9714 0.1679
vn -0.0000 0.9714 0.2375
vn 0.2664 -0.9263 -0.2664
vn -0.0242 -0.9212 -0.3883
vn 0.2600 -0.7337 -0.6277
vn -0.0173 -0.7427 -0.6694
vn -0.0058 -0.2809 -0.9597
vn 0.3727 -0.2267 -0.8998
vn 0.3727 0.2267 -0.8998
vn -0.0000 0.2301 -0.9732
vn -0.0000 0.7061 -0.7081
vn 0.2600 0.7337 -0.6277
vn 0.5007 -0.7061 -0.5007
vn 0.6277 -0.7337 -0.2600
vn 0.3768 -0.9263 -0.0000
vn 0.7081 -0.7061 -0.0000
vn 0.6881 -0.2301 -0.6881
vn 0.8998 -0.2267 -0.3727
vn 0.9732 -0.2301 -0.0000
vn 0.9732 0.2301 -0.0000
vn 0.8998 0.2267 -0.3727
vn 0.6277 0.7337 -0.2600
vn 0.7081 0.7061 -0.0000
vn 0.6881 0.2302 -0.6881
vn 0.6881 0.2301 -0.6881
vn 0.5007 0.7061 -0.5007
vn 0.6277 0.7337 0.2600
vn 0.1680 0.9714 0.1679
vn 0.5007 0.7061 0.5007
vn 0.6881 0.2301 0.6881
vn 0.8998 0.2267 0.3727
vn 0.8998 -0.2267 0.3727
vn 0.6881 -0.2302 0.6881
vn 0.5007 -0.7061 0.5007
vn 0.6277 -0.7337 0.2600
vn 0.2664 -0.9263 0.2664
vn 0.2600 -0.7337 0.6277
vn -0.0000 -0.9263 0.3767
vn -0.0000 -0.7061 0.7081
vn 0.6881 -0.2301 0.6881
vn 0.3727 -0.2267 0.8999
vn 0.3727 -0.2267 0.8998
vn -0.0000 -0.2301 0.9732
vn 0.3727 0.2267 0.8998
vn -0.0000 0.2301 0.9732
vn 0.6881 0.2302 0.6881
vn 0.2600 0.7337 0.6277
vn -0.0000 0.7061 0.7081
vn 0.1679 0.9714 0.1680
vn -0.6277 -0.7337 0.2600
vn -0.2664 -0.9263 0.2664
vn -0.5007 -0.7061 0.5007
vn -0.3768 -0.9263 -0.0000
vn -0.7081 -0.7061 -0.0000
vn -0.6881 -0.2301 0.6881
vn -0.8998 -0.2267 0.3727
vn -0.9732 -0.2301 -0.0000
vn -0.8998 0.2267 0.3727
vn -0.6881 0.2302 0.6881
vn -0.5007 0.7061 0.5007
vn -0.9732 0.2301 -0.0000
vn -0.6277 0.7337 0.2600
vn -0.1680 0.9714 0.1679
vn -0.7081 0.7061 -0.0000
vn -0.6277 -0.7337 -0.2600
vn -0.2575 -0.9212 -0.2917
vn -0.4611 -0.7427 -0.4856
vn -0.8998 -0.2267 -0.3727
vn -0.6745 -0.2809 -0.6828
vn -0.8998 0.2267 -0.3727
vn -0.6881 0.2301 -0.6881
vn -0.6277 0.7337 -0.2600
vn -0.5007 0.7061 -0.5007
vn -0.2600 0.7337 -0.6277
vn -0.3727 0.2267 -0.8998
vn -0.6881 0.2302 -0.6881
vn -0.3626 -0.3197 -0.8754
vn -0.2362 -0.7868 -0.5702
vn -0.3727 0.2267 0.8998
vn -0.2600 0.7337 0.6277
vn -0.1679 0.9714 0.1680
vn -0.6881 0.2301 0.6881
vn -0.3727 -0.2267 0.8998
vn -0.6881 -0.2302 0.6881
vn -0.2600 -0.7337 0.6277
vn -0.0000 -0.9263 0.3768
vt 0.140384 0.447557
vt 0.188216 0.399725
vt 0.188216 0.332081
vt 0.140384 0.284249
vt 0.072740 0.447557
vt 0.072740 0.284249
vt 0.024908 0.399725
vt 0.024908 0.332081
vt 0.836616 0.992296
vt 0.988103 0.992296
vt 0.912359 0.979430
vt 0.988103 0.980119
vt 0.988103 0.956567
vt 0.912359 0.956567
vt 0.912359 0.713834
vt 0.988103 0.713834
vt 0.988103 0.690282
vt 0.912359 0.690971
vt 0.988103 0.678106
vt 0.836616 0.678106
vt 0.836616 0.980119
vt 0.912359 0.956567
vt 0.760872 0.979430
vt 0.685128 0.992296
vt 0.685128 0.980119
vt 0.836616 0.956567
vt 0.760872 0.956567
vt 0.685128 0.956567
vt 0.685128 0.713834
vt 0.760872 0.713834
vt 0.760872 0.690971
vt 0.760872 0.713834
vt 0.685128 0.690282
vt 0.836616 0.713834
vt 0.836615 0.713834
vt 0.912359 0.713834
vt 0.836616 0.690282
vt 0.685128 0.678106
vt 0.609385 0.690971
vt 0.533641 0.678106
vt 0.533641 0.690282
vt 0.533641 0.713834
vt 0.609385 0.713834
vt 0.685128 0.713834
vt 0.685128 0.956567
vt 0.609385 0.956567
vt 0.609385 0.956567
vt 0.533641 0.956567
vt 0.533642 0.980119
vt 0.609385 0.979430
vt 0.685128 0.980119
vt 0.533641 0.992296
vt 0.685128 0.992296
vt 0.457898 0.979430
vt 0.533641 0.992296
vt 0.533641 0.980119
vt 0.382154 0.992296
vt 0.382154 0.980119
vt 0.533641 0.956567
vt 0.457898 0.956567
vt 0.457898 0.956567
vt 0.382154 0.956567
vt 0.457898 0.713834
vt 0.382154 0.713834
vt 0.533641 0.713834
vt 0.533641 0.690282
vt 0.457898 0.690971
vt 0.382154 0.690282
vt 0.533641 0.678106
vt 0.382154 0.678106
vt 0.760872 0.979430
vt 0.836615 0.992296
vt 0.836615 0.980119
vt 0.685128 0.992296
vt 0.685129 0.980119
vt 0.836615 0.956567
vt 0.760872 0.956567
vt 0.760872 0.956567
vt 0.685128 0.956567
vt 0.760872 0.713834
vt 0.836615 0.713834
vt 0.836615 0.690282
vt 0.685128 0.713834
vt 0.760872 0.713834
vt 0.760872 0.690971
vt 0.836615 0.678106
vt 0.685129 0.690282
vt 0.685129 0.678106
vt 0.609385 0.979430
vt 0.685128 0.992296
vt 0.685128 0.980119
vt 0.533641 0.992296
vt 0.533642 0.980119
vt 0.685128 0.956567
vt 0.609385 0.956567
vt 0.609385 0.956567
vt 0.533641 0.956567
vt 0.609385 0.713834
vt 0.685128 0.713834
vt 0.685129 0.690282
vt 0.533641 0.713834
vt 0.609385 0.713834
vt 0.609385 0.690971
vt 0.685129 0.678106
vt 0.533641 0.690282
vt 0.533641 0.678106
vt 0.457898 0.690971
vt 0.382155 0.678106
vt 0.382155 0.690282
vt 0.382155 0.713834
vt 0.457898 0.713834
vt 0.457898 0.713834
vt 0.533641 0.713834
vt 0.457898 0.956567
vt 0.382155 0.956567
vt 0.382155 0.980119
vt 0.533641 0.956567
vt 0.457898 0.956567
vt 0.457898 0.979430
vt 0.382155 0.992296
vt 0.533641 0.980119
vt 0.533641 0.992296
vt 0.988103 0.713834
vt 0.912359 0.713834
vt 0.988103 0.956567
vt 0.988103 0.690282
vt 0.912359 0.690971
vt 0.988103 0.678106
vt 0.836615 0.678106
vt 0.836615 0.690282
vt 0.836615 0.713834
vt 0.912359 0.956567
vt 0.836615 0.956567
vt 0.836616 0.980119
vt 0.912359 0.979430
vt 0.988103 0.980119
vt 0.836615 0.992296
vt 0.988103 0.992296
s 1
usemtl SpinnyPaddle3
f 1/1/1 2/2/2 3/3/3
f 3/3/3 4/4/4 1/1/1
f 4/4/4 5/5/5 1/1/1
f 4/4/4 6/6/6 5/5/5
f 6/6/6 7/7/7 5/5/5
f 6/6/6 8/8/8 7/7/7
f 9/9/9 10/10/10 11/11/11
f 11/11/11 10/10/10 12/12/12
f 11/11/11 12/12/12 13/13/13
f 14/14/14 11/11/11 13/13/13
f 15/15/15 14/14/14 13/13/13
f 16/16/16 15/15/15 13/13/13
f 16/16/16 17/17/17 15/15/15
f 17/17/17 18/18/18 15/15/15
f 17/17/17 19/19/2 18/18/18
f 18/18/18 19/19/2 20/20/1
f 21/21/19 9/9/9 11/11/11
f 21/21/19 11/11/11 22/22/14
f 23/23/20 9/9/9 21/21/19
f 24/24/21 9/9/9 23/23/20
f 25/25/22 24/24/21 23/23/20
f 26/26/23 21/21/19 22/22/14
f 23/23/20 21/21/19 26/26/23
f 25/25/22 23/23/20 27/27/24
f 27/27/24 23/23/20 26/26/23
f 28/28/25 25/25/22 27/27/24
f 29/29/26 28/28/25 27/27/24
f 30/30/27 29/29/26 27/27/24
f 30/30/27 31/31/28 29/29/26
f 32/32/27 27/27/24 26/26/23
f 31/31/28 33/33/29 29/29/26
f 34/34/30 32/32/27 26/26/23
f 35/35/31 26/26/23 22/22/14
f 36/36/15 35/35/31 22/22/14
f 36/36/15 18/18/18 35/35/31
f 34/34/30 37/37/32 32/32/27
f 18/18/18 37/37/32 35/35/31
f 37/37/32 31/31/28 32/32/27
f 18/18/18 20/20/1 37/37/32
f 37/37/32 20/20/1 31/31/28
f 31/31/28 20/20/1 38/38/5
f 31/31/28 38/38/5 33/33/29
f 33/33/29 38/38/5 39/39/33
f 39/39/33 38/38/5 40/40/34
f 39/39/33 40/40/34 41/41/35
f 39/39/33 41/41/35 42/42/36
f 33/33/29 39/39/33 43/43/37
f 43/43/37 39/39/33 42/42/36
f 44/44/26 33/33/29 43/43/37
f 44/44/26 43/43/37 45/45/25
f 43/43/37 46/46/38 45/45/25
f 43/43/37 42/42/36 47/47/38
f 42/42/36 48/48/39 47/47/38
f 48/48/39 49/49/40 47/47/38
f 46/46/38 50/50/41 45/45/25
f 49/49/40 50/50/41 47/47/38
f 50/50/41 51/51/22 45/45/25
f 49/49/40 52/52/42 50/50/41
f 50/50/41 53/53/21 51/51/22
f 52/52/42 53/53/21 50/50/41
f 54/54/43 55/55/42 56/56/40
f 57/57/44 55/55/42 54/54/43
f 58/58/45 57/57/44 54/54/43
f 54/54/43 56/56/40 59/59/46
f 60/60/47 54/54/43 59/59/46
f 58/58/45 54/54/43 61/61/48
f 62/62/49 58/58/45 61/61/48
f 63/63/50 60/60/47 59/59/46
f 64/64/51 62/62/49 61/61/48
f 63/63/50 64/64/51 61/61/48
f 65/65/52 63/63/50 59/59/46
f 65/65/52 66/66/35 63/63/50
f 63/63/50 67/67/53 64/64/51
f 66/66/35 67/67/53 63/63/50
f 67/67/53 68/68/54 64/64/51
f 66/66/35 69/69/55 67/67/53
f 67/67/53 70/70/8 68/68/54
f 67/67/53 69/69/55 70/70/8
f 71/71/56 72/72/57 73/73/58
f 74/74/59 72/72/57 71/71/56
f 75/75/60 74/74/59 71/71/56
f 71/71/56 73/73/58 76/76/61
f 77/77/62 71/71/56 76/76/61
f 75/75/60 71/71/56 78/78/62
f 79/79/63 75/75/60 78/78/62
f 80/80/64 77/77/62 76/76/61
f 81/81/65 80/80/64 76/76/61
f 81/81/65 82/82/66 80/80/64
f 83/83/67 79/79/63 78/78/62
f 84/84/64 83/83/67 78/78/62
f 82/82/66 85/85/68 80/80/64
f 84/84/64 85/85/68 83/83/67
f 82/82/66 86/86/69 85/85/68
f 85/85/68 87/87/70 83/83/67
f 85/85/68 86/86/69 88/88/4
f 85/85/68 88/88/4 87/87/70
f 89/89/71 90/90/59 91/91/60
f 92/92/72 90/90/59 89/89/71
f 93/93/73 92/92/72 89/89/71
f 89/89/71 91/91/60 94/94/63
f 95/95/74 89/89/71 94/94/63
f 93/93/73 89/89/71 96/96/74
f 97/97/75 93/93/73 96/96/74
f 98/98/76 95/95/74 94/94/63
f 99/99/67 98/98/76 94/94/63
f 99/99/67 100/100/70 98/98/76
f 101/101/77 97/97/75 96/96/74
f 102/102/76 101/101/77 96/96/74
f 100/100/70 103/103/78 98/98/76
f 102/102/76 103/103/78 101/101/77
f 100/100/70 104/104/4 103/103/78
f 103/103/78 105/105/79 101/101/77
f 103/103/78 104/104/4 106/106/3
f 103/103/78 106/106/3 105/105/79
f 105/105/79 106/106/3 107/107/80
f 107/107/80 106/106/3 108/108/2
f 107/107/80 108/108/2 109/109/17
f 107/107/80 109/109/17 110/110/16
f 111/111/81 107/107/80 110/110/16
f 105/105/79 107/107/80 112/112/81
f 113/113/82 105/105/79 112/112/81
f 111/111/81 110/110/16 114/114/83
f 110/110/16 115/115/13 114/114/83
f 115/115/13 116/116/12 114/114/83
f 113/113/82 112/112/81 117/117/75
f 112/112/81 118/118/83 117/117/75
f 116/116/12 119/119/84 114/114/83
f 118/118/83 119/119/84 117/117/75
f 116/116/12 120/120/10 119/119/84
f 119/119/84 121/121/73 117/117/75
f 120/120/10 122/122/72 119/119/84
f 119/119/84 122/122/72 121/121/73
f 123/123/51 124/124/85 125/125/49
f 123/123/51 126/126/54 124/124/85
f 126/126/54 127/127/86 124/124/85
f 126/126/54 128/128/8 127/127/86
f 127/127/86 128/128/8 129/129/87
f 127/127/86 129/129/87 130/130/66
f 127/127/86 130/130/66 131/131/88
f 124/124/85 127/127/86 131/131/88
f 124/124/85 131/131/88 132/132/89
f 124/124/85 132/132/89 125/125/49
f 131/131/88 133/133/90 132/132/89
f 133/133/90 134/134/58 132/132/89
f 132/132/89 135/135/91 125/125/49
f 134/134/58 135/135/91 132/132/89
f 135/135/91 136/136/45 125/125/49
f 134/134/58 137/137/57 135/135/91
f 135/135/91 138/138/92 136/136/45
f 137/137/57 138/138/92 135/135/91
