# Blender 4.0.2
# www.blender.org
mtllib ApparatusLight.mtl
o Apparalight.001
v -0.286120 1.843977 -4.699638
v -0.286120 1.843977 -3.762197
v -0.280697 1.899039 -4.699638
v -0.280697 1.899039 -3.762197
v -0.264636 1.951986 -4.699638
v -0.264636 1.951986 -3.762197
v -0.238554 2.000781 -4.699638
v -0.238554 2.000781 -3.762197
v -0.203454 2.043551 -4.699638
v -0.203454 2.043551 -3.762197
v -0.160684 2.078651 -4.699638
v -0.160684 2.078651 -3.762197
v -0.111889 2.104733 -4.699638
v -0.111889 2.104733 -3.762197
v -0.058943 2.120794 -4.699638
v -0.058943 2.120794 -3.762197
v -0.003880 2.126217 -4.699638
v -0.003880 2.126217 -3.762197
v 0.051182 2.120794 -4.699638
v 0.051182 2.120794 -3.762197
v 0.104128 2.104733 -4.699638
v 0.104128 2.104733 -3.762197
v 0.152924 2.078651 -4.699638
v 0.152924 2.078651 -3.762197
v 0.195694 2.043551 -4.699638
v 0.195694 2.043551 -3.762197
v 0.230794 2.000781 -4.699638
v 0.230794 2.000781 -3.762197
v 0.256875 1.951986 -4.699638
v 0.256875 1.951986 -3.762197
v 0.272937 1.899039 -4.699638
v 0.272937 1.899039 -3.762197
v 0.278360 1.843977 -4.699638
v 0.278360 1.843977 -3.762197
v 0.272937 1.788915 -4.699638
v 0.272937 1.788915 -3.762197
v 0.256875 1.735968 -4.699638
v 0.256875 1.735968 -3.762197
v 0.230794 1.687173 -4.699638
v 0.230794 1.687173 -3.762197
v 0.195693 1.644403 -4.699638
v 0.195694 1.644403 -3.762197
v 0.152924 1.609303 -4.699638
v 0.152924 1.609303 -3.762197
v 0.104128 1.583221 -4.699638
v 0.104128 1.583221 -3.762197
v 0.051182 1.567160 -4.699638
v 0.051182 1.567160 -3.762197
v -0.003880 1.561737 -4.699638
v -0.003880 1.561737 -3.762197
v -0.058943 1.567160 -4.699638
v -0.058943 1.567160 -3.762197
v -0.111889 1.583221 -4.699638
v -0.111889 1.583221 -3.762197
v -0.160684 1.609303 -4.699638
v -0.160684 1.609303 -3.762197
v -0.203454 1.644403 -4.699638
v -0.203454 1.644403 -3.762197
v -0.238554 1.687173 -4.699638
v -0.238554 1.687173 -3.762197
v -0.264636 1.735968 -4.699638
v -0.264636 1.735968 -3.762197
v -0.280697 1.788915 -4.699638
v -0.280697 1.788915 -3.762197
vn -0.9952 0.0980 -0.0000
vn -0.9569 0.2903 -0.0000
vn -0.8819 0.4714 -0.0000
vn -0.7730 0.6344 -0.0000
vn -0.6344 0.7730 -0.0000
vn -0.4714 0.8819 -0.0000
vn -0.2903 0.9569 -0.0000
vn -0.0980 0.9952 -0.0000
vn 0.0980 0.9952 -0.0000
vn 0.2903 0.9569 -0.0000
vn 0.4714 0.8819 -0.0000
vn 0.6344 0.7730 -0.0000
vn 0.7730 0.6344 -0.0000
vn 0.8819 0.4714 -0.0000
vn 0.9569 0.2903 -0.0000
vn 0.9952 0.0980 -0.0000
vn 0.9952 -0.0980 -0.0000
vn 0.9569 -0.2903 -0.0000
vn 0.8819 -0.4714 -0.0000
vn 0.7730 -0.6344 -0.0000
vn 0.6344 -0.7730 -0.0000
vn 0.4714 -0.8819 -0.0000
vn 0.2903 -0.9569 -0.0000
vn 0.0980 -0.9952 -0.0000
vn -0.0980 -0.9952 -0.0000
vn -0.2903 -0.9569 -0.0000
vn -0.4714 -0.8819 -0.0000
vn -0.6344 -0.7730 -0.0000
vn -0.7730 -0.6344 -0.0000
vn -0.8819 -0.4714 -0.0000
vn -0.0000 -0.0000 1.0000
vn -0.9569 -0.2903 -0.0000
vn -0.9952 -0.0980 -0.0000
vn -0.0000 -0.0000 -1.0000
vt 0.917427 0.235603
vt 0.917427 0.352814
vt 0.910101 0.352814
vt 0.910101 0.235603
vt 0.902775 0.352814
vt 0.902775 0.235603
vt 0.895450 0.352814
vt 0.895450 0.235603
vt 0.888124 0.352814
vt 0.888124 0.235603
vt 0.880798 0.352814
vt 0.880798 0.235603
vt 0.873472 0.352814
vt 0.873472 0.235603
vt 0.866147 0.352814
vt 0.866147 0.235603
vt 0.858821 0.352814
vt 0.858821 0.235603
vt 0.851495 0.352814
vt 0.851495 0.235603
vt 0.844170 0.352814
vt 0.844170 0.235603
vt 0.836844 0.352814
vt 0.836844 0.235603
vt 0.829518 0.352814
vt 0.829518 0.235603
vt 0.822193 0.352814
vt 0.822193 0.235603
vt 0.814867 0.352814
vt 0.814867 0.235603
vt 0.807541 0.352814
vt 0.807541 0.235603
vt 0.800215 0.352814
vt 0.800215 0.235603
vt 0.792890 0.352814
vt 0.792890 0.235603
vt 0.785564 0.352814
vt 0.785564 0.235603
vt 0.778238 0.352814
vt 0.778238 0.235603
vt 0.770913 0.352814
vt 0.770913 0.235603
vt 0.763587 0.352814
vt 0.763587 0.235603
vt 0.756261 0.352814
vt 0.756261 0.235603
vt 0.748936 0.352814
vt 0.748936 0.235603
vt 0.741610 0.352814
vt 0.741610 0.235603
vt 0.734284 0.352814
vt 0.734284 0.235603
vt 0.726959 0.352814
vt 0.726959 0.235603
vt 0.719633 0.352814
vt 0.719633 0.235603
vt 0.712307 0.352814
vt 0.712307 0.235603
vt 0.704982 0.352814
vt 0.704982 0.235603
vt 0.697656 0.352814
vt 0.697656 0.235603
vt 0.752586 0.232177
vt 0.741610 0.233258
vt 0.730634 0.232177
vt 0.720080 0.228976
vt 0.710353 0.223777
vt 0.701827 0.216780
vt 0.694830 0.208254
vt 0.689631 0.198527
vt 0.686430 0.187973
vt 0.685349 0.176997
vt 0.686430 0.166021
vt 0.689631 0.155467
vt 0.694830 0.145740
vt 0.701827 0.137214
vt 0.710353 0.130217
vt 0.720080 0.125018
vt 0.730634 0.121817
vt 0.741610 0.120736
vt 0.752586 0.121817
vt 0.763140 0.125018
vt 0.772867 0.130217
vt 0.781393 0.137214
vt 0.788390 0.145740
vt 0.793589 0.155467
vt 0.796790 0.166021
vt 0.797871 0.176997
vt 0.796790 0.187973
vt 0.793589 0.198527
vt 0.788390 0.208254
vt 0.781393 0.216780
vt 0.772867 0.223777
vt 0.763140 0.228976
vt 0.690330 0.352814
vt 0.690330 0.235603
vt 0.683004 0.352814
vt 0.683004 0.235603
vt 0.858821 0.233258
vt 0.869797 0.232177
vt 0.880351 0.228976
vt 0.890078 0.223777
vt 0.898604 0.216780
vt 0.905601 0.208254
vt 0.910800 0.198527
vt 0.914001 0.187973
vt 0.915082 0.176997
vt 0.914001 0.166021
vt 0.910800 0.155467
vt 0.905601 0.145740
vt 0.898604 0.137214
vt 0.890078 0.130217
vt 0.880351 0.125018
vt 0.869797 0.121817
vt 0.858821 0.120736
vt 0.847845 0.121817
vt 0.837291 0.125018
vt 0.827564 0.130217
vt 0.819038 0.137214
vt 0.812042 0.145740
vt 0.806842 0.155467
vt 0.803641 0.166021
vt 0.802560 0.176997
vt 0.803641 0.187973
vt 0.806842 0.198527
vt 0.812042 0.208254
vt 0.819038 0.216780
vt 0.827564 0.223777
vt 0.837291 0.228976
vt 0.847845 0.232177
s 0
usemtl 
f 1/1/1 2/2/1 4/3/1 3/4/1
f 3/4/2 4/3/2 6/5/2 5/6/2
f 5/6/3 6/5/3 8/7/3 7/8/3
f 7/8/4 8/7/4 10/9/4 9/10/4
f 9/10/5 10/9/5 12/11/5 11/12/5
f 11/12/6 12/11/6 14/13/6 13/14/6
f 13/14/7 14/13/7 16/15/7 15/16/7
f 15/16/8 16/15/8 18/17/8 17/18/8
f 17/18/9 18/17/9 20/19/9 19/20/9
f 19/20/10 20/19/10 22/21/10 21/22/10
f 21/22/11 22/21/11 24/23/11 23/24/11
f 23/24/12 24/23/12 26/25/12 25/26/12
f 25/26/13 26/25/13 28/27/13 27/28/13
f 27/28/14 28/27/14 30/29/14 29/30/14
f 29/30/15 30/29/15 32/31/15 31/32/15
f 31/32/16 32/31/16 34/33/16 33/34/16
f 33/34/17 34/33/17 36/35/17 35/36/17
f 35/36/18 36/35/18 38/37/18 37/38/18
f 37/38/19 38/37/19 40/39/19 39/40/19
f 39/40/20 40/39/20 42/41/20 41/42/20
f 41/42/21 42/41/21 44/43/21 43/44/21
f 43/44/22 44/43/22 46/45/22 45/46/22
f 45/46/23 46/45/23 48/47/23 47/48/23
f 47/48/24 48/47/24 50/49/24 49/50/24
f 49/50/25 50/49/25 52/51/25 51/52/25
f 51/52/26 52/51/26 54/53/26 53/54/26
f 53/54/27 54/53/27 56/55/27 55/56/27
f 55/56/28 56/55/28 58/57/28 57/58/28
f 57/58/29 58/57/29 60/59/29 59/60/29
f 59/60/30 60/59/30 62/61/30 61/62/30
f 4/63/31 2/64/31 64/65/31 62/66/31 60/67/31 58/68/31 56/69/31 54/70/31 52/71/31 50/72/31 48/73/31 46/74/31 44/75/31 42/76/31 40/77/31 38/78/31 36/79/31 34/80/31 32/81/31 30/82/31 28/83/31 26/84/31 24/85/31 22/86/31 20/87/31 18/88/31 16/89/31 14/90/31 12/91/31 10/92/31 8/93/31 6/94/31
f 61/62/32 62/61/32 64/95/32 63/96/32
f 63/96/33 64/95/33 2/97/33 1/98/33
f 1/99/34 3/100/34 5/101/34 7/102/34 9/103/34 11/104/34 13/105/34 15/106/34 17/107/34 19/108/34 21/109/34 23/110/34 25/111/34 27/112/34 29/113/34 31/114/34 33/115/34 35/116/34 37/117/34 39/118/34 41/119/34 43/120/34 45/121/34 47/122/34 49/123/34 51/124/34 53/125/34 55/126/34 57/127/34 59/128/34 61/129/34 63/130/34
