# Blender 4.0.2
# www.blender.org
o Cube
v 2.000000 0.000000 -0.000000
v 2.000000 2.000000 -0.000000
v 2.000000 0.000000 -0.300000
v 2.000000 2.000000 -0.300000
v 2.000000 1.000000 -0.000000
v 1.026133 0.000000 -0.300000
v 1.000000 0.000000 -0.300000
v 1.026133 2.000000 -0.300000
v 1.000000 2.000000 -0.300000
v 1.026133 0.000000 -0.000000
v 1.000000 0.000000 -0.030000
v 1.026133 2.000000 -0.000000
v 1.000000 2.000000 -0.030000
v 1.026133 1.000000 -0.000000
v 1.200000 1.700000 -0.000000
v 1.800000 1.100000 -0.000000
v 1.800000 1.700000 -0.000000
v 1.200000 1.100000 -0.000000
v 1.800000 1.100000 -0.300000
v 1.800000 1.700000 -0.300000
v 1.200000 1.700000 -0.300000
v 1.200000 1.100000 -0.300000
v 1.200000 1.100000 -0.245997
v 1.200000 1.100000 -0.054003
v 1.800000 1.100000 -0.054003
v 1.800000 1.100000 -0.245997
v 1.714286 1.700000 -0.245997
v 1.714286 1.700000 -0.054003
v 1.200000 1.100000 -0.054003
v 1.800000 1.100000 -0.054003
v 1.285715 1.100000 -0.054003
v 1.371429 1.100000 -0.054003
v 1.457143 1.100000 -0.054003
v 1.542857 1.100000 -0.054003
v 1.628572 1.100000 -0.054003
v 1.714286 1.100000 -0.054003
v 1.800000 1.100000 -0.245997
v 1.200000 1.100000 -0.245997
v 1.714286 1.100000 -0.245997
v 1.628572 1.100000 -0.245997
v 1.542857 1.100000 -0.245997
v 1.457143 1.100000 -0.245997
v 1.371429 1.100000 -0.245997
v 1.285715 1.100000 -0.245997
v 1.628572 1.700000 -0.245997
v 1.628572 1.700000 -0.054003
v 1.542857 1.700000 -0.054003
v 1.542857 1.700000 -0.245997
v 1.457143 1.700000 -0.245997
v 1.457143 1.700000 -0.054003
v 1.371429 1.700000 -0.054003
v 1.371429 1.700000 -0.245997
v 1.285715 1.700000 -0.245997
v 1.285715 1.700000 -0.054003
v 1.000000 -0.500000 -0.000000
v 1.000000 0.500000 -0.000000
v 0.000000 0.000000 -0.000000
v 0.000000 2.000000 -0.000000
v 0.000000 0.000000 -0.300000
v 0.000000 2.000000 -0.300000
v 0.000000 1.000000 -0.000000
v 0.973867 0.000000 -0.300000
v 0.973867 2.000000 -0.300000
v 0.973867 0.000000 -0.000000
v 0.973867 2.000000 -0.000000
v 0.973867 1.000000 -0.000000
v 0.800000 1.700000 -0.000000
v 0.200000 1.100000 -0.000000
v 0.200000 1.700000 -0.000000
v 0.800000 1.100000 -0.000000
v 0.200000 1.100000 -0.300000
v 0.200000 1.700000 -0.300000
v 0.800000 1.700000 -0.300000
v 0.800000 1.100000 -0.300000
v 0.800000 1.100000 -0.245997
v 0.800000 1.100000 -0.054003
v 0.200000 1.100000 -0.054003
v 0.200000 1.100000 -0.245997
v 0.285714 1.700000 -0.245997
v 0.285714 1.700000 -0.054003
v 0.800000 1.100000 -0.054003
v 0.200000 1.100000 -0.054003
v 0.714285 1.100000 -0.054003
v 0.628571 1.100000 -0.054003
v 0.542857 1.100000 -0.054003
v 0.457143 1.100000 -0.054003
v 0.371428 1.100000 -0.054003
v 0.285714 1.100000 -0.054003
v 0.200000 1.100000 -0.245997
v 0.800000 1.100000 -0.245997
v 0.285714 1.100000 -0.245997
v 0.371428 1.100000 -0.245997
v 0.457143 1.100000 -0.245997
v 0.542857 1.100000 -0.245997
v 0.628571 1.100000 -0.245997
v 0.714285 1.100000 -0.245997
v 0.371428 1.700000 -0.245997
v 0.371428 1.700000 -0.054003
v 0.457143 1.700000 -0.054003
v 0.457143 1.700000 -0.245997
v 0.542857 1.700000 -0.245997
v 0.542857 1.700000 -0.054003
v 0.628571 1.700000 -0.054003
v 0.628571 1.700000 -0.245997
v 0.714285 1.700000 -0.245997
v 0.714285 1.700000 -0.054003
v 1.260000 0.814914 0.021052
v 1.260000 0.885086 0.021052
v 1.260000 0.814914 -0.021052
v 1.260000 0.885086 -0.021052
v 1.140000 0.790000 0.036000
v 1.140000 0.910000 0.036000
v 1.140000 0.790000 -0.036000
v 1.140000 0.910000 -0.036000
v 1.260000 0.790000 -0.036000
v 1.260000 0.790000 0.036000
v 1.260000 0.910000 0.036000
v 1.260000 0.910000 -0.036000
v 1.410000 0.814914 -0.021052
v 1.410000 0.814914 0.021052
v 1.410000 0.885086 0.021052
v 1.410000 0.885086 -0.021052
v 0.000000 0.000000 -0.000000
v 0.000000 2.000000 -0.000000
v 0.000000 0.000000 -0.300000
v 0.000000 2.000000 -0.300000
v 0.000000 1.000000 -0.000000
v 0.973867 0.000000 -0.300000
v 0.973867 2.000000 -0.300000
v 0.973867 0.000000 -0.000000
v 0.973867 2.000000 -0.000000
v 0.973867 1.000000 -0.000000
v 0.800000 1.700000 -0.000000
v 0.200000 1.100000 -0.000000
v 0.200000 1.700000 -0.000000
v 0.800000 1.100000 -0.000000
v 0.200000 1.100000 -0.300000
v 0.200000 1.700000 -0.300000
v 0.800000 1.700000 -0.300000
v 0.800000 1.100000 -0.300000
v 0.800000 1.100000 -0.245997
v 0.800000 1.100000 -0.054003
v 0.200000 1.100000 -0.054003
v 0.200000 1.100000 -0.245997
v 0.285714 1.700000 -0.245997
v 0.285714 1.700000 -0.054003
v 0.800000 1.100000 -0.054003
v 0.200000 1.100000 -0.054003
v 0.714285 1.100000 -0.054003
v 0.628571 1.100000 -0.054003
v 0.542857 1.100000 -0.054003
v 0.457143 1.100000 -0.054003
v 0.371428 1.100000 -0.054003
v 0.285714 1.100000 -0.054003
v 0.200000 1.100000 -0.245997
v 0.800000 1.100000 -0.245997
v 0.285714 1.100000 -0.245997
v 0.371428 1.100000 -0.245997
v 0.457143 1.100000 -0.245997
v 0.542857 1.100000 -0.245997
v 0.628571 1.100000 -0.245997
v 0.714285 1.100000 -0.245997
v 0.371428 1.700000 -0.245997
v 0.371428 1.700000 -0.054003
v 0.457143 1.700000 -0.054003
v 0.457143 1.700000 -0.245997
v 0.542857 1.700000 -0.245997
v 0.542857 1.700000 -0.054003
v 0.628571 1.700000 -0.054003
v 0.628571 1.700000 -0.245997
v 0.714285 1.700000 -0.245997
v 0.714285 1.700000 -0.054003
v 2.000000 0.000000 -0.000000
v 2.000000 2.000000 -0.000000
v 2.000000 0.000000 -0.300000
v 2.000000 2.000000 -0.300000
v 2.000000 1.000000 -0.000000
v 1.026133 0.000000 -0.300000
v 1.026133 2.000000 -0.300000
v 1.026133 0.000000 -0.000000
v 1.026133 2.000000 -0.000000
v 1.026133 1.000000 -0.000000
v 1.200000 1.700000 -0.000000
v 1.800000 1.100000 -0.000000
v 1.800000 1.700000 -0.000000
v 1.200000 1.100000 -0.000000
v 1.800000 1.100000 -0.300000
v 1.800000 1.700000 -0.300000
v 1.200000 1.700000 -0.300000
v 1.200000 1.100000 -0.300000
v 1.200000 1.100000 -0.245997
v 1.200000 1.100000 -0.054003
v 1.800000 1.100000 -0.054003
v 1.800000 1.100000 -0.245997
v 1.714286 1.700000 -0.245997
v 1.714286 1.700000 -0.054003
v 1.200000 1.100000 -0.054003
v 1.800000 1.100000 -0.054003
v 1.285715 1.100000 -0.054003
v 1.371429 1.100000 -0.054003
v 1.457143 1.100000 -0.054003
v 1.542857 1.100000 -0.054003
v 1.628572 1.100000 -0.054003
v 1.714286 1.100000 -0.054003
v 1.800000 1.100000 -0.245997
v 1.200000 1.100000 -0.245997
v 1.714286 1.100000 -0.245997
v 1.628572 1.100000 -0.245997
v 1.542857 1.100000 -0.245997
v 1.457143 1.100000 -0.245997
v 1.371429 1.100000 -0.245997
v 1.285715 1.100000 -0.245997
v 1.628572 1.700000 -0.245997
v 1.628572 1.700000 -0.054003
v 1.542857 1.700000 -0.054003
v 1.542857 1.700000 -0.245997
v 1.457143 1.700000 -0.245997
v 1.457143 1.700000 -0.054003
v 1.371429 1.700000 -0.054003
v 1.371429 1.700000 -0.245997
v 1.285715 1.700000 -0.245997
v 1.285715 1.700000 -0.054003
v 0.740000 0.814914 0.021052
v 0.740000 0.885086 0.021052
v 0.740000 0.814914 -0.021052
v 0.740000 0.885086 -0.021052
v 0.860000 0.790000 0.036000
v 0.860000 0.910000 0.036000
v 0.860000 0.790000 -0.036000
v 0.860000 0.910000 -0.036000
v 0.740000 0.790000 -0.036000
v 0.740000 0.790000 0.036000
v 0.740000 0.910000 0.036000
v 0.740000 0.910000 -0.036000
v 0.590000 0.814914 -0.021052
v 0.590000 0.814914 0.021052
v 0.590000 0.885086 0.021052
v 0.590000 0.885086 -0.021052
v 0.000000 0.000000 0.300000
v 1.000000 0.000000 0.300000
v 0.000000 2.000000 0.300000
v 1.000000 2.000000 0.300000
v 0.000000 1.714286 0.300000
v 0.428571 0.000000 0.300000
v 0.714286 0.000000 0.300000
v 1.000000 1.714286 0.300000
v 0.857143 1.714286 0.300000
v 0.857143 1.142857 0.300000
v 0.000000 0.000000 -0.000000
v 0.142857 1.714286 0.300000
v 0.142857 1.142857 0.300000
v 0.000000 2.000000 -0.000000
v 0.000000 1.714286 -0.000000
v 0.857143 1.714286 -0.000000
v 0.857143 1.142857 -0.000000
v 0.142857 1.714286 -0.000000
v 0.142857 1.142857 -0.000000
v 0.270064 1.142857 0.284901
v 0.321773 1.142857 0.284901
v 0.474145 1.142857 0.284901
v 0.525855 1.142857 0.284901
v 0.678227 1.142857 0.284901
v 0.729936 1.142857 0.284901
v 0.270064 1.142857 0.015099
v 0.321773 1.142857 0.015099
v 0.474145 1.142857 0.015099
v 0.525855 1.142857 0.015099
v 0.678227 1.142857 0.015099
v 0.729936 1.142857 0.015099
v 0.244898 1.142857 0.300000
v 0.346939 1.142857 0.300000
v 0.448980 1.142857 0.300000
v 0.551020 1.142857 0.300000
v 0.653061 1.142857 0.300000
v 0.755102 1.142857 0.300000
v 0.244898 1.142857 -0.000000
v 0.346939 1.142857 -0.000000
v 0.448980 1.142857 -0.000000
v 0.551020 1.142857 -0.000000
v 0.653061 1.142857 -0.000000
v 0.755102 1.142857 -0.000000
v 0.270064 1.742857 0.284901
v 0.321773 1.742857 0.284901
v 0.474145 1.742857 0.284901
v 0.525855 1.742857 0.284901
v 0.678227 1.742857 0.284901
v 0.729936 1.742857 0.284901
v 0.270064 1.742857 0.015099
v 0.321773 1.742857 0.015099
v 0.474145 1.742857 0.015099
v 0.525855 1.742857 0.015099
v 0.678227 1.742857 0.015099
v 0.729936 1.742857 0.015099
v 1.000000 0.000000 0.042973
v 0.928379 0.000000 -0.000000
v 0.979023 0.000000 0.012586
v 0.928379 1.714286 -0.000000
v 1.000000 1.714286 0.042973
v 0.979023 1.714286 0.012586
v 0.928379 2.000000 -0.000000
v 1.000000 2.000000 0.042973
v 0.979023 2.000000 0.012586
vn -0.0000 -0.0000 1.0000
vn -0.0000 1.0000 -0.0000
vn -0.0000 -1.0000 -0.0000
vn -0.0000 -0.0000 -1.0000
vn -1.0000 -0.0000 -0.0000
vn 1.0000 -0.0000 -0.0000
vn 0.8229 -0.0000 -0.5681
vn 0.2412 -0.0000 -0.9705
vn -0.0000 -0.1483 0.9889
vt 0.571429 1.000000
vt 0.551020 0.428571
vt 0.448980 0.428571
vt 0.142857 0.142857
vt 1.000000 0.000000
vt 0.000000 0.142857
vt 0.071621 0.000000
vt 0.000000 0.000000
vt 0.857143 0.142857
vt 0.142857 0.428571
vt 0.000000 1.000000
vt 0.071621 1.000000
vt 1.000000 0.142857
vt 0.525855 0.428571
vt 0.244898 0.428571
vt 0.857143 0.428571
vt 0.755102 0.428571
vt 0.474145 0.428571
vt 0.653061 0.428571
vt 0.653061 0.428571
vt 0.270064 0.428571
vt 0.270064 0.428572
vt 0.346939 0.428571
vt 0.678227 0.428571
vt 0.729936 0.428571
vt 0.321773 0.428571
vt 0.729936 0.428572
vt 0.678227 0.428572
vt 0.474145 0.428572
vt 0.321773 0.428571
vt 0.755102 0.428571
vt 0.346939 0.428571
vt 0.006992 0.000000
vt 0.071621 0.142857
vt 0.006992 1.000000
vt 0.071621 1.000000
vt 1.000000 1.000000
vt 0.285714 1.000000
vt 0.071621 0.000000
vt 0.071621 0.142857
s 0
f 244/1/1 273/3/1 272/2/1
f 247/4/1 246/6/1 241/5/1
f 241/5/2 301/8/2 300/7/2
f 254/4/3 247/4/3 250/9/3
f 252/5/4 254/4/4 256/9/4
f 248/10/5 247/4/5 254/4/5
f 244/1/3 295/12/3 294/11/3
f 243/13/5 241/5/5 253/13/5
f 266/14/5 260/14/5 284/14/5
f 246/6/6 298/6/6 301/8/6
f 281/15/2 275/15/2 248/10/2
f 257/16/2 251/16/2 270/17/2
f 260/14/1 261/18/1 285/18/1
f 277/19/2 271/20/2 272/2/2
f 263/21/6 269/22/6 293/22/6
f 279/3/2 273/3/2 274/23/2
f 250/9/6 251/16/6 257/16/6
f 259/24/2 258/25/2 270/17/2
f 261/18/2 260/14/2 272/2/2
f 263/21/2 262/26/2 274/23/2
f 264/27/2 265/28/2 277/19/2
f 266/14/2 267/29/2 279/3/2
f 268/30/2 269/22/2 281/15/2
f 258/25/2 264/27/2 276/31/2
f 265/28/2 259/24/2 271/20/2
f 260/14/2 266/14/2 278/2/2
f 267/29/2 261/18/2 273/3/2
f 262/26/2 268/30/2 280/32/2
f 269/22/2 263/21/2 275/15/2
f 292/30/2 286/26/2 287/21/2
f 288/27/2 282/25/2 283/24/2
f 290/14/2 284/14/2 285/18/2
f 269/22/4 268/30/4 292/30/4
f 262/26/1 263/21/1 287/21/1
f 261/18/6 267/29/6 291/29/6
f 264/27/5 258/25/5 282/25/5
f 265/28/4 264/27/4 288/27/4
f 268/30/5 262/26/5 286/26/5
f 258/25/1 259/24/1 283/24/1
f 259/24/6 265/28/6 289/28/6
f 267/29/4 266/14/4 290/14/4
f 301/8/7 298/6/7 299/6/7
f 302/33/8 299/6/8 297/34/8
f 298/6/7 294/11/7 296/35/7
f 299/6/8 296/35/8 295/36/8
f 249/37/4 278/2/4 279/3/4
f 246/6/1 245/38/1 240/11/1
f 244/1/1 243/13/1 239/37/1
f 248/10/1 246/6/1 247/4/1
f 248/10/1 245/38/1 246/6/1
f 243/13/1 251/16/1 250/9/1
f 244/1/9 251/16/9 243/13/9
f 248/10/1 244/1/1 245/38/1
f 275/15/1 244/1/1 248/10/1
f 244/1/1 270/17/1 251/16/1
f 244/1/1 271/20/1 270/17/1
f 274/23/1 244/1/1 275/15/1
f 273/3/1 244/1/1 274/23/1
f 244/1/1 272/2/1 271/20/1
f 250/9/1 241/5/1 243/13/1
f 241/5/1 246/6/1 242/8/1
f 247/4/1 241/5/1 250/9/1
f 301/8/2 241/5/2 242/8/2
f 241/5/2 300/7/2 252/5/2
f 300/7/2 301/8/2 302/33/2
f 254/4/3 250/9/3 256/9/3
f 297/34/4 252/5/4 300/39/4
f 252/5/4 256/9/4 253/13/4
f 254/4/4 252/5/4 297/34/4
f 248/10/5 254/4/5 255/10/5
f 245/38/3 294/11/3 240/11/3
f 294/11/3 295/12/3 296/35/3
f 295/12/3 239/37/3 249/37/3
f 244/1/3 294/11/3 245/38/3
f 295/12/3 244/1/3 239/37/3
f 243/13/5 249/37/5 239/37/5
f 253/13/5 241/5/5 252/5/5
f 243/13/5 253/13/5 249/37/5
f 266/14/5 284/14/5 290/14/5
f 294/11/6 246/6/6 240/11/6
f 246/6/6 301/8/6 242/8/6
f 298/6/6 246/6/6 294/11/6
f 281/15/2 248/10/2 255/10/2
f 257/16/2 270/17/2 276/31/2
f 260/14/1 285/18/1 284/14/1
f 277/19/2 272/2/2 278/2/2
f 263/21/6 293/22/6 287/21/6
f 279/3/2 274/23/2 280/32/2
f 250/9/6 257/16/6 256/9/6
f 259/24/2 270/17/2 271/20/2
f 261/18/2 272/2/2 273/3/2
f 263/21/2 274/23/2 275/15/2
f 264/27/2 277/19/2 276/31/2
f 266/14/2 279/3/2 278/2/2
f 268/30/2 281/15/2 280/32/2
f 258/25/2 276/31/2 270/17/2
f 265/28/2 271/20/2 277/19/2
f 260/14/2 278/2/2 272/2/2
f 267/29/2 273/3/2 279/3/2
f 262/26/2 280/32/2 274/23/2
f 269/22/2 275/15/2 281/15/2
f 292/30/2 287/21/2 293/22/2
f 288/27/2 283/24/2 289/28/2
f 290/14/2 285/18/2 291/29/2
f 269/22/4 292/30/4 293/22/4
f 262/26/1 287/21/1 286/26/1
f 261/18/6 291/29/6 285/18/6
f 264/27/5 282/25/5 288/27/5
f 265/28/4 288/27/4 289/28/4
f 268/30/5 286/26/5 292/30/5
f 258/25/1 283/24/1 282/25/1
f 259/24/6 289/28/6 283/24/6
f 267/29/4 290/14/4 291/29/4
f 301/8/7 299/6/7 302/33/7
f 302/33/8 297/34/8 300/39/8
f 298/6/7 296/35/7 299/6/7
f 299/6/8 295/36/8 297/40/8
f 295/36/4 254/4/4 297/40/4
f 295/36/4 255/10/4 254/4/4
f 256/9/4 249/37/4 253/13/4
f 257/16/4 249/37/4 256/9/4
f 249/37/4 255/10/4 295/36/4
f 249/37/4 281/15/4 255/10/4
f 276/31/4 249/37/4 257/16/4
f 277/19/4 249/37/4 276/31/4
f 249/37/4 280/32/4 281/15/4
f 249/37/4 279/3/4 280/32/4
f 278/2/4 249/37/4 277/19/4
