# Blender 4.0.2
# www.blender.org
o EntranceInside
v -1.600000 0.000000 9.600000
v -1.600000 3.200000 9.600000
v -1.600000 0.000000 -8.000000
v -1.600000 3.200000 -8.000000
v 0.000000 0.000000 9.600000
v 0.000000 3.200000 9.600000
v 0.000000 0.000000 -8.000000
v 0.000000 3.200000 -8.000000
v -1.600000 0.000000 8.000000
v -1.600000 3.200000 8.000000
v 0.000000 0.000000 8.000000
v 0.000000 3.200000 8.000000
v 16.000000 3.200000 8.000000
v 16.000000 3.200000 9.600000
v 16.000000 0.000000 9.600000
v 16.000000 0.000000 8.000000
v 17.600000 3.200000 8.000000
v 17.600000 3.200000 9.600000
v 17.600000 0.000000 9.600000
v 17.600000 0.000000 8.000000
v 16.000000 3.200000 -8.000000
v 16.000000 0.000000 -8.000000
v 17.600000 3.200000 -8.000000
v 17.600000 0.000000 -8.000000
v -1.600000 0.000000 -9.600000
v -1.600000 3.200000 -9.600000
v 7.200000 0.000000 -8.000000
v 7.200000 3.200000 -8.000000
v 0.000000 3.200000 -9.600000
v 0.000000 0.000000 -9.600000
v 16.000000 3.200000 -9.600000
v 16.000000 0.000000 -9.600000
v 17.600000 3.200000 -9.600000
v 17.600000 0.000000 -9.600000
v 8.800000 3.200000 -8.000000
v 8.800000 0.000000 -8.000000
v 8.800000 3.200000 -9.600000
v 8.800000 0.000000 -9.600000
v 7.200000 3.200000 -9.600000
v 7.200000 0.000000 -9.600000
v 0.000000 -1.600000 8.000000
v 0.000000 0.000000 8.000000
v 0.000000 -1.600000 -8.000000
v 0.000000 0.000000 -8.000000
v 16.000000 -1.600000 8.000000
v 16.000000 0.000000 8.000000
v 16.000000 -1.600000 -8.000000
v 16.000000 0.000000 -8.000000
v 0.000000 0.000000 -9.600000
v 0.000000 -1.600000 -9.600000
v 16.000000 -1.600000 -9.600000
v 16.000000 0.000000 -9.600000
v 9.600000 0.000000 8.019000
v 9.600000 0.000000 7.778999
v -1.600000 3.200000 0.800000
v 0.000000 0.000000 0.800000
v -1.600000 0.000000 0.800000
v 0.000000 3.200000 0.800000
v -1.600000 3.200000 -0.800000
v 0.000000 0.000000 -0.800000
v -1.600000 0.000000 -0.800000
v 0.000000 3.200000 -0.800000
v 8.800000 0.000000 8.000000
v 8.800000 0.000000 9.600000
v 8.800000 3.200000 9.600000
v 8.800000 3.200000 8.000000
v 7.200000 0.000000 9.600000
v 7.200000 3.200000 8.000000
v 7.200000 3.200000 9.600000
v 7.200000 0.000000 8.000000
v 0.000000 -1.600000 9.600000
v 0.000000 0.000000 9.600000
v 16.000000 0.000000 9.600000
v 16.000000 -1.600000 9.600000
v -1.600000 -1.600000 -8.000000
v -1.600000 -1.600000 8.000000
v -1.600000 0.000000 8.000000
v -1.600000 0.000000 -8.000000
vn -1.0000 -0.0000 -0.0000
vn -0.0000 -1.0000 -0.0000
vn -0.0000 -0.0000 1.0000
vn -0.0000 1.0000 -0.0000
vn 1.0000 -0.0000 -0.0000
vn -0.0000 -0.0000 -1.0000
vt 0.625000 0.218750
vt 0.375000 0.250000
vt 0.375000 0.218750
vt 0.625000 0.250000
vt 0.375000 0.625000
vt 0.375000 0.750000
vt 0.625000 0.750000
vt 0.375000 1.000000
vt 0.125000 0.750000
vt 0.125000 0.625000
vt 0.875000 0.625000
vt 0.625000 0.625000
vt 0.875000 0.562500
vt 0.625000 0.562500
vt 0.375000 0.562500
vt 0.125000 0.562500
vt 0.625000 0.000000
vt 0.375000 0.125000
vt 0.375000 0.000000
vt 0.625000 0.500000
vt 0.375000 0.500000
vt 0.875000 0.500000
vt 0.125000 0.500000
vt 0.625000 0.125000
vt 0.375000 0.187500
vt 0.625000 0.531250
vt 0.125000 0.531250
vt 0.375000 0.531250
vt 0.875000 0.750000
vt 0.625000 1.000000
vt 0.625000 0.187500
vt 0.875000 0.531250
s 0
f 59/1/1 3/2/1 61/3/1
f 4/4/1 25/2/1 3/2/1
f 63/5/2 15/6/2 64/6/2
f 6/7/3 1/8/3 5/6/3
f 11/5/2 1/9/2 9/10/2
f 10/11/4 6/7/4 12/12/4
f 55/13/4 12/12/4 58/14/4
f 56/15/2 9/10/2 57/16/2
f 58/14/5 11/5/5 56/15/5
f 2/17/1 9/18/1 1/19/1
f 13/12/1 22/5/1 16/5/1
f 65/7/4 13/12/4 66/12/4
f 64/6/3 14/7/3 65/7/3
f 66/12/6 16/5/6 63/5/6
f 17/12/5 19/6/5 20/5/5
f 15/6/3 18/7/3 14/7/3
f 16/5/2 19/6/2 15/6/2
f 14/7/4 17/12/4 13/12/4
f 23/12/4 31/12/4 21/12/4
f 16/5/2 24/5/2 20/5/2
f 20/5/5 23/12/5 17/12/5
f 17/12/4 21/12/4 13/12/4
f 8/20/4 39/20/4 29/20/4
f 29/20/6 40/21/6 30/21/6
f 30/21/2 27/21/2 7/21/2
f 8/20/4 26/22/4 4/22/4
f 26/22/6 30/21/6 25/23/6
f 3/23/2 30/21/2 7/21/2
f 31/12/6 34/5/6 32/5/6
f 22/5/2 38/5/2 32/5/2
f 22/5/2 34/5/2 24/5/2
f 24/5/5 33/12/5 23/12/5
f 35/12/1 38/5/1 36/5/1
f 32/5/6 37/12/6 31/12/6
f 21/12/3 36/5/3 22/5/3
f 31/12/4 35/12/4 21/12/4
f 7/21/3 28/20/3 8/20/3
f 27/21/5 39/20/5 28/20/5
f 43/2/6 78/4/6 44/4/6
f 48/20/4 49/22/4 44/22/4
f 48/20/5 45/6/5 47/21/5
f 46/7/5 74/6/5 45/6/5
f 47/21/2 41/9/2 43/23/2
f 44/22/4 46/7/4 48/20/4
f 49/4/6 51/21/6 50/2/6
f 44/4/1 50/2/1 43/2/1
f 47/21/5 52/20/5 48/20/5
f 43/23/2 51/21/2 47/21/2
f 41/19/1 72/17/1 42/17/1
f 73/7/3 71/8/3 74/6/3
f 57/16/6 58/14/6 56/15/6
f 10/24/1 57/25/1 9/18/1
f 4/22/4 62/26/4 8/20/4
f 7/21/2 61/27/2 3/23/2
f 8/20/5 60/28/5 7/21/5
f 61/3/3 62/26/3 59/1/3
f 63/5/1 65/7/1 66/12/1
f 68/12/5 67/6/5 70/5/5
f 11/5/2 67/6/2 5/6/2
f 6/7/4 68/12/4 12/12/4
f 12/12/6 70/5/6 11/5/6
f 5/6/3 69/7/3 6/7/3
f 45/6/2 71/9/2 41/9/2
f 42/29/4 73/7/4 46/7/4
f 77/17/1 75/2/1 76/19/1
f 42/17/3 76/19/3 41/19/3
f 44/22/4 77/29/4 42/29/4
f 41/9/2 75/23/2 43/23/2
f 59/1/1 4/4/1 3/2/1
f 4/4/1 26/4/1 25/2/1
f 63/5/2 16/5/2 15/6/2
f 6/7/3 2/30/3 1/8/3
f 11/5/2 5/6/2 1/9/2
f 10/11/4 2/29/4 6/7/4
f 55/13/4 10/11/4 12/12/4
f 56/15/2 11/5/2 9/10/2
f 58/14/5 12/12/5 11/5/5
f 2/17/1 10/24/1 9/18/1
f 13/12/1 21/12/1 22/5/1
f 65/7/4 14/7/4 13/12/4
f 64/6/3 15/6/3 14/7/3
f 66/12/6 13/12/6 16/5/6
f 17/12/5 18/7/5 19/6/5
f 15/6/3 19/6/3 18/7/3
f 16/5/2 20/5/2 19/6/2
f 14/7/4 18/7/4 17/12/4
f 23/12/4 33/12/4 31/12/4
f 16/5/2 22/5/2 24/5/2
f 20/5/5 24/5/5 23/12/5
f 17/12/4 23/12/4 21/12/4
f 8/20/4 28/20/4 39/20/4
f 29/20/6 39/20/6 40/21/6
f 30/21/2 40/21/2 27/21/2
f 8/20/4 29/20/4 26/22/4
f 26/22/6 29/20/6 30/21/6
f 3/23/2 25/23/2 30/21/2
f 31/12/6 33/12/6 34/5/6
f 22/5/2 36/5/2 38/5/2
f 22/5/2 32/5/2 34/5/2
f 24/5/5 34/5/5 33/12/5
f 35/12/1 37/12/1 38/5/1
f 32/5/6 38/5/6 37/12/6
f 21/12/3 35/12/3 36/5/3
f 31/12/4 37/12/4 35/12/4
f 7/21/3 27/21/3 28/20/3
f 27/21/5 40/21/5 39/20/5
f 43/2/6 75/2/6 78/4/6
f 48/20/4 52/20/4 49/22/4
f 48/20/5 46/7/5 45/6/5
f 46/7/5 73/7/5 74/6/5
f 47/21/2 45/6/2 41/9/2
f 44/22/4 42/29/4 46/7/4
f 49/4/6 52/20/6 51/21/6
f 44/4/1 49/4/1 50/2/1
f 47/21/5 51/21/5 52/20/5
f 43/23/2 50/23/2 51/21/2
f 41/19/1 71/19/1 72/17/1
f 73/7/3 72/30/3 71/8/3
f 57/16/6 55/31/6 58/14/6
f 10/24/1 55/31/1 57/25/1
f 4/22/4 59/32/4 62/26/4
f 7/21/2 60/28/2 61/27/2
f 8/20/5 62/26/5 60/28/5
f 61/3/3 60/28/3 62/26/3
f 63/5/1 64/6/1 65/7/1
f 68/12/5 69/7/5 67/6/5
f 11/5/2 70/5/2 67/6/2
f 6/7/4 69/7/4 68/12/4
f 12/12/6 68/12/6 70/5/6
f 5/6/3 67/6/3 69/7/3
f 45/6/2 74/6/2 71/9/2
f 42/29/4 72/29/4 73/7/4
f 77/17/1 78/4/1 75/2/1
f 42/17/3 77/17/3 76/19/3
f 44/22/4 78/22/4 77/29/4
f 41/9/2 76/9/2 75/23/2
