# Blender v3.5.0 OBJ File: ''
# www.blender.org
mtllib Glubschi 02.mtl
v -0.243031 0.027881 0.103468
v -0.209310 0.027881 0.127091
v -0.263485 0.032348 0.207254
v -0.279833 0.032348 0.189143
v -0.172066 0.027881 0.152261
v -0.238803 0.032348 0.216664
v -0.263485 0.059503 0.207254
v -0.209310 0.063266 0.127091
v -0.243031 0.054943 0.103468
v -0.282033 0.060476 0.192398
v -0.241003 0.060476 0.219919
v -0.174266 0.054943 0.155516
v -0.279833 0.032348 0.189143
v -0.263485 0.032348 0.207254
v -0.263485 0.059503 0.207254
v -0.282033 0.060476 0.192398
v -0.238803 0.032348 0.216664
v -0.241003 0.060476 0.219919
v -0.172066 0.027881 0.152261
v -0.174266 0.054943 0.155516
v -0.241003 0.060476 0.219919
v -0.238803 0.032348 0.216664
v -0.067954 0.029337 0.006624
v -0.085831 0.033072 -0.048231
v -0.100969 0.116957 -0.030418
v -0.073557 0.109910 0.012634
v -0.155535 0.030928 -0.033859
v -0.146386 0.114740 -0.025368
v -0.176124 0.028680 -0.002264
v -0.173349 0.107460 0.016452
v -0.146386 0.114740 -0.025368
v -0.155535 0.030928 -0.033859
v -0.176124 0.028680 -0.002264
v -0.133787 0.027569 0.025551
v -0.169864 0.026152 0.076600
v -0.210810 0.026663 0.049276
v -0.096073 0.026509 0.049921
v -0.131967 0.025395 0.101503
v -0.150639 0.104762 0.057547
v -0.173349 0.107460 0.016452
v -0.209969 0.069049 0.051012
v -0.169740 0.068087 0.077462
v -0.104057 0.103886 0.053581
v -0.134500 0.067474 0.100761
v -0.096073 0.026509 0.049921
v -0.104057 0.103886 0.053581
v -0.134500 0.067474 0.100761
v -0.131967 0.025395 0.101503
v -0.243031 0.027881 0.103468
v -0.243031 0.054943 0.103468
v -0.209969 0.069049 0.051012
v -0.210810 0.026663 0.049276
v -0.279833 0.032348 0.189143
v -0.282033 0.060476 0.192398
v -0.155535 0.030928 -0.033859
v -0.085831 0.033072 -0.048231
v -0.067954 0.029337 0.006624
v -0.067954 0.029337 0.006624
v -0.073557 0.109910 0.012634
v -0.100969 0.116957 -0.030418
v -0.146386 0.114740 -0.025368
v -0.146520 0.113759 -0.019487
v -0.106449 0.115048 -0.020426
v -0.146386 0.114740 -0.025368
v -0.173349 0.107460 0.016452
v -0.165427 0.107838 0.014037
v -0.146520 0.113759 -0.019487
v -0.073557 0.109910 0.012634
v -0.085209 0.109618 0.012927
v -0.104057 0.103886 0.053581
v -0.073557 0.109910 0.012634
v -0.085209 0.109618 0.012927
v -0.104435 0.104614 0.047313
v -0.173349 0.107460 0.016452
v -0.150639 0.104762 0.057547
v -0.144919 0.105620 0.047513
v -0.165427 0.107838 0.014037
v -0.104057 0.103886 0.053581
v -0.104435 0.104614 0.047313
v -0.106449 0.115048 -0.020426
v -0.146520 0.113759 -0.019487
v -0.148189 0.157886 -0.008070
v -0.108156 0.159526 -0.009307
v -0.146520 0.113759 -0.019487
v -0.165427 0.107838 0.014037
v -0.166439 0.149508 0.024632
v -0.148189 0.157886 -0.008070
v -0.085209 0.109618 0.012927
v -0.106449 0.115048 -0.020426
v -0.108156 0.159526 -0.009307
v -0.086341 0.152087 0.023087
v -0.104435 0.104614 0.047313
v -0.085209 0.109618 0.012927
v -0.086341 0.152087 0.023087
v -0.104829 0.144589 0.056105
v -0.165427 0.107838 0.014037
v -0.144919 0.105620 0.047513
v -0.145014 0.144325 0.056186
v -0.166439 0.149508 0.024632
v -0.144919 0.105620 0.047513
v -0.104435 0.104614 0.047313
v -0.104829 0.144589 0.056105
v -0.145014 0.144325 0.056186
v 0.214202 0.035809 0.188277
v 0.166919 0.029451 0.103971
v 0.202460 0.030080 0.083196
v 0.231982 0.036027 0.171571
v 0.188836 0.035317 0.195627
v 0.127736 0.028790 0.125991
v 0.201904 0.057145 0.083049
v 0.166202 0.064870 0.103809
v 0.213591 0.062956 0.187982
v 0.233273 0.064227 0.174690
v 0.129108 0.055903 0.129280
v 0.190126 0.063517 0.198747
v 0.231982 0.036027 0.171571
v 0.233273 0.064227 0.174690
v 0.213591 0.062956 0.187982
v 0.214202 0.035809 0.188277
v 0.190126 0.063517 0.198747
v 0.188836 0.035317 0.195627
v 0.190126 0.063517 0.198747
v 0.129108 0.055903 0.129280
v 0.127736 0.028790 0.125991
v 0.188836 0.035317 0.195627
v 0.035911 0.029717 -0.026713
v 0.039969 0.111029 -0.022003
v 0.072120 0.119207 -0.061265
v 0.058427 0.033291 -0.079944
v 0.116280 0.116116 -0.051795
v 0.126504 0.031963 -0.059522
v 0.116280 0.116116 -0.051795
v 0.138669 0.109006 -0.008520
v 0.144387 0.030377 -0.026309
v 0.126504 0.031963 -0.059522
v 0.131799 0.028170 0.051359
v 0.099927 0.028908 -0.002188
v 0.144387 0.030377 -0.026309
v 0.174848 0.029342 0.027565
v 0.092033 0.027244 0.073243
v 0.060338 0.027667 0.019035
v 0.173149 0.072122 0.028797
v 0.138669 0.109006 -0.008520
v 0.112662 0.107043 0.030006
v 0.130925 0.070867 0.052009
v 0.066240 0.105088 0.021809
v 0.093883 0.069795 0.072348
v 0.093883 0.069795 0.072348
v 0.066240 0.105088 0.021809
v 0.060338 0.027667 0.019035
v 0.092033 0.027244 0.073243
v 0.173149 0.072122 0.028797
v 0.201904 0.057145 0.083049
v 0.202460 0.030080 0.083196
v 0.174848 0.029342 0.027565
v 0.233273 0.064227 0.174690
v 0.231982 0.036027 0.171571
v 0.058427 0.033291 -0.079944
v 0.126504 0.031963 -0.059522
v 0.035911 0.029717 -0.026713
v 0.039969 0.111029 -0.022003
v 0.035911 0.029717 -0.026713
v 0.072120 0.119207 -0.061265
v 0.076472 0.117187 -0.050811
v 0.115709 0.114912 -0.046157
v 0.116280 0.116116 -0.051795
v 0.116280 0.116116 -0.051795
v 0.115709 0.114912 -0.046157
v 0.131074 0.109807 -0.012855
v 0.138669 0.109006 -0.008520
v 0.039969 0.111029 -0.022003
v 0.051500 0.110724 -0.020479
v 0.066240 0.105088 0.021809
v 0.067183 0.105719 0.015619
v 0.051500 0.110724 -0.020479
v 0.039969 0.111029 -0.022003
v 0.138669 0.109006 -0.008520
v 0.131074 0.109807 -0.012855
v 0.107863 0.107788 0.019487
v 0.112662 0.107043 0.030006
v 0.067183 0.105719 0.015619
v 0.066240 0.105088 0.021809
v 0.076472 0.117187 -0.050811
v 0.077650 0.161848 -0.036606
v 0.116899 0.159281 -0.030874
v 0.115709 0.114912 -0.046157
v 0.115709 0.114912 -0.046157
v 0.116899 0.159281 -0.030874
v 0.130543 0.149367 0.002102
v 0.131074 0.109807 -0.012855
v 0.051500 0.110724 -0.020479
v 0.051553 0.152790 -0.008371
v 0.077650 0.161848 -0.036606
v 0.076472 0.117187 -0.050811
v 0.067183 0.105719 0.015619
v 0.065538 0.143469 0.025879
v 0.051553 0.152790 -0.008371
v 0.051500 0.110724 -0.020479
v 0.131074 0.109807 -0.012855
v 0.130543 0.149367 0.002102
v 0.105669 0.144090 0.029438
v 0.107863 0.107788 0.019487
v 0.107863 0.107788 0.019487
v 0.105669 0.144090 0.029438
v 0.065538 0.143469 0.025879
v 0.067183 0.105719 0.015619
vt 1.000000 0.250000
vt 0.500000 0.250000
vt 0.500000 0.500000
vt 1.000000 0.500000
vt 0.000000 0.250000
vt 0.000000 0.500000
vt 1.000000 0.000000
vt 0.500000 0.000000
vt 0.000000 0.000000
vt 0.500000 0.000000
vt 1.000000 0.000000
vt 1.000000 0.000000
vt 0.500000 0.000000
vt 0.000000 0.000000
vt 0.250000 0.000000
vt 0.250000 0.000000
vt 0.000000 0.000000
vt 0.000000 0.000000
vt 0.000000 0.000000
vt 0.750000 0.000000
vt 1.000000 0.000000
vt 1.000000 0.000000
vt 0.750000 0.000000
vt 0.000000 0.250000
vt 0.500000 0.250000
vt 0.500000 0.250000
vt 0.000000 0.250000
vt 1.000000 0.250000
vt 1.000000 0.250000
vt 0.500000 0.000000
vt 1.000000 0.000000
vt 1.000000 0.000000
vt 0.500000 0.000000
vt 0.000000 0.000000
vt 0.250000 0.000000
vt 0.250000 0.000000
vt 0.000000 0.000000
vt 0.000000 0.000000
vt 0.500000 0.000000
vt 0.500000 0.000000
vt 0.000000 0.000000
vt 0.750000 0.000000
vt 1.000000 0.000000
vt 1.000000 0.000000
vt 0.750000 0.000000
vt 0.000000 0.250000
vt 0.500000 0.250000
vt 0.500000 0.250000
vt 0.000000 0.250000
vt 0.500000 0.250000
vt 1.000000 0.250000
vt 1.000000 0.250000
vt 0.500000 0.250000
vt 0.500000 0.500000
vt 0.500000 0.250000
vt 1.000000 0.250000
vt 1.000000 0.500000
vt 0.000000 0.500000
vt 0.000000 0.250000
vt 0.500000 0.000000
vt 1.000000 0.000000
vt 0.000000 0.000000
vt 0.500000 0.000000
vt 0.500000 0.000000
vt 1.000000 0.000000
vt 1.000000 0.000000
vt 0.000000 0.000000
vt 0.000000 0.000000
vt 0.250000 0.000000
vt 0.250000 0.000000
vt 0.000000 0.000000
vt 0.000000 0.000000
vt 0.750000 0.000000
vt 0.750000 0.000000
vt 1.000000 0.000000
vt 1.000000 0.000000
vt 0.000000 0.250000
vt 0.000000 0.250000
vt 0.500000 0.250000
vt 0.500000 0.250000
vt 1.000000 0.250000
vt 1.000000 0.250000
vt 0.500000 0.000000
vt 0.500000 0.000000
vt 1.000000 0.000000
vt 0.000000 0.000000
vt 0.000000 0.000000
vt 0.250000 0.000000
vt 0.250000 0.000000
vt 0.000000 0.000000
vt 0.000000 0.000000
vt 0.500000 0.000000
vt 0.750000 0.000000
vt 0.750000 0.000000
vt 1.000000 0.000000
vt 1.000000 0.000000
vt 0.000000 0.250000
vt 0.000000 0.250000
vt 0.500000 0.250000
vt 0.500000 0.250000
vt 0.500000 0.250000
vt 0.500000 0.250000
vt 1.000000 0.250000
vt 1.000000 0.250000
vt 1.000000 0.750000
vt 0.500000 0.750000
vt 0.500000 1.000000
vt 1.000000 1.000000
vt 0.000000 0.750000
vt 0.000000 1.000000
vt 0.500000 1.000000
vt 0.500000 0.750000
vt 0.000000 0.750000
vt 0.000000 1.000000
vt 1.000000 1.000000
vt 1.000000 0.750000
vt 0.000000 1.000000
vt 0.500000 1.000000
vt 0.500000 0.000000
vt 0.000000 0.000000
vt 1.000000 1.000000
vt 1.000000 0.000000
vt 0.250000 1.000000
vt 0.250000 0.000000
vt 0.000000 0.000000
vt 0.000000 1.000000
vt 0.000000 1.000000
vt 0.500000 1.000000
vt 0.500000 0.000000
vt 0.000000 0.000000
vt 1.000000 1.000000
vt 1.000000 0.000000
vt 0.250000 1.000000
vt 0.250000 0.000000
vt 0.000000 0.000000
vt 0.000000 1.000000
vt 0.500000 0.250000
vt 0.000000 0.250000
vt 0.000000 0.500000
vt 0.500000 0.500000
vt 1.000000 0.250000
vt 1.000000 0.500000
vt 0.750000 1.000000
vt 0.750000 0.000000
vt 0.500000 0.000000
vt 0.500000 1.000000
vt 0.750000 1.000000
vt 0.750000 0.000000
vt 0.500000 0.000000
vt 0.500000 1.000000
vt 1.000000 1.000000
vt 1.000000 0.000000
vt 1.000000 1.000000
vt 1.000000 0.000000
vt 0.500000 1.000000
vt 0.500000 0.750000
vt 1.000000 0.750000
vt 1.000000 1.000000
vt 0.000000 1.000000
vt 0.000000 0.750000
vt 0.000000 0.750000
vt 0.500000 0.750000
vt 0.500000 1.000000
vt 0.000000 1.000000
vt 1.000000 0.750000
vt 1.000000 1.000000
vt 0.000000 1.000000
vt 0.000000 0.000000
vt 0.500000 0.000000
vt 0.500000 1.000000
vt 1.000000 0.000000
vt 1.000000 1.000000
vt 0.000000 0.000000
vt 0.250000 0.000000
vt 0.250000 1.000000
vt 0.000000 1.000000
vt 0.000000 1.000000
vt 0.000000 0.000000
vt 0.500000 0.000000
vt 0.500000 1.000000
vt 1.000000 0.000000
vt 1.000000 1.000000
vt 0.000000 0.000000
vt 0.250000 0.000000
vt 0.250000 1.000000
vt 0.000000 1.000000
vt 0.000000 0.500000
vt 0.000000 0.250000
vt 0.500000 0.250000
vt 0.500000 0.500000
vt 1.000000 0.250000
vt 1.000000 0.500000
vt 0.500000 0.000000
vt 0.750000 0.000000
vt 0.750000 1.000000
vt 0.500000 1.000000
vt 0.500000 0.000000
vt 0.750000 0.000000
vt 0.750000 1.000000
vt 0.500000 1.000000
vt 1.000000 0.000000
vt 1.000000 1.000000
vt 1.000000 0.000000
vt 1.000000 1.000000
vt 1.000000 0.000000
vt 0.500000 0.000000
vn -0.0055 -0.9995 -0.0316
vn 0.0094 -0.9994 -0.0328
vn -0.0098 -0.9995 -0.0284
vn -0.0012 -0.9996 -0.0286
vn 0.0177 -0.9979 -0.0629
vn 0.0143 -0.9980 -0.0617
vn -0.0028 -0.9977 -0.0670
vn 0.0141 -0.9978 -0.0653
vn -0.0299 0.9861 0.1636
vn -0.0276 0.9845 0.1729
vn 0.0065 0.9844 0.1756
vn -0.0182 0.9863 0.1639
vn -0.0227 0.9842 0.1756
vn -0.0203 0.9847 0.1733
vn -0.0216 0.9913 0.1298
vn -0.0472 0.9919 0.1180
vn -0.0177 0.9970 0.0752
vn -0.0231 0.9965 0.0802
vn 0.0283 0.9931 0.1136
vn 0.0252 0.9947 0.0995
vn -0.0307 0.2493 -0.9679
vn -0.0399 0.2409 -0.9697
vn -0.8741 0.0996 -0.4754
vn -0.8793 0.0879 -0.4682
vn 0.8442 0.1603 -0.5115
vn 0.8357 0.1487 -0.5286
vn 0.8748 -0.0905 0.4759
vn 0.8776 -0.0947 0.4699
vn -0.8503 -0.1171 0.5131
vn -0.8289 -0.1567 0.5371
vn -0.0005 -0.2148 0.9767
vn 0.0034 -0.2186 0.9758
vn 0.0193 -0.9995 -0.0253
vn 0.0127 -0.9996 -0.0264
vn 0.0207 -0.9996 -0.0199
vn 0.0118 -0.9997 -0.0208
vn -0.0031 -0.9985 -0.0546
vn 0.0055 -0.9987 -0.0507
vn 0.0233 -0.9981 -0.0572
vn 0.0009 -0.9984 -0.0567
vn 0.0363 0.9839 0.1751
vn 0.0231 0.9772 0.2111
vn -0.1045 0.9747 0.1976
vn 0.0164 0.9880 0.1538
vn -0.0015 0.9783 0.2072
vn -0.0119 0.9808 0.1945
vn 0.0621 0.9919 0.1105
vn 0.0092 0.9916 0.1289
vn 0.0493 0.9940 0.0974
vn 0.0176 0.9979 0.0627
vn -0.0598 0.9934 0.0977
vn -0.0582 0.9940 0.0924
vn 0.1569 0.2956 -0.9423
vn 0.9296 0.0975 -0.3553
vn 0.9053 0.1608 -0.3931
vn -0.7505 0.1837 -0.6348
vn -0.9297 -0.1338 0.3432
vn -0.9171 -0.1092 0.3833
vn 0.7416 -0.2285 0.6307
vn 0.8108 -0.1086 0.5751
vn -0.0810 -0.2680 0.9600
vn -0.0779 -0.2646 0.9612
vn -0.0199 -0.9995 0.0254
vn -0.0212 -0.9993 0.0293
vn -0.0271 -0.9989 0.0395
vn -0.0308 -0.9988 0.0369
vn -0.0231 -0.9992 0.0312
vn -0.0235 -0.9988 0.0421
vn -0.0045 1.0000 -0.0016
vn -0.0435 0.9974 0.0578
vn -0.1247 0.9921 0.0102
vn -0.0940 0.9936 -0.0622
vn 0.0850 0.9946 0.0589
vn 0.0420 0.9930 0.1100
vn -0.6861 -0.0699 0.7242
vn -0.5611 -0.0709 0.8247
vn -0.5612 -0.0709 0.8246
vn -0.4217 -0.0700 0.9040
vn 0.7545 0.0104 0.6563
vn 0.7450 0.0017 0.6671
vn 0.6930 -0.0297 0.7204
vn 0.9026 0.1724 -0.3945
vn 0.4886 0.2019 -0.8488
vn 0.4125 0.1934 -0.8902
vn 0.8966 0.1621 -0.4122
vn -0.1648 0.1520 -0.9745
vn -0.1705 0.1456 -0.9745
vn -0.8190 0.1399 -0.5565
vn -0.8219 0.1401 -0.5521
vn -0.8396 0.1500 -0.5220
vn -0.8352 0.1464 -0.5301
vn -0.3112 0.7262 0.6130
vn -0.4834 0.7139 0.5066
vn -0.3208 0.9007 0.2930
vn -0.2097 0.9042 0.3722
vn -0.1495 0.7224 0.6751
vn -0.0799 0.8964 0.4361
vn 0.8183 0.0475 0.5728
vn 0.8178 0.0423 0.5739
vn 0.8093 0.0474 0.5855
vn 0.8094 0.0506 0.5851
vn -0.8868 0.0037 -0.4622
vn -0.8852 0.0016 -0.4653
vn -0.8089 0.0811 -0.5824
vn -0.8246 0.0767 -0.5605
vn -0.0188 -0.9997 0.0160
vn -0.0252 -0.9995 0.0192
vn -0.0343 -0.9992 0.0218
vn -0.9175 -0.0131 -0.3976
vn 0.8183 0.0352 0.5737
vn 0.8188 0.0364 0.5730
vn 0.0458 -0.9976 0.0513
vn 0.0344 -0.9990 0.0290
vn 0.0336 -0.9991 0.0241
vn 0.0489 -0.9976 0.0489
vn 0.0422 -0.9977 0.0538
vn 0.0328 -0.9990 0.0295
vn 0.1129 0.9932 0.0275
vn 0.0275 0.9973 0.0687
vn -0.0172 0.9998 -0.0108
vn 0.0772 0.9950 -0.0638
vn -0.0627 0.9914 0.1151
vn -0.1119 0.9928 0.0424
vn 0.6255 -0.0474 0.7788
vn 0.4929 -0.0504 0.8686
vn 0.4927 -0.0504 0.8687
vn 0.3473 -0.0520 0.9363
vn -0.7490 -0.0401 0.6614
vn -0.7948 -0.0108 0.6068
vn -0.8023 -0.0033 0.5969
vn -0.7491 -0.0395 0.6612
vn -0.8623 0.1625 -0.4796
vn -0.8433 0.1391 -0.5191
vn -0.3145 0.1764 -0.9327
vn -0.4149 0.1977 -0.8881
vn 0.2628 0.1399 -0.9546
vn 0.2483 0.1531 -0.9565
vn 0.8830 0.1581 -0.4419
vn 0.8655 0.1502 -0.4778
vn 0.8604 0.1484 -0.4874
vn 0.8749 0.1501 -0.4604
vn 0.2897 0.9031 0.3171
vn 0.4295 0.7315 0.5296
vn 0.2447 0.7375 0.6294
vn 0.1712 0.9048 0.3899
vn 0.0741 0.7336 0.6756
vn 0.0342 0.8942 0.4463
vn -0.8530 0.0367 0.5206
vn -0.8659 0.0367 0.4989
vn -0.8635 0.0375 0.5029
vn -0.8524 0.0388 0.5215
vn 0.8482 0.0892 -0.5221
vn 0.9193 0.0184 -0.3931
vn 0.9209 0.0195 -0.3894
vn 0.8638 0.0867 -0.4963
vn 0.0278 -0.9996 0.0073
vn 0.0260 -0.9997 0.0041
vn 0.0287 -0.9995 0.0099
vn 0.9472 0.0047 -0.3207
vn -0.8720 0.0377 0.4881
vn -0.8675 0.0296 0.4965
vn 0.1299 0.3198 -0.9385
vn -0.7763 0.2096 -0.5945
usemtl Material_28
s off
f 33/1/1 34/2/1 35/3/1
f 33/1/2 35/3/2 36/4/2
f 34/2/3 37/5/3 38/6/3
f 34/2/4 38/6/4 35/3/4
f 55/7/5 56/8/5 34/2/5
f 55/7/6 34/2/6 33/1/6
f 56/8/7 57/9/7 37/5/7
f 56/8/8 37/5/8 34/2/8
f 60/10/9 61/11/9 62/12/9
f 60/10/10 62/12/10 63/13/10
f 64/14/11 65/15/11 66/16/11
f 64/14/12 66/16/12 67/17/12
f 68/18/13 60/10/13 63/13/13
f 68/18/14 63/13/14 69/19/14
f 70/20/15 71/21/15 72/22/15
f 70/20/16 72/22/16 73/23/16
f 74/24/17 75/25/17 76/26/17
f 74/24/18 76/26/18 77/27/18
f 75/25/19 78/28/19 79/29/19
f 75/25/20 79/29/20 76/26/20
f 80/30/21 81/31/21 82/32/21
f 80/30/22 82/32/22 83/33/22
f 84/34/23 85/35/23 86/36/23
f 84/34/24 86/36/24 87/37/24
f 88/38/25 89/39/25 90/40/25
f 88/38/26 90/40/26 91/41/26
f 92/42/27 93/43/27 94/44/27
f 92/42/28 94/44/28 95/45/28
f 96/46/29 97/47/29 98/48/29
f 96/46/30 98/48/30 99/49/30
f 100/50/31 101/51/31 102/52/31
f 100/50/32 102/52/32 103/53/32
f 136/54/33 137/55/33 138/56/33
f 136/54/34 138/56/34 139/57/34
f 140/58/35 141/59/35 137/55/35
f 140/58/36 137/55/36 136/54/36
f 137/55/37 158/60/37 159/61/37
f 137/55/38 159/61/38 138/56/38
f 141/59/39 160/62/39 158/60/39
f 141/59/40 158/60/40 137/55/40
f 163/63/41 164/64/41 165/65/41
f 163/63/42 165/65/42 166/66/42
f 167/67/43 168/68/43 169/69/43
f 167/67/44 169/69/44 170/70/44
f 171/71/45 172/72/45 164/64/45
f 171/71/46 164/64/46 163/63/46
f 173/73/47 174/74/47 175/75/47
f 173/73/48 175/75/48 176/76/48
f 177/77/49 178/78/49 179/79/49
f 177/77/50 179/79/50 180/80/50
f 180/80/51 179/79/51 181/81/51
f 180/80/52 181/81/52 182/82/52
f 183/83/53 184/84/53 185/85/53
f 187/86/54 188/87/54 189/88/54
f 187/86/55 189/88/55 190/89/55
f 191/90/56 192/91/56 193/92/56
f 195/93/57 196/94/57 197/95/57
f 195/93/58 197/95/58 198/96/58
f 199/97/59 200/98/59 201/99/59
f 199/97/60 201/99/60 202/100/60
f 203/101/61 204/102/61 205/103/61
f 203/101/62 205/103/62 206/104/62
s 1
f 1/105/63 2/106/64 3/107/65
f 1/105/63 3/107/65 4/108/66
f 2/106/64 5/109/67 6/110/68
f 2/106/64 6/110/68 3/107/65
f 7/111/69 8/112/70 9/113/71
f 7/111/69 9/113/71 10/114/72
f 11/115/73 12/116/74 8/112/70
f 11/115/73 8/112/70 7/111/69
f 13/117/75 14/118/76 15/119/77
f 13/117/75 15/119/77 16/120/75
f 14/118/76 17/121/78 18/122/78
f 14/118/76 18/122/78 15/119/77
f 19/123/79 20/124/80 21/125/81
f 19/123/79 21/125/81 22/126/81
f 23/127/82 24/128/83 25/129/84
f 23/127/82 25/129/84 26/130/85
f 24/128/83 27/131/86 28/132/87
f 24/128/83 28/132/87 25/129/84
f 29/133/88 30/134/89 31/135/90
f 29/133/88 31/135/90 32/136/91
f 39/137/92 40/138/93 41/139/94
f 39/137/92 41/139/94 42/140/95
f 43/141/96 39/137/92 42/140/95
f 43/141/96 42/140/95 44/142/97
f 45/143/98 46/144/99 47/145/100
f 45/143/98 47/145/100 48/146/101
f 49/147/102 50/148/103 51/149/104
f 49/147/102 51/149/104 52/150/105
f 36/4/106 35/3/107 2/106/64
f 36/4/106 2/106/64 1/105/63
f 35/3/107 38/6/108 5/109/67
f 35/3/107 5/109/67 2/106/64
f 42/140/95 41/139/94 9/113/71
f 42/140/95 9/113/71 8/112/70
f 44/142/97 42/140/95 8/112/70
f 44/142/97 8/112/70 12/116/74
f 48/146/101 47/145/100 20/124/80
f 48/146/101 20/124/80 19/123/79
f 53/151/109 54/152/109 50/148/103
f 53/151/109 50/148/103 49/147/102
f 52/150/105 51/149/104 30/134/89
f 52/150/105 30/134/89 29/133/88
f 58/153/110 59/154/111 46/144/99
f 58/153/110 46/144/99 45/143/98
f 104/155/112 105/156/113 106/157/114
f 104/155/112 106/157/114 107/158/115
f 108/159/116 109/160/117 105/156/113
f 108/159/116 105/156/113 104/155/112
f 110/161/118 111/162/119 112/163/120
f 110/161/118 112/163/120 113/164/121
f 111/162/119 114/165/122 115/166/123
f 111/162/119 115/166/123 112/163/120
f 116/167/124 117/168/124 118/169/125
f 116/167/124 118/169/125 119/170/126
f 119/170/126 118/169/125 120/171/127
f 119/170/126 120/171/127 121/172/127
f 122/173/128 123/174/129 124/175/130
f 122/173/128 124/175/130 125/176/131
f 126/177/132 127/178/133 128/179/134
f 126/177/132 128/179/134 129/180/135
f 129/180/135 128/179/134 130/181/136
f 129/180/135 130/181/136 131/182/137
f 132/183/138 133/184/139 134/185/140
f 132/183/138 134/185/140 135/186/141
f 142/187/142 143/188/143 144/189/144
f 142/187/142 144/189/144 145/190/145
f 145/190/145 144/189/144 146/191/146
f 145/190/145 146/191/146 147/192/147
f 148/193/148 149/194/149 150/195/150
f 148/193/148 150/195/150 151/196/151
f 152/197/152 153/198/153 154/199/154
f 152/197/152 154/199/154 155/200/155
f 105/156/113 136/54/156 139/57/157
f 105/156/113 139/57/157 106/157/114
f 109/160/117 140/58/158 136/54/156
f 109/160/117 136/54/156 105/156/113
f 110/161/118 142/187/142 145/190/145
f 110/161/118 145/190/145 111/162/119
f 111/162/119 145/190/145 147/192/147
f 111/162/119 147/192/147 114/165/122
f 123/174/129 148/193/148 151/196/151
f 123/174/129 151/196/151 124/175/130
f 153/198/153 156/201/159 157/202/159
f 153/198/153 157/202/159 154/199/154
f 133/184/139 152/197/152 155/200/155
f 133/184/139 155/200/155 134/185/140
f 149/194/149 161/203/160 162/204/161
f 149/194/149 162/204/161 150/195/150
f 183/83/162 185/85/162 186/205/162
f 191/90/163 193/92/163 194/206/163
