# Blender v3.5.0 OBJ File: ''
# www.blender.org
mtllib Lampe innen einzeln.mtl
v -1.840759 1.864398 0.567762
v -1.831523 1.864398 0.547955
v -1.917380 2.211738 0.507919
v -1.926616 2.211738 0.527726
v -1.740172 1.864398 0.514706
v -1.720365 1.864398 0.523942
v -1.680328 2.211738 0.438085
v -1.700136 2.211738 0.428848
v -1.787703 1.864398 0.668349
v -1.807510 1.864398 0.659113
v -1.847546 2.211738 0.744970
v -1.827739 2.211738 0.754207
v -1.687116 1.864398 0.615293
v -1.696352 1.864398 0.635100
v -1.610494 2.211738 0.675136
v -1.601258 2.211738 0.655329
v -1.801181 1.864398 0.521989
v -1.780105 1.864398 0.514319
v -1.811607 2.211738 0.427767
v -1.832683 2.211738 0.435438
v -1.694399 1.864398 0.554284
v -1.686728 1.864398 0.575360
v -1.600176 2.211738 0.543857
v -1.607847 2.211738 0.522782
v -1.726694 1.864398 0.661066
v -1.747769 1.864398 0.668737
v -1.716267 2.211738 0.755289
v -1.695191 2.211738 0.747618
v -1.833475 1.864398 0.628771
v -1.841146 1.864398 0.607696
v -1.927698 2.211738 0.639198
v -1.920027 2.211738 0.660274
vt 0.712234 0.567760
vt 0.795971 0.567760
vt 0.771678 0.298931
vt 0.741680 0.298931
vt 0.200919 0.604252
vt 0.225212 0.335423
vt 0.141476 0.335423
vt 0.170922 0.604252
vt 0.731789 0.326319
vt 0.648052 0.326319
vt 0.672345 0.595148
vt 0.702343 0.595149
vt 0.395555 0.517582
vt 0.479291 0.517582
vt 0.454999 0.248753
vt 0.425001 0.248752
vt 0.378323 0.631628
vt 0.402616 0.362799
vt 0.318879 0.362799
vt 0.348326 0.631628
vt 0.627329 0.713736
vt 0.651622 0.444907
vt 0.567885 0.444907
vt 0.597331 0.713736
vt 0.293796 0.503909
vt 0.318089 0.235080
vt 0.234352 0.235080
vt 0.263798 0.503910
vt 0.516167 0.517595
vt 0.545614 0.248766
vt 0.461877 0.248766
vt 0.486170 0.517595
vn 0.7374 -0.2410 -0.6310
vn -0.0094 -0.2410 0.9705
vn 0.6310 -0.2410 0.7374
vn -0.7374 -0.2410 0.6310
vn 0.9705 -0.2410 0.0094
vn 0.0094 -0.2410 -0.9705
vn -0.9705 -0.2410 -0.0094
vn -0.6310 -0.2410 -0.7374
usemtl Material.004
s off
f 7/1/1 24/2/1 21/3/1
f 7/1/1 21/3/1 6/4/1
f 26/5/2 27/6/2 12/7/2
f 26/5/2 12/7/2 9/8/2
f 15/9/3 28/10/3 25/11/3
f 15/9/3 25/11/3 14/12/3
f 11/13/4 32/14/4 29/15/4
f 11/13/4 29/15/4 10/16/4
f 22/17/5 23/18/5 16/19/5
f 22/17/5 16/19/5 13/20/5
f 18/21/6 19/22/6 8/23/6
f 18/21/6 8/23/6 5/24/6
f 30/25/7 31/26/7 4/27/7
f 30/25/7 4/27/7 1/28/7
f 2/29/8 3/30/8 20/31/8
f 2/29/8 20/31/8 17/32/8
