# Blender 3.5.0
# www.blender.org
mtllib Level2Spin4.mtl
g PaddleSmall.007_PaddleMaterial_0_PaddleSmall.007_PaddleMaterial_0
v -0.123880 -0.002440 -0.106485
v -0.123880 -0.001874 -0.106230
v -0.124179 -0.001874 -0.106044
v -0.124179 -0.002561 -0.106353
v -0.123880 -0.002675 -0.107100
v -0.126044 -0.002561 -0.106353
v -0.126044 -0.001874 -0.106044
v -0.126343 -0.001874 -0.106230
v -0.126343 -0.002440 -0.106485
v -0.126044 -0.002846 -0.107100
v -0.126343 -0.002675 -0.107100
v -0.124179 -0.002846 -0.107100
v -0.123880 -0.002440 -0.107715
v -0.126044 -0.002561 -0.107847
v -0.126343 -0.002440 -0.107715
v -0.124179 -0.002561 -0.107847
v -0.123880 -0.001874 -0.107970
v -0.126044 -0.001874 -0.108156
v -0.126343 -0.001874 -0.107970
v -0.124179 -0.001874 -0.108156
v -0.123880 -0.001308 -0.107715
v -0.126044 -0.001186 -0.107847
v -0.126343 -0.001308 -0.107715
v -0.124179 -0.001186 -0.107847
v -0.123880 -0.001073 -0.107100
v -0.126044 -0.000902 -0.107100
v -0.126343 -0.001073 -0.107100
v -0.124179 -0.000902 -0.107100
v -0.123880 -0.001308 -0.106485
v -0.126044 -0.001186 -0.106353
v -0.126343 -0.001308 -0.106485
v -0.124179 -0.001186 -0.106353
v -0.123880 -0.001874 -0.106230
v -0.124179 -0.001874 -0.106044
v -0.126044 -0.001874 -0.106044
v -0.126343 -0.001874 -0.106230
v -0.123299 -0.001857 -0.106309
v -0.126757 -0.001857 -0.106309
v -0.126757 -0.002371 -0.106541
v -0.123299 -0.002371 -0.106541
v -0.126757 -0.002585 -0.107100
v -0.123299 -0.002585 -0.107100
v -0.126757 -0.002371 -0.107659
v -0.123299 -0.002371 -0.107659
v -0.126757 -0.001857 -0.107891
v -0.123299 -0.001857 -0.107891
v -0.126757 -0.001342 -0.107659
v -0.123299 -0.001342 -0.107659
v -0.126757 -0.001129 -0.107100
v -0.123299 -0.001129 -0.107100
v -0.126757 -0.001342 -0.106541
v -0.123299 -0.001342 -0.106541
v -0.126757 -0.001857 -0.106309
v -0.123299 -0.001857 -0.106309
v -0.149723 -0.003151 -0.107102
v -0.149723 -0.002906 -0.107852
v -0.149042 -0.003644 -0.107103
v -0.150156 -0.001874 -0.107100
v -0.149042 -0.003304 -0.108143
v -0.127338 -0.003644 -0.107103
v -0.149723 -0.002266 -0.108315
v -0.127338 -0.003304 -0.108143
v -0.126770 -0.003151 -0.107102
v -0.149042 -0.002418 -0.108784
v -0.149723 -0.001477 -0.108314
v -0.126770 -0.002906 -0.107852
v -0.126295 -0.001874 -0.107100
v -0.149723 -0.000840 -0.107849
v -0.149723 -0.000597 -0.107098
v -0.149042 -0.001324 -0.108782
v -0.127338 -0.002418 -0.108784
v -0.149042 -0.000440 -0.108138
v -0.149042 -0.000104 -0.107097
v -0.126770 -0.002266 -0.108315
v -0.127338 -0.001324 -0.108782
v -0.127338 -0.000440 -0.108138
v -0.127338 -0.000104 -0.107097
v -0.126770 -0.001477 -0.108314
v -0.126770 -0.000840 -0.107849
v -0.126770 -0.000597 -0.107098
v -0.149723 -0.000597 -0.107098
v -0.149723 -0.000842 -0.106348
v -0.149042 -0.000104 -0.107097
v -0.150156 -0.001874 -0.107100
v -0.149042 -0.000444 -0.106057
v -0.127338 -0.000104 -0.107097
v -0.149723 -0.001481 -0.105885
v -0.127338 -0.000444 -0.106057
v -0.126770 -0.000597 -0.107098
v -0.149042 -0.001330 -0.105416
v -0.149723 -0.002270 -0.105886
v -0.126770 -0.000842 -0.106348
v -0.126295 -0.001874 -0.107100
v -0.149723 -0.002908 -0.106351
v -0.149723 -0.003151 -0.107102
v -0.149042 -0.002423 -0.105418
v -0.127338 -0.001330 -0.105416
v -0.149042 -0.003307 -0.106062
v -0.149042 -0.003644 -0.107103
v -0.126770 -0.001481 -0.105885
v -0.127338 -0.002423 -0.105418
v -0.127338 -0.003307 -0.106062
v -0.127338 -0.003644 -0.107103
v -0.126770 -0.002270 -0.105886
v -0.126770 -0.002908 -0.106351
v -0.126770 -0.003151 -0.107102
vn 0.5119 -0.6321 0.5818
vn 0.5283 -0.0000 0.8491
vn 0.2500 -0.0000 0.9683
vn 0.2438 -0.7033 0.6678
vn 0.4970 -0.8677 -0.0000
vn -0.2438 -0.7033 0.6678
vn -0.2500 -0.0000 0.9683
vn -0.5283 -0.0000 0.8491
vn -0.5119 -0.6321 0.5818
vn -0.2375 -0.9714 -0.0000
vn -0.4970 -0.8677 -0.0000
vn 0.2375 -0.9714 -0.0000
vn 0.5119 -0.6321 -0.5818
vn -0.2438 -0.7033 -0.6678
vn -0.5119 -0.6321 -0.5818
vn 0.2438 -0.7033 -0.6678
vn 0.5283 -0.0000 -0.8491
vn -0.2500 -0.0000 -0.9682
vn -0.5283 -0.0000 -0.8491
vn 0.2500 -0.0000 -0.9682
vn 0.5119 0.6321 -0.5818
vn -0.2438 0.7033 -0.6678
vn -0.5119 0.6321 -0.5817
vn 0.2438 0.7033 -0.6678
vn 0.4970 0.8677 -0.0000
vn -0.2375 0.9714 -0.0000
vn -0.4970 0.8677 -0.0000
vn 0.2375 0.9714 -0.0000
vn 0.5119 0.6321 0.5817
vn -0.2438 0.7033 0.6678
vn -0.5119 0.6321 0.5818
vn 0.2438 0.7033 0.6678
vn -0.0000 -0.0000 1.0000
vn -0.0000 -0.7275 0.6861
vn -0.0000 -1.0000 -0.0000
vn -0.0000 -0.7275 -0.6861
vn -0.0000 -0.0000 -1.0000
vn -0.0000 0.7275 -0.6861
vn -0.0000 1.0000 -0.0000
vn -0.0000 0.7275 0.6861
vn -0.7679 -0.6406 -0.0010
vn -0.7679 -0.5176 -0.3773
vn -0.2825 -0.9593 -0.0015
vn -1.0000 -0.0000 -0.0000
vn -0.2825 -0.7752 -0.5651
vn 0.3167 -0.9485 -0.0015
vn -0.7679 -0.1970 -0.6095
vn 0.3167 -0.7665 -0.5587
vn 0.7938 -0.6081 -0.0010
vn -0.2825 -0.2950 -0.9128
vn -0.7679 0.1989 -0.6089
vn 0.7938 -0.4914 -0.3582
vn 1.0000 -0.0000 -0.0000
vn -0.7679 0.5188 -0.3757
vn -0.7679 0.6406 0.0010
vn -0.2825 0.2979 -0.9119
vn 0.3167 -0.2917 -0.9026
vn -0.2825 0.7769 -0.5626
vn -0.2825 0.9593 0.0015
vn 0.7938 -0.1870 -0.5787
vn 0.3167 0.2945 -0.9017
vn 0.3167 0.7682 -0.5563
vn 0.3167 0.9485 0.0015
vn 0.7938 0.1888 -0.5781
vn 0.7938 0.4925 -0.3567
vn 0.7938 0.6081 0.0009
vn -0.7679 0.5176 0.3773
vn -0.2825 0.7752 0.5651
vn -0.7679 0.1970 0.6095
vn 0.3167 0.7665 0.5587
vn 0.7938 0.6081 0.0010
vn -0.2825 0.2950 0.9128
vn -0.7679 -0.1989 0.6089
vn 0.7938 0.4914 0.3582
vn -0.7679 -0.5188 0.3757
vn -0.2825 -0.2979 0.9119
vn 0.3167 0.2917 0.9026
vn -0.2825 -0.7769 0.5626
vn 0.7938 0.1870 0.5787
vn 0.3167 -0.2945 0.9017
vn 0.3167 -0.7682 0.5563
vn 0.7938 -0.1888 0.5781
vn 0.7938 -0.4925 0.3567
vn 0.7938 -0.6081 -0.0009
vt 0.348018 0.644036
vt 0.396385 0.644036
vt 0.396385 0.629682
vt 0.348018 0.629682
vt 0.299650 0.644036
vt 0.348018 0.587759
vt 0.396385 0.587759
vt 0.396385 0.573406
vt 0.348018 0.573406
vt 0.299650 0.587759
vt 0.299650 0.573406
vt 0.299650 0.629682
vt 0.251283 0.644036
vt 0.251283 0.587759
vt 0.251283 0.573406
vt 0.251283 0.629682
vt 0.202915 0.644036
vt 0.202915 0.587759
vt 0.202915 0.573406
vt 0.202915 0.629682
vt 0.154548 0.644036
vt 0.154548 0.587759
vt 0.154548 0.573406
vt 0.154548 0.629682
vt 0.106180 0.644036
vt 0.106180 0.587759
vt 0.106180 0.573406
vt 0.106180 0.629682
vt 0.057813 0.644036
vt 0.057813 0.587759
vt 0.057813 0.573406
vt 0.057813 0.629682
vt 0.009445 0.644036
vt 0.009445 0.629682
vt 0.009445 0.587759
vt 0.009445 0.573406
vt 0.134087 0.468243
vt 0.134087 0.554484
vt 0.153708 0.554484
vt 0.153708 0.468243
vt 0.173329 0.554484
vt 0.173329 0.468243
vt 0.192950 0.554484
vt 0.192950 0.468243
vt 0.212571 0.554484
vt 0.212571 0.468243
vt 0.232192 0.554484
vt 0.232192 0.468243
vt 0.251812 0.554484
vt 0.251813 0.468243
vt 0.271433 0.554484
vt 0.271433 0.468243
vt 0.291054 0.554484
vt 0.291054 0.468243
vt 0.991539 0.633895
vt 0.991539 0.622905
vt 0.950782 0.656022
vt 1.006706 0.576625
vt 0.950782 0.640786
vt 0.436154 0.656022
vt 0.991539 0.594238
vt 0.436154 0.640786
vt 0.395397 0.633895
vt 0.950782 0.601043
vt 0.991539 0.558843
vt 0.395397 0.622905
vt 0.378753 0.576625
vt 0.991539 0.530240
vt 0.991539 0.519355
vt 0.950782 0.551972
vt 0.436154 0.601043
vt 0.950782 0.512318
vt 0.950782 0.497227
vt 0.395397 0.594238
vt 0.436154 0.551972
vt 0.436154 0.512318
vt 0.436154 0.497227
vt 0.395397 0.558843
vt 0.395397 0.530240
vt 0.395397 0.519355
vt 0.991539 0.519355
vt 0.991539 0.530345
vt 0.950782 0.497227
vt 1.006706 0.576625
vt 0.950782 0.512463
vt 0.436154 0.497227
vt 0.991539 0.559012
vt 0.436154 0.512463
vt 0.395397 0.519355
vt 0.950782 0.552207
vt 0.991539 0.594407
vt 0.395397 0.530345
vt 0.378753 0.576625
vt 0.991539 0.623009
vt 0.991539 0.633895
vt 0.950782 0.601277
vt 0.436154 0.552207
vt 0.950782 0.640931
vt 0.950782 0.656022
vt 0.395397 0.559012
vt 0.436154 0.601277
vt 0.436154 0.640931
vt 0.436154 0.656022
vt 0.395397 0.594407
vt 0.395397 0.623009
vt 0.395397 0.633895
s 1
usemtl PaddleMaterial
f 1/1/1 2/2/2 3/3/3
f 4/4/4 1/1/1 3/3/3
f 5/5/5 1/1/1 4/4/4
f 4/4/4 3/3/3 6/6/6
f 3/3/3 7/7/7 6/6/6
f 7/7/7 8/8/8 6/6/6
f 8/8/8 9/9/9 6/6/6
f 6/6/6 9/9/9 10/10/10
f 4/4/4 6/6/6 10/10/10
f 9/9/9 11/11/11 10/10/10
f 12/12/12 5/5/5 4/4/4
f 12/12/12 4/4/4 10/10/10
f 13/13/13 5/5/5 12/12/12
f 10/10/10 11/11/11 14/14/14
f 12/12/12 10/10/10 14/14/14
f 11/11/11 15/15/15 14/14/14
f 16/16/16 13/13/13 12/12/12
f 16/16/16 12/12/12 14/14/14
f 17/17/17 13/13/13 16/16/16
f 14/14/14 15/15/15 18/18/18
f 16/16/16 14/14/14 18/18/18
f 15/15/15 19/19/19 18/18/18
f 20/20/20 17/17/17 16/16/16
f 20/20/20 16/16/16 18/18/18
f 21/21/21 17/17/17 20/20/20
f 18/18/18 19/19/19 22/22/22
f 20/20/20 18/18/18 22/22/22
f 19/19/19 23/23/23 22/22/22
f 24/24/24 21/21/21 20/20/20
f 24/24/24 20/20/20 22/22/22
f 25/25/25 21/21/21 24/24/24
f 22/22/22 23/23/23 26/26/26
f 24/24/24 22/22/22 26/26/26
f 23/23/23 27/27/27 26/26/26
f 28/28/28 25/25/25 24/24/24
f 28/28/28 24/24/24 26/26/26
f 29/29/29 25/25/25 28/28/28
f 26/26/26 27/27/27 30/30/30
f 28/28/28 26/26/26 30/30/30
f 27/27/27 31/31/31 30/30/30
f 32/32/32 29/29/29 28/28/28
f 32/32/32 28/28/28 30/30/30
f 33/33/2 29/29/29 32/32/32
f 34/34/3 33/33/2 32/32/32
f 34/34/3 32/32/32 35/35/7
f 32/32/32 30/30/30 35/35/7
f 30/30/30 31/31/31 35/35/7
f 31/31/31 36/36/8 35/35/7
f 37/37/33 38/38/33 39/39/34
f 40/40/34 37/37/33 39/39/34
f 40/40/34 39/39/34 41/41/35
f 42/42/35 40/40/34 41/41/35
f 42/42/35 41/41/35 43/43/36
f 44/44/36 42/42/35 43/43/36
f 44/44/36 43/43/36 45/45/37
f 46/46/37 44/44/36 45/45/37
f 46/46/37 45/45/37 47/47/38
f 48/48/38 46/46/37 47/47/38
f 48/48/38 47/47/38 49/49/39
f 50/50/39 48/48/38 49/49/39
f 50/50/39 49/49/39 51/51/40
f 52/52/40 50/50/39 51/51/40
f 52/52/40 51/51/40 53/53/33
f 54/54/33 52/52/40 53/53/33
f 55/55/41 56/56/42 57/57/43
f 56/56/42 55/55/41 58/58/44
f 56/56/42 59/59/45 57/57/43
f 57/57/43 59/59/45 60/60/46
f 61/61/47 56/56/42 58/58/44
f 56/56/42 61/61/47 59/59/45
f 59/59/45 62/62/48 60/60/46
f 60/60/46 62/62/48 63/63/49
f 61/61/47 64/64/50 59/59/45
f 59/59/45 64/64/50 62/62/48
f 65/65/51 61/61/47 58/58/44
f 61/61/47 65/65/51 64/64/50
f 62/62/48 66/66/52 63/63/49
f 63/63/49 66/66/52 67/67/53
f 68/68/54 65/65/51 58/58/44
f 69/69/55 68/68/54 58/58/44
f 65/65/51 70/70/56 64/64/50
f 65/65/51 68/68/54 70/70/56
f 64/64/50 71/71/57 62/62/48
f 62/62/48 71/71/57 66/66/52
f 64/64/50 70/70/56 71/71/57
f 68/68/54 69/69/55 72/72/58
f 68/68/54 72/72/58 70/70/56
f 69/69/55 73/73/59 72/72/58
f 71/71/57 74/74/60 66/66/52
f 66/66/52 74/74/60 67/67/53
f 70/70/56 75/75/61 71/71/57
f 70/70/56 72/72/58 75/75/61
f 71/71/57 75/75/61 74/74/60
f 72/72/58 73/73/59 76/76/62
f 72/72/58 76/76/62 75/75/61
f 73/73/59 77/77/63 76/76/62
f 75/75/61 78/78/64 74/74/60
f 74/74/60 78/78/64 67/67/53
f 75/75/61 76/76/62 78/78/64
f 76/76/62 77/77/63 79/79/65
f 76/76/62 79/79/65 78/78/64
f 78/78/64 79/79/65 67/67/53
f 77/77/63 80/80/66 79/79/65
f 79/79/65 80/80/66 67/67/53
f 81/81/55 82/82/67 83/83/59
f 82/82/67 81/81/55 84/84/44
f 82/82/67 85/85/68 83/83/59
f 83/83/59 85/85/68 86/86/63
f 87/87/69 82/82/67 84/84/44
f 82/82/67 87/87/69 85/85/68
f 85/85/68 88/88/70 86/86/63
f 86/86/63 88/88/70 89/89/71
f 87/87/69 90/90/72 85/85/68
f 85/85/68 90/90/72 88/88/70
f 91/91/73 87/87/69 84/84/44
f 87/87/69 91/91/73 90/90/72
f 88/88/70 92/92/74 89/89/71
f 89/89/71 92/92/74 93/93/53
f 94/94/75 91/91/73 84/84/44
f 95/95/41 94/94/75 84/84/44
f 91/91/73 96/96/76 90/90/72
f 91/91/73 94/94/75 96/96/76
f 90/90/72 97/97/77 88/88/70
f 88/88/70 97/97/77 92/92/74
f 90/90/72 96/96/76 97/97/77
f 94/94/75 95/95/41 98/98/78
f 94/94/75 98/98/78 96/96/76
f 95/95/41 99/99/43 98/98/78
f 97/97/77 100/100/79 92/92/74
f 92/92/74 100/100/79 93/93/53
f 96/96/76 101/101/80 97/97/77
f 96/96/76 98/98/78 101/101/80
f 97/97/77 101/101/80 100/100/79
f 98/98/78 99/99/43 102/102/81
f 98/98/78 102/102/81 101/101/80
f 99/99/43 103/103/46 102/102/81
f 101/101/80 104/104/82 100/100/79
f 100/100/79 104/104/82 93/93/53
f 101/101/80 102/102/81 104/104/82
f 102/102/81 103/103/46 105/105/83
f 102/102/81 105/105/83 104/104/82
f 104/104/82 105/105/83 93/93/53
f 103/103/46 106/106/84 105/105/83
f 105/105/83 106/106/84 93/93/53
