# Blender 3.5.0
# www.blender.org
mtllib MovingPlatform3.mtl
g MovingPlatform_(1).003_MovingPlatform_0_MovingPlatform_(1).003_MovingPlatform_0
v -0.083917 -0.011148 -0.095633
v -0.082472 -0.011148 -0.094886
v -0.082472 -0.006550 -0.094886
v -0.083917 -0.006550 -0.095633
v -0.084710 -0.011148 -0.097437
v -0.084710 -0.006550 -0.097437
v -0.084710 -0.011148 -0.115563
v -0.084710 -0.006550 -0.115563
v -0.083917 -0.011148 -0.117367
v -0.083917 -0.006550 -0.117367
v -0.082472 -0.011148 -0.118114
v -0.082472 -0.006550 -0.118114
v -0.049690 -0.006550 -0.115563
v -0.049690 -0.005653 -0.115563
v -0.049690 -0.005653 -0.097437
v -0.049690 -0.006550 -0.097437
v -0.050483 -0.005653 -0.095633
v -0.050483 -0.006550 -0.095633
v -0.051928 -0.005653 -0.094886
v -0.051928 -0.006550 -0.094886
v -0.049690 -0.006550 -0.115563
v -0.050483 -0.006550 -0.117367
v -0.049690 -0.005653 -0.115563
v -0.050483 -0.005653 -0.117367
v -0.051928 -0.006550 -0.118114
v -0.051928 -0.005653 -0.118114
v -0.084710 -0.005653 -0.115563
v -0.083917 -0.005653 -0.117367
v -0.084710 -0.006550 -0.115563
v -0.083917 -0.006550 -0.117367
v -0.082472 -0.005653 -0.118114
v -0.082472 -0.006550 -0.118114
v -0.083917 -0.006550 -0.117367
v -0.083917 -0.005653 -0.117367
v -0.084710 -0.006550 -0.115563
v -0.084710 -0.006550 -0.097437
v -0.084710 -0.005653 -0.115563
v -0.084710 -0.005653 -0.097437
v -0.084710 -0.006550 -0.097437
v -0.083917 -0.006550 -0.095633
v -0.084710 -0.005653 -0.097437
v -0.083917 -0.005653 -0.095633
v -0.082472 -0.006550 -0.094886
v -0.082472 -0.005653 -0.094886
v -0.082472 -0.011148 -0.094886
v -0.051928 -0.011148 -0.094886
v -0.051928 -0.006550 -0.094886
v -0.082472 -0.006550 -0.094886
v -0.051928 -0.006550 -0.094886
v -0.051928 -0.011148 -0.094886
v -0.050483 -0.006550 -0.095633
v -0.050483 -0.011148 -0.095633
v -0.049690 -0.006550 -0.097437
v -0.049690 -0.011148 -0.097437
v -0.049690 -0.006550 -0.115563
v -0.049690 -0.011148 -0.115563
v -0.050483 -0.006550 -0.117367
v -0.050483 -0.011148 -0.117367
v -0.051928 -0.006550 -0.118114
v -0.051928 -0.011148 -0.118114
v -0.051928 -0.005653 -0.118114
v -0.051928 -0.006550 -0.118114
v -0.082472 -0.006550 -0.118114
v -0.067200 -0.005653 -0.118114
v -0.082472 -0.005653 -0.118114
v -0.051928 -0.011148 -0.118114
v -0.082472 -0.011148 -0.118114
v -0.082472 -0.006550 -0.118114
v -0.051928 -0.006550 -0.118114
v -0.051928 -0.006550 -0.094886
v -0.051928 -0.005653 -0.094886
v -0.067200 -0.005653 -0.094886
v -0.082472 -0.006550 -0.094886
v -0.082472 -0.005653 -0.094886
v -0.082472 -0.011148 -0.118114
v -0.051928 -0.011148 -0.118114
v -0.050483 -0.011148 -0.117367
v -0.083917 -0.011148 -0.117367
v -0.049690 -0.011148 -0.115563
v -0.084710 -0.011148 -0.115563
v -0.049690 -0.011148 -0.097437
v -0.084710 -0.011148 -0.097437
v -0.050483 -0.011148 -0.095633
v -0.083917 -0.011148 -0.095633
v -0.051928 -0.011148 -0.094886
v -0.082472 -0.011148 -0.094886
v -0.082472 -0.005653 -0.094886
v -0.067200 -0.005653 -0.094886
v -0.067200 -0.005338 -0.095036
v -0.082472 -0.005338 -0.095037
v -0.083917 -0.005653 -0.095633
v -0.067200 -0.005208 -0.095398
v -0.083917 -0.005338 -0.095786
v -0.084710 -0.005653 -0.097437
v -0.082472 -0.005208 -0.095401
v -0.084581 -0.005338 -0.097302
v -0.084710 -0.005653 -0.115563
v -0.082472 -0.005208 -0.117599
v -0.067200 -0.005208 -0.117602
v -0.067200 -0.005338 -0.117964
v -0.083917 -0.005208 -0.096156
v -0.084581 -0.005338 -0.115698
v -0.083917 -0.005653 -0.117367
v -0.082472 -0.005338 -0.117963
v -0.067200 -0.005653 -0.118114
v -0.082472 -0.005653 -0.118114
v -0.083917 -0.005338 -0.117214
v -0.083917 -0.005208 -0.116844
v -0.084269 -0.005208 -0.096978
v -0.084269 -0.005208 -0.116022
v -0.067200 -0.005653 -0.118114
v -0.067200 -0.005338 -0.117964
v -0.051928 -0.005653 -0.118114
v -0.051928 -0.005338 -0.117963
v -0.050483 -0.005653 -0.117367
v -0.067200 -0.005208 -0.117602
v -0.050483 -0.005338 -0.117214
v -0.049690 -0.005653 -0.115563
v -0.051928 -0.005208 -0.117599
v -0.049819 -0.005338 -0.115698
v -0.049690 -0.005653 -0.097437
v -0.051928 -0.005208 -0.095401
v -0.067200 -0.005208 -0.095398
v -0.067200 -0.005338 -0.095036
v -0.050483 -0.005208 -0.116844
v -0.049819 -0.005338 -0.097302
v -0.050483 -0.005653 -0.095633
v -0.050483 -0.005208 -0.096156
v -0.051928 -0.005338 -0.095037
v -0.067200 -0.005653 -0.094886
v -0.051928 -0.005653 -0.094886
v -0.050483 -0.005338 -0.095786
v -0.050131 -0.005208 -0.096978
v -0.050131 -0.005208 -0.116022
vn -0.5623 -0.6364 0.5280
vn -0.1786 -0.6547 0.7345
vn -0.2362 -0.0000 0.9717
vn -0.7289 -0.0000 0.6846
vn -0.7343 -0.6611 0.1542
vn -0.9786 -0.0000 0.2056
vn -0.7343 -0.6611 -0.1542
vn -0.9786 -0.0000 -0.2056
vn -0.5622 -0.6364 -0.5281
vn -0.7289 -0.0000 -0.6846
vn -0.1786 -0.6547 -0.7345
vn -0.2362 -0.0000 -0.9717
vn 0.9786 -0.0000 -0.2056
vn 0.9711 0.1600 -0.1772
vn 0.9711 0.1600 0.1772
vn 0.9786 -0.0000 0.2056
vn 0.6988 0.1643 0.6962
vn 0.7289 -0.0000 0.6846
vn 0.2248 0.2107 0.9514
vn 0.2362 -0.0000 0.9717
vn 0.7289 -0.0000 -0.6846
vn 0.6988 0.1643 -0.6962
vn 0.2362 -0.0000 -0.9717
vn 0.2248 0.2107 -0.9514
vn -0.9711 0.1600 -0.1772
vn -0.6988 0.1643 -0.6962
vn -0.2248 0.2107 -0.9514
vn -0.9711 0.1600 0.1772
vn -0.6988 0.1643 0.6962
vn -0.2248 0.2107 0.9514
vn 0.1786 -0.6547 0.7345
vn 0.5622 -0.6364 0.5281
vn 0.7343 -0.6611 0.1542
vn 0.7343 -0.6611 -0.1542
vn 0.5622 -0.6364 -0.5281
vn 0.2362 -0.0001 -0.9717
vn 0.1786 -0.6547 -0.7345
vn -0.0000 0.2213 -0.9752
vn -0.0000 0.2213 0.9752
vn -0.1786 -0.6546 -0.7345
vn 0.1786 -0.6546 -0.7345
vn -0.5622 -0.6364 0.5281
vn 0.1786 -0.6546 0.7345
vn -0.1786 -0.6546 0.7345
vn -0.0000 0.7416 0.6709
vn -0.1715 0.7078 0.6853
vn -0.6988 0.1642 0.6962
vn -0.0000 0.9852 0.1717
vn -0.5855 0.6196 0.5227
vn -0.0565 0.9792 0.1947
vn -0.7650 0.6204 0.1729
vn -0.0567 0.9792 -0.1949
vn -0.0000 0.9851 -0.1717
vn -0.0000 0.7416 -0.6708
vn -0.3001 0.9370 0.1789
vn -0.7650 0.6204 -0.1729
vn -0.1715 0.7080 -0.6850
vn -0.5857 0.6195 -0.5227
vn -0.3001 0.9370 -0.1789
vn -0.3252 0.9382 0.1183
vn -0.3253 0.9382 -0.1184
vn 0.0001 0.2213 -0.9752
vn -0.0000 0.7416 -0.6709
vn 0.1714 0.7081 -0.6850
vn 0.6988 0.1642 -0.6962
vn -0.0000 0.9852 -0.1717
vn 0.5855 0.6196 -0.5227
vn 0.0566 0.9792 -0.1950
vn 0.7650 0.6204 -0.1729
vn 0.0566 0.9792 0.1948
vn -0.0000 0.9851 0.1717
vn -0.0000 0.7417 0.6708
vn 0.3001 0.9370 -0.1789
vn 0.7650 0.6204 0.1729
vn 0.3001 0.9370 0.1789
vn 0.1716 0.7080 0.6851
vn 0.5855 0.6196 0.5227
vn 0.3252 0.9382 0.1183
vn 0.3253 0.9382 -0.1184
vt 0.936231 0.996726
vt 0.990522 0.996726
vt 0.990522 0.879080
vt 0.936231 0.879080
vt 0.870454 0.996726
vt 0.870454 0.879080
vt 0.265226 0.996725
vt 0.265226 0.879080
vt 0.199449 0.996725
vt 0.199449 0.879080
vt 0.145158 0.996725
vt 0.145158 0.879080
vt 0.590282 0.803807
vt 0.590282 0.780322
vt 0.112177 0.780322
vt 0.112177 0.803807
vt 0.060216 0.780322
vt 0.060216 0.803807
vt 0.017328 0.780322
vt 0.017328 0.803807
vt 0.590282 0.803807
vt 0.642243 0.803807
vt 0.590282 0.780322
vt 0.642243 0.780322
vt 0.685131 0.803807
vt 0.685131 0.780322
vt 0.112177 0.780322
vt 0.060215 0.780322
vt 0.112177 0.803807
vt 0.060216 0.803807
vt 0.017328 0.780322
vt 0.017328 0.803807
vt 0.060216 0.803807
vt 0.060215 0.780322
vt 0.112177 0.803807
vt 0.590281 0.803807
vt 0.112177 0.780322
vt 0.590281 0.780322
vt 0.590281 0.803807
vt 0.642243 0.803807
vt 0.590281 0.780322
vt 0.642243 0.780322
vt 0.685131 0.803807
vt 0.685131 0.780322
vt 0.012308 0.996725
vt 0.995104 0.996726
vt 0.995104 0.879080
vt 0.012308 0.879080
vt 0.016889 0.879080
vt 0.016889 0.996726
vt 0.071180 0.879080
vt 0.071180 0.996726
vt 0.136958 0.879080
vt 0.136958 0.996726
vt 0.742186 0.879080
vt 0.742186 0.996726
vt 0.807963 0.879080
vt 0.807963 0.996726
vt 0.862254 0.879080
vt 0.862254 0.996726
vt 0.822161 0.780321
vt 0.822161 0.803807
vt 0.017328 0.803807
vt 0.419745 0.780321
vt 0.017328 0.780321
vt 0.012308 0.996725
vt 0.995104 0.996726
vt 0.995104 0.879080
vt 0.012308 0.879080
vt 0.822160 0.803807
vt 0.822160 0.780321
vt 0.419745 0.780321
vt 0.017328 0.803807
vt 0.017328 0.780322
vt 0.852491 0.765966
vt 0.966619 0.765966
vt 0.982350 0.767019
vt 0.836761 0.767019
vt 0.984052 0.776751
vt 0.835059 0.776751
vt 0.984052 0.853393
vt 0.835059 0.853393
vt 0.982350 0.863125
vt 0.836761 0.863125
vt 0.966619 0.864178
vt 0.852491 0.864178
vt 0.001014 0.108354
vt 0.000549 0.752319
vt 0.015735 0.752320
vt 0.016018 0.111040
vt 0.038758 0.042971
vt 0.032615 0.752303
vt 0.052249 0.051724
vt 0.116289 0.009316
vt 0.032735 0.112105
vt 0.113062 0.024495
vt 0.880177 0.009388
vt 0.964173 0.112105
vt 0.964293 0.752303
vt 0.981174 0.752318
vt 0.067997 0.053480
vt 0.883303 0.024242
vt 0.957956 0.042955
vt 0.980906 0.111022
vt 0.995783 0.752322
vt 0.995969 0.108331
vt 0.944458 0.051747
vt 0.928680 0.053489
vt 0.100797 0.039059
vt 0.895752 0.039019
vt 0.996317 0.752331
vt 0.981152 0.752326
vt 0.996185 0.109210
vt 0.981071 0.111485
vt 0.962044 0.041965
vt 0.964293 0.752303
vt 0.948191 0.050368
vt 0.882494 0.006464
vt 0.964173 0.112105
vt 0.885682 0.021919
vt 0.114499 0.006619
vt 0.032735 0.112105
vt 0.032615 0.752303
vt 0.015756 0.752325
vt 0.932481 0.051504
vt 0.111409 0.021725
vt 0.034867 0.041889
vt 0.064427 0.051505
vt 0.015821 0.111488
vt 0.001168 0.752336
vt 0.000652 0.109229
vt 0.048750 0.050318
vt 0.098896 0.036775
vt 0.898010 0.036774
s 1
usemtl MovingPlatform
f 1/1/1 2/2/2 3/3/3
f 4/4/4 1/1/1 3/3/3
f 5/5/5 1/1/1 4/4/4
f 6/6/6 5/5/5 4/4/4
f 7/7/7 5/5/5 6/6/6
f 8/8/8 7/7/7 6/6/6
f 9/9/9 7/7/7 8/8/8
f 10/10/10 9/9/9 8/8/8
f 11/11/11 9/9/9 10/10/10
f 12/12/12 11/11/11 10/10/10
f 13/13/13 14/14/14 15/15/15
f 16/16/16 13/13/13 15/15/15
f 16/16/16 15/15/15 17/17/17
f 18/18/18 16/16/16 17/17/17
f 18/18/18 17/17/17 19/19/19
f 20/20/20 18/18/18 19/19/19
f 21/21/13 22/22/21 23/23/14
f 22/22/21 24/24/22 23/23/14
f 22/22/21 25/25/23 24/24/22
f 25/25/23 26/26/24 24/24/22
f 27/27/25 28/28/26 29/29/8
f 28/28/26 30/30/10 29/29/8
f 31/31/27 32/32/12 33/33/10
f 34/34/26 31/31/27 33/33/10
f 35/35/8 36/36/6 37/37/25
f 36/36/6 38/38/28 37/37/25
f 39/39/6 40/40/4 41/41/28
f 40/40/4 42/42/29 41/41/28
f 40/40/4 43/43/3 42/42/29
f 43/43/3 44/44/30 42/42/29
f 45/45/2 46/46/31 47/47/20
f 48/48/3 45/45/2 47/47/20
f 49/49/20 50/50/31 51/51/18
f 50/50/31 52/52/32 51/51/18
f 51/51/18 52/52/32 53/53/16
f 52/52/32 54/54/33 53/53/16
f 53/53/16 54/54/33 55/55/13
f 54/54/33 56/56/34 55/55/13
f 55/55/13 56/56/34 57/57/21
f 56/56/34 58/58/35 57/57/21
f 57/57/21 58/58/35 59/59/36
f 58/58/35 60/60/37 59/59/36
f 61/61/24 62/62/23 63/63/12
f 63/63/12 64/64/38 61/61/24
f 63/63/12 65/65/27 64/64/38
f 66/66/37 67/67/11 68/68/12
f 69/69/23 66/66/37 68/68/12
f 70/70/20 71/71/19 72/72/39
f 72/72/39 73/73/3 70/70/20
f 72/72/39 74/74/30 73/73/3
f 75/75/40 76/76/41 77/77/35
f 77/77/35 78/78/9 75/75/40
f 77/77/35 79/79/34 78/78/9
f 79/79/34 80/80/7 78/78/9
f 79/79/34 81/81/33 80/80/7
f 81/81/33 82/82/5 80/80/7
f 81/81/33 83/83/32 82/82/5
f 83/83/32 84/84/42 82/82/5
f 83/83/32 85/85/43 84/84/42
f 85/85/43 86/86/44 84/84/42
f 87/87/30 88/88/39 89/89/45
f 90/90/46 87/87/30 89/89/45
f 91/91/47 87/87/30 90/90/46
f 90/90/46 89/89/45 92/92/48
f 93/93/49 91/91/47 90/90/46
f 94/94/28 91/91/47 93/93/49
f 95/95/50 90/90/46 92/92/48
f 93/93/49 90/90/46 95/95/50
f 96/96/51 94/94/28 93/93/49
f 94/94/28 96/96/51 97/97/25
f 95/95/50 92/92/48 98/98/52
f 92/92/48 99/99/53 98/98/52
f 98/98/52 99/99/53 100/100/54
f 101/101/55 93/93/49 95/95/50
f 96/96/51 93/93/49 101/101/55
f 95/95/50 98/98/52 101/101/55
f 96/96/51 102/102/56 97/97/25
f 103/103/26 97/97/25 102/102/56
f 104/104/57 98/98/52 100/100/54
f 104/104/57 100/100/54 105/105/38
f 106/106/27 104/104/57 105/105/38
f 106/106/27 103/103/26 107/107/58
f 104/104/57 106/106/27 107/107/58
f 107/107/58 103/103/26 102/102/56
f 98/98/52 104/104/57 108/108/59
f 98/98/52 108/108/59 101/101/55
f 104/104/57 107/107/58 108/108/59
f 109/109/60 96/96/51 101/101/55
f 96/96/51 109/109/60 102/102/56
f 101/101/55 108/108/59 109/109/60
f 107/107/58 102/102/56 110/110/61
f 109/109/60 110/110/61 102/102/56
f 108/108/59 107/107/58 110/110/61
f 108/108/59 110/110/61 109/109/60
f 111/111/62 112/112/63 113/113/24
f 112/112/63 114/114/64 113/113/24
f 115/115/65 113/113/24 114/114/64
f 112/112/63 116/116/66 114/114/64
f 117/117/67 115/115/65 114/114/64
f 118/118/14 115/115/65 117/117/67
f 116/116/66 119/119/68 114/114/64
f 117/117/67 114/114/64 119/119/68
f 120/120/69 118/118/14 117/117/67
f 118/118/14 120/120/69 121/121/15
f 122/122/70 119/119/68 116/116/66
f 123/123/71 122/122/70 116/116/66
f 123/123/71 124/124/72 122/122/70
f 125/125/73 117/117/67 119/119/68
f 120/120/69 117/117/67 125/125/73
f 120/120/69 126/126/74 121/121/15
f 127/127/17 121/121/15 126/126/74
f 122/122/70 128/128/75 119/119/68
f 128/128/75 125/125/73 119/119/68
f 124/124/72 129/129/76 122/122/70
f 122/122/70 129/129/76 128/128/75
f 124/124/72 130/130/39 129/129/76
f 130/130/39 131/131/19 129/129/76
f 131/131/19 127/127/17 132/132/77
f 129/129/76 131/131/19 132/132/77
f 129/129/76 132/132/77 128/128/75
f 132/132/77 127/127/17 126/126/74
f 128/128/75 132/132/77 133/133/78
f 128/128/75 133/133/78 125/125/73
f 132/132/77 126/126/74 133/133/78
f 134/134/79 120/120/69 125/125/73
f 133/133/78 134/134/79 125/125/73
f 134/134/79 133/133/78 126/126/74
f 120/120/69 134/134/79 126/126/74
