# Blender 3.5.0
# www.blender.org
mtllib SpinnyStandPaddle3.mtl
g SpinnyPaddleCenter.001_SpinnyPaddle3_0_SpinnyPaddleCenter.001_SpinnyPaddle3_0
v 0.002332 0.002024 -0.318732
v -0.001700 0.002024 -0.320402
v -0.005732 0.002024 -0.318732
v -0.007402 0.002024 -0.314700
v 0.004002 0.002024 -0.314700
v -0.005732 0.002024 -0.310668
v 0.002332 0.002024 -0.310668
v -0.001700 0.002024 -0.308998
v 0.002332 -0.003899 -0.318732
v -0.001700 -0.003899 -0.320402
v 0.000683 -0.003633 -0.320453
v -0.001700 -0.003656 -0.321063
v -0.001700 -0.003203 -0.321282
v 0.000805 -0.003203 -0.320747
v 0.000805 0.001328 -0.320747
v -0.001700 0.001328 -0.321282
v -0.001700 0.001781 -0.321063
v 0.000683 0.001758 -0.320453
v -0.001700 0.002024 -0.320402
v 0.002332 0.002024 -0.318732
v 0.002799 -0.003656 -0.319200
v 0.000805 -0.003203 -0.320747
v 0.004053 -0.003633 -0.317083
v 0.004002 -0.003899 -0.314700
v 0.004663 -0.003656 -0.314700
v 0.002954 -0.003203 -0.319354
v 0.004347 -0.003203 -0.317205
v 0.004882 -0.003203 -0.314700
v 0.004882 0.001328 -0.314700
v 0.004347 0.001328 -0.317205
v 0.004053 0.001758 -0.317083
v 0.004347 0.001328 -0.317205
v 0.004663 0.001781 -0.314700
v 0.002954 0.001328 -0.319354
v 0.002954 0.001328 -0.319354
v 0.000805 0.001328 -0.320747
v 0.002799 0.001781 -0.319200
v 0.004002 0.002024 -0.314700
v 0.004053 0.001758 -0.312317
v 0.002332 0.002024 -0.310668
v 0.002799 0.001781 -0.310201
v 0.002954 0.001328 -0.310046
v 0.004347 0.001328 -0.312195
v 0.004882 0.001328 -0.314700
v 0.004882 -0.003203 -0.314700
v 0.004347 -0.003203 -0.312195
v 0.004347 -0.003203 -0.312195
v 0.002954 -0.003203 -0.310046
v 0.002799 -0.003656 -0.310201
v 0.004053 -0.003633 -0.312317
v 0.004663 -0.003656 -0.314700
v 0.002332 -0.003899 -0.310668
v 0.004002 -0.003899 -0.314700
v 0.000683 -0.003633 -0.308947
v 0.002332 -0.003899 -0.310668
v 0.002799 -0.003656 -0.310201
v -0.001700 -0.003899 -0.308998
v -0.001700 -0.003656 -0.308337
v 0.002954 -0.003203 -0.310046
v 0.000805 -0.003203 -0.308653
v 0.000805 -0.003203 -0.308653
v -0.001700 -0.003203 -0.308118
v 0.000805 0.001328 -0.308653
v -0.001700 0.001328 -0.308118
v 0.002954 0.001328 -0.310046
v 0.002799 0.001781 -0.310201
v 0.000683 0.001758 -0.308947
v -0.001700 0.001781 -0.308337
v 0.002332 0.002024 -0.310668
v -0.001700 0.002024 -0.308998
v -0.007453 -0.003633 -0.312317
v -0.005732 -0.003899 -0.310668
v -0.006199 -0.003656 -0.310201
v -0.007402 -0.003899 -0.314700
v -0.008063 -0.003656 -0.314700
v -0.006354 -0.003203 -0.310046
v -0.007747 -0.003203 -0.312195
v -0.007747 -0.003203 -0.312195
v -0.008282 -0.003203 -0.314700
v -0.007747 0.001328 -0.312195
v -0.006354 0.001328 -0.310046
v -0.006199 0.001781 -0.310201
v -0.008282 0.001328 -0.314700
v -0.007747 0.001328 -0.312195
v -0.007453 0.001758 -0.312317
v -0.005732 0.002024 -0.310668
v -0.008063 0.001781 -0.314700
v -0.007402 0.002024 -0.314700
v -0.007453 -0.003633 -0.317083
v -0.007402 -0.003899 -0.314700
v -0.008063 -0.003656 -0.314700
v -0.005732 -0.003899 -0.318732
v -0.006199 -0.003656 -0.319200
v -0.008282 -0.003203 -0.314700
v -0.007747 -0.003203 -0.317205
v -0.007747 -0.003203 -0.317205
v -0.006354 -0.003203 -0.319354
v -0.007747 0.001328 -0.317205
v -0.008282 0.001328 -0.314700
v -0.008063 0.001781 -0.314700
v -0.006354 0.001328 -0.319354
v -0.007747 0.001328 -0.317205
v -0.007453 0.001758 -0.317083
v -0.007402 0.002024 -0.314700
v -0.006199 0.001781 -0.319200
v -0.005732 0.002024 -0.318732
v -0.004083 0.001758 -0.320453
v -0.001700 0.002024 -0.320402
v -0.001700 0.001781 -0.321063
v -0.001700 0.001328 -0.321282
v -0.004205 0.001328 -0.320747
v -0.004205 0.001328 -0.320747
v -0.006354 0.001328 -0.319354
v -0.004205 -0.003203 -0.320747
v -0.001700 -0.003203 -0.321282
v -0.001700 -0.003656 -0.321063
v -0.006354 -0.003203 -0.319354
v -0.004205 -0.003203 -0.320747
v -0.003953 -0.003656 -0.320138
v -0.001700 -0.003899 -0.320402
v -0.006199 -0.003656 -0.319200
v -0.005732 -0.003899 -0.318732
v -0.001700 0.001328 -0.308118
v -0.004205 0.001328 -0.308653
v -0.001700 -0.003203 -0.308118
v -0.001700 0.001781 -0.308337
v -0.004083 0.001758 -0.308947
v -0.001700 0.002024 -0.308998
v -0.005732 0.002024 -0.310668
v -0.006199 0.001781 -0.310201
v -0.006354 0.001328 -0.310046
v -0.004205 -0.003203 -0.308653
v -0.006354 -0.003203 -0.310046
v -0.006199 -0.003656 -0.310201
v -0.004083 -0.003633 -0.308947
v -0.001700 -0.003656 -0.308337
v -0.005732 -0.003899 -0.310668
v -0.001700 -0.003899 -0.308998
vn 0.1425 0.9795 -0.1425
vn -0.0000 0.9795 -0.2015
vn -0.1425 0.9795 -0.1425
vn -0.2015 0.9795 -0.0000
vn 0.2015 0.9795 -0.0000
vn -0.1425 0.9795 0.1425
vn 0.1425 0.9795 0.1425
vn -0.0000 0.9795 0.2015
vn 0.2289 -0.9461 -0.2289
vn -0.0208 -0.9423 -0.3342
vn 0.2352 -0.7889 -0.5678
vn -0.0157 -0.7967 -0.6041
vn -0.0057 -0.3286 -0.9445
vn 0.3688 -0.2666 -0.8904
vn 0.3688 0.2666 -0.8904
vn -0.0000 0.2706 -0.9627
vn -0.0000 0.7643 -0.6449
vn 0.2352 0.7888 -0.5678
vn 0.4560 -0.7643 -0.4560
vn 0.5678 -0.7888 -0.2352
vn 0.3238 -0.9461 -0.0000
vn 0.6449 -0.7643 -0.0000
vn 0.6807 -0.2706 -0.6807
vn 0.8904 -0.2666 -0.3688
vn 0.9627 -0.2706 -0.0000
vn 0.9627 0.2706 -0.0000
vn 0.8904 0.2666 -0.3688
vn 0.5678 0.7888 -0.2352
vn 0.6448 0.7643 -0.0000
vn 0.6807 0.2706 -0.6807
vn 0.4560 0.7643 -0.4560
vn 0.5678 0.7888 0.2352
vn 0.4560 0.7643 0.4560
vn 0.6807 0.2706 0.6807
vn 0.8904 0.2666 0.3688
vn 0.8904 -0.2666 0.3688
vn 0.6807 -0.2706 0.6807
vn 0.4560 -0.7643 0.4560
vn 0.5678 -0.7889 0.2352
vn 0.2289 -0.9461 0.2289
vn 0.2352 -0.7888 0.5678
vn -0.0000 -0.9461 0.3238
vn -0.0000 -0.7643 0.6449
vn 0.3688 -0.2666 0.8905
vn 0.3688 -0.2666 0.8904
vn -0.0000 -0.2706 0.9627
vn 0.3688 0.2666 0.8904
vn -0.0000 0.2706 0.9627
vn 0.2352 0.7888 0.5678
vn -0.0000 0.7643 0.6449
vn -0.5678 -0.7888 0.2352
vn -0.2289 -0.9461 0.2289
vn -0.4560 -0.7643 0.4560
vn -0.3238 -0.9461 -0.0000
vn -0.6449 -0.7643 -0.0000
vn -0.6807 -0.2706 0.6807
vn -0.8904 -0.2666 0.3688
vn -0.9627 -0.2706 -0.0000
vn -0.8904 0.2666 0.3688
vn -0.6807 0.2706 0.6807
vn -0.4560 0.7643 0.4560
vn -0.9627 0.2706 -0.0000
vn -0.5678 0.7889 0.2352
vn -0.6449 0.7643 -0.0000
vn -0.5678 -0.7889 -0.2352
vn -0.2216 -0.9423 -0.2510
vn -0.4161 -0.7967 -0.4383
vn -0.8904 -0.2666 -0.3688
vn -0.6637 -0.3286 -0.6719
vn -0.8904 0.2666 -0.3688
vn -0.6807 0.2706 -0.6807
vn -0.5678 0.7888 -0.2352
vn -0.4560 0.7643 -0.4560
vn -0.2352 0.7889 -0.5678
vn -0.3688 0.2666 -0.8904
vn -0.3552 -0.3722 -0.8575
vn -0.0156 -0.7967 -0.6042
vn -0.6638 -0.3286 -0.6719
vn -0.2108 -0.8347 -0.5088
vn -0.3688 0.2666 0.8904
vn -0.2352 0.7888 0.5678
vn -0.3688 -0.2666 0.8904
vn -0.2352 -0.7888 0.5678
vt 0.140384 0.447557
vt 0.188216 0.399725
vt 0.188216 0.332081
vt 0.140384 0.284249
vt 0.072740 0.447557
vt 0.072740 0.284249
vt 0.024908 0.399725
vt 0.024908 0.332081
vt 0.836616 0.992296
vt 0.988103 0.992296
vt 0.912359 0.979430
vt 0.988103 0.980119
vt 0.988103 0.956567
vt 0.912359 0.956567
vt 0.912359 0.713834
vt 0.988103 0.713834
vt 0.988103 0.690282
vt 0.912359 0.690971
vt 0.988103 0.678106
vt 0.836616 0.678106
vt 0.836616 0.980119
vt 0.912359 0.956567
vt 0.760872 0.979430
vt 0.685128 0.992296
vt 0.685128 0.980119
vt 0.836616 0.956567
vt 0.760872 0.956567
vt 0.685128 0.956567
vt 0.685128 0.713834
vt 0.760872 0.713834
vt 0.760872 0.690971
vt 0.760872 0.713834
vt 0.685128 0.690282
vt 0.836616 0.713834
vt 0.836615 0.713834
vt 0.912359 0.713834
vt 0.836616 0.690282
vt 0.685128 0.678106
vt 0.609385 0.690971
vt 0.533641 0.678106
vt 0.533641 0.690282
vt 0.533641 0.713834
vt 0.609385 0.713834
vt 0.685128 0.713834
vt 0.685128 0.956567
vt 0.609385 0.956567
vt 0.609385 0.956567
vt 0.533641 0.956567
vt 0.533642 0.980119
vt 0.609385 0.979430
vt 0.685128 0.980119
vt 0.533641 0.992296
vt 0.685128 0.992296
vt 0.457898 0.979430
vt 0.533641 0.992296
vt 0.533641 0.980119
vt 0.382154 0.992296
vt 0.382154 0.980119
vt 0.533641 0.956567
vt 0.457898 0.956567
vt 0.457898 0.956567
vt 0.382154 0.956567
vt 0.457898 0.713834
vt 0.382154 0.713834
vt 0.533641 0.713834
vt 0.533641 0.690282
vt 0.457898 0.690971
vt 0.382154 0.690282
vt 0.533641 0.678106
vt 0.382154 0.678106
vt 0.760872 0.979430
vt 0.836615 0.992296
vt 0.836615 0.980119
vt 0.685128 0.992296
vt 0.685129 0.980119
vt 0.836615 0.956567
vt 0.760872 0.956567
vt 0.760872 0.956567
vt 0.685128 0.956567
vt 0.760872 0.713834
vt 0.836615 0.713834
vt 0.836615 0.690282
vt 0.685128 0.713834
vt 0.760872 0.713834
vt 0.760872 0.690971
vt 0.836615 0.678106
vt 0.685129 0.690282
vt 0.685129 0.678106
vt 0.609385 0.979430
vt 0.685128 0.992296
vt 0.685128 0.980119
vt 0.533641 0.992296
vt 0.533642 0.980119
vt 0.685128 0.956567
vt 0.609385 0.956567
vt 0.609385 0.956567
vt 0.533641 0.956567
vt 0.609385 0.713834
vt 0.685128 0.713834
vt 0.685129 0.690282
vt 0.533641 0.713834
vt 0.609385 0.713834
vt 0.609385 0.690971
vt 0.685129 0.678106
vt 0.533641 0.690282
vt 0.533641 0.678106
vt 0.457898 0.690971
vt 0.382155 0.678106
vt 0.382155 0.690282
vt 0.382155 0.713834
vt 0.457898 0.713834
vt 0.457898 0.713834
vt 0.533641 0.713834
vt 0.457898 0.956567
vt 0.382155 0.956567
vt 0.382155 0.980119
vt 0.533641 0.956567
vt 0.457898 0.956567
vt 0.457898 0.979430
vt 0.382155 0.992296
vt 0.533641 0.980119
vt 0.533641 0.992296
vt 0.988103 0.713834
vt 0.912359 0.713834
vt 0.988103 0.956567
vt 0.988103 0.690282
vt 0.912359 0.690971
vt 0.988103 0.678106
vt 0.836615 0.678106
vt 0.836615 0.690282
vt 0.836615 0.713834
vt 0.912359 0.956567
vt 0.836615 0.956567
vt 0.836616 0.980119
vt 0.912359 0.979430
vt 0.988103 0.980119
vt 0.836615 0.992296
vt 0.988103 0.992296
s 1
usemtl SpinnyPaddle3
f 1/1/1 2/2/2 3/3/3
f 3/3/3 4/4/4 1/1/1
f 4/4/4 5/5/5 1/1/1
f 4/4/4 6/6/6 5/5/5
f 6/6/6 7/7/7 5/5/5
f 6/6/6 8/8/8 7/7/7
f 9/9/9 10/10/10 11/11/11
f 11/11/11 10/10/10 12/12/12
f 11/11/11 12/12/12 13/13/13
f 14/14/14 11/11/11 13/13/13
f 15/15/15 14/14/14 13/13/13
f 16/16/16 15/15/15 13/13/13
f 16/16/16 17/17/17 15/15/15
f 17/17/17 18/18/18 15/15/15
f 17/17/17 19/19/2 18/18/18
f 18/18/18 19/19/2 20/20/1
f 21/21/19 9/9/9 11/11/11
f 21/21/19 11/11/11 22/22/14
f 23/23/20 9/9/9 21/21/19
f 24/24/21 9/9/9 23/23/20
f 25/25/22 24/24/21 23/23/20
f 26/26/23 21/21/19 22/22/14
f 23/23/20 21/21/19 26/26/23
f 25/25/22 23/23/20 27/27/24
f 27/27/24 23/23/20 26/26/23
f 28/28/25 25/25/22 27/27/24
f 29/29/26 28/28/25 27/27/24
f 30/30/27 29/29/26 27/27/24
f 30/30/27 31/31/28 29/29/26
f 32/32/27 27/27/24 26/26/23
f 31/31/28 33/33/29 29/29/26
f 34/34/30 32/32/27 26/26/23
f 35/35/30 26/26/23 22/22/14
f 36/36/15 35/35/30 22/22/14
f 36/36/15 18/18/18 35/35/30
f 34/34/30 37/37/31 32/32/27
f 18/18/18 37/37/31 35/35/30
f 37/37/31 31/31/28 32/32/27
f 18/18/18 20/20/1 37/37/31
f 37/37/31 20/20/1 31/31/28
f 31/31/28 20/20/1 38/38/5
f 31/31/28 38/38/5 33/33/29
f 33/33/29 38/38/5 39/39/32
f 39/39/32 38/38/5 40/40/7
f 39/39/32 40/40/7 41/41/33
f 39/39/32 41/41/33 42/42/34
f 33/33/29 39/39/32 43/43/35
f 43/43/35 39/39/32 42/42/34
f 44/44/26 33/33/29 43/43/35
f 44/44/26 43/43/35 45/45/25
f 43/43/35 46/46/36 45/45/25
f 43/43/35 42/42/34 47/47/36
f 42/42/34 48/48/37 47/47/36
f 48/48/37 49/49/38 47/47/36
f 46/46/36 50/50/39 45/45/25
f 49/49/38 50/50/39 47/47/36
f 50/50/39 51/51/22 45/45/25
f 49/49/38 52/52/40 50/50/39
f 50/50/39 53/53/21 51/51/22
f 52/52/40 53/53/21 50/50/39
f 54/54/41 55/55/40 56/56/38
f 57/57/42 55/55/40 54/54/41
f 58/58/43 57/57/42 54/54/41
f 54/54/41 56/56/38 59/59/37
f 60/60/44 54/54/41 59/59/37
f 58/58/43 54/54/41 61/61/45
f 62/62/46 58/58/43 61/61/45
f 63/63/47 60/60/44 59/59/37
f 64/64/48 62/62/46 61/61/45
f 63/63/47 64/64/48 61/61/45
f 65/65/34 63/63/47 59/59/37
f 65/65/34 66/66/33 63/63/47
f 63/63/47 67/67/49 64/64/48
f 66/66/33 67/67/49 63/63/47
f 67/67/49 68/68/50 64/64/48
f 66/66/33 69/69/7 67/67/49
f 67/67/49 70/70/8 68/68/50
f 67/67/49 69/69/7 70/70/8
f 71/71/51 72/72/52 73/73/53
f 74/74/54 72/72/52 71/71/51
f 75/75/55 74/74/54 71/71/51
f 71/71/51 73/73/53 76/76/56
f 77/77/57 71/71/51 76/76/56
f 75/75/55 71/71/51 78/78/57
f 79/79/58 75/75/55 78/78/57
f 80/80/59 77/77/57 76/76/56
f 81/81/60 80/80/59 76/76/56
f 81/81/60 82/82/61 80/80/59
f 83/83/62 79/79/58 78/78/57
f 84/84/59 83/83/62 78/78/57
f 82/82/61 85/85/63 80/80/59
f 84/84/59 85/85/63 83/83/62
f 82/82/61 86/86/6 85/85/63
f 85/85/63 87/87/64 83/83/62
f 85/85/63 86/86/6 88/88/4
f 85/85/63 88/88/4 87/87/64
f 89/89/65 90/90/54 91/91/55
f 92/92/66 90/90/54 89/89/65
f 93/93/67 92/92/66 89/89/65
f 89/89/65 91/91/55 94/94/58
f 95/95/68 89/89/65 94/94/58
f 93/93/67 89/89/65 96/96/68
f 97/97/69 93/93/67 96/96/68
f 98/98/70 95/95/68 94/94/58
f 99/99/62 98/98/70 94/94/58
f 99/99/62 100/100/64 98/98/70
f 101/101/71 97/97/69 96/96/68
f 102/102/70 101/101/71 96/96/68
f 100/100/64 103/103/72 98/98/70
f 102/102/70 103/103/72 101/101/71
f 100/100/64 104/104/4 103/103/72
f 103/103/72 105/105/73 101/101/71
f 103/103/72 104/104/4 106/106/3
f 103/103/72 106/106/3 105/105/73
f 105/105/73 106/106/3 107/107/74
f 107/107/74 106/106/3 108/108/2
f 107/107/74 108/108/2 109/109/17
f 107/107/74 109/109/17 110/110/16
f 111/111/75 107/107/74 110/110/16
f 105/105/73 107/107/74 112/112/75
f 113/113/71 105/105/73 112/112/75
f 111/111/75 110/110/16 114/114/76
f 110/110/16 115/115/13 114/114/76
f 115/115/13 116/116/77 114/114/76
f 113/113/71 112/112/75 117/117/78
f 112/112/75 118/118/76 117/117/78
f 116/116/77 119/119/79 114/114/76
f 118/118/76 119/119/79 117/117/78
f 116/116/77 120/120/10 119/119/79
f 119/119/79 121/121/67 117/117/78
f 120/120/10 122/122/66 119/119/79
f 119/119/79 122/122/66 121/121/67
f 123/123/48 124/124/80 125/125/46
f 123/123/48 126/126/50 124/124/80
f 126/126/50 127/127/81 124/124/80
f 126/126/50 128/128/8 127/127/81
f 127/127/81 128/128/8 129/129/6
f 127/127/81 129/129/6 130/130/61
f 127/127/81 130/130/61 131/131/60
f 124/124/80 127/127/81 131/131/60
f 124/124/80 131/131/60 132/132/82
f 124/124/80 132/132/82 125/125/46
f 131/131/60 133/133/56 132/132/82
f 133/133/56 134/134/53 132/132/82
f 132/132/82 135/135/83 125/125/46
f 134/134/53 135/135/83 132/132/82
f 135/135/83 136/136/43 125/125/46
f 134/134/53 137/137/52 135/135/83
f 135/135/83 138/138/42 136/136/43
f 137/137/52 138/138/42 135/135/83
