# Blender 3.5.0
# www.blender.org
mtllib SpinnyDisk2.mtl
g SpinningDisc.002_BlueFloor_0_SpinningDisc.002_BlueFloor_0
v 0.063016 -0.003739 -0.255173
v 0.067987 -0.003739 -0.245416
v 0.067987 -0.009461 -0.245416
v 0.063016 -0.009461 -0.255173
v 0.055272 -0.003739 -0.262916
v 0.055272 -0.009461 -0.262916
v 0.045516 -0.003739 -0.267887
v 0.045516 -0.009461 -0.267887
v 0.034700 -0.003739 -0.269600
v 0.034700 -0.009461 -0.269600
v 0.023884 -0.003739 -0.267887
v 0.023884 -0.009461 -0.267887
v 0.014127 -0.003739 -0.262916
v 0.014127 -0.009461 -0.262916
v 0.006384 -0.003739 -0.255173
v 0.006384 -0.009461 -0.255173
v 0.001413 -0.003739 -0.245416
v 0.001413 -0.009461 -0.245416
v -0.000300 -0.003739 -0.234600
v -0.000300 -0.009461 -0.234600
v 0.001413 -0.003739 -0.223784
v -0.000300 -0.003739 -0.234600
v -0.000300 -0.009461 -0.234600
v 0.001413 -0.009461 -0.223784
v 0.006384 -0.003739 -0.214028
v 0.006384 -0.009461 -0.214028
v 0.014128 -0.003739 -0.206284
v 0.014128 -0.009461 -0.206284
v 0.023884 -0.003739 -0.201313
v 0.023884 -0.009461 -0.201313
v 0.034700 -0.003739 -0.199600
v 0.034700 -0.009461 -0.199600
v 0.045516 -0.003739 -0.201313
v 0.045516 -0.009461 -0.201313
v 0.055272 -0.003739 -0.206284
v 0.055272 -0.009461 -0.206284
v 0.063016 -0.003739 -0.214028
v 0.063016 -0.009461 -0.214028
v 0.067987 -0.003739 -0.223784
v 0.067987 -0.009461 -0.223784
v 0.069700 -0.003739 -0.234600
v 0.069700 -0.009461 -0.234600
v 0.067987 -0.003739 -0.245416
v 0.069700 -0.003739 -0.234600
v 0.069700 -0.009461 -0.234600
v 0.067987 -0.009461 -0.245416
v 0.067987 -0.009461 -0.245416
v 0.034700 -0.009461 -0.234600
v 0.063016 -0.009461 -0.255173
v 0.055272 -0.009461 -0.262916
v 0.069700 -0.009461 -0.234600
v 0.045516 -0.009461 -0.267887
v 0.067987 -0.009461 -0.223784
v 0.034700 -0.009461 -0.269600
v 0.063016 -0.009461 -0.214028
v 0.023884 -0.009461 -0.267887
v 0.055272 -0.009461 -0.206284
v 0.014127 -0.009461 -0.262916
v 0.045516 -0.009461 -0.201313
v 0.006384 -0.009461 -0.255173
v 0.034700 -0.009461 -0.199600
v 0.001413 -0.009461 -0.245416
v 0.023884 -0.009461 -0.201313
v -0.000300 -0.009461 -0.234600
v 0.014128 -0.009461 -0.206284
v 0.001413 -0.009461 -0.223784
v 0.006384 -0.009461 -0.214028
v 0.063016 -0.003739 -0.255173
v 0.034700 -0.003739 -0.234600
v 0.067987 -0.003739 -0.245416
v 0.069700 -0.003739 -0.234600
v 0.055272 -0.003739 -0.262916
v 0.067987 -0.003739 -0.223784
v 0.045516 -0.003739 -0.267887
v 0.063016 -0.003739 -0.214028
v 0.034700 -0.003739 -0.269600
v 0.055272 -0.003739 -0.206284
v 0.023884 -0.003739 -0.267887
v 0.045516 -0.003739 -0.201313
v 0.014127 -0.003739 -0.262916
v 0.034700 -0.003739 -0.199600
v 0.006384 -0.003739 -0.255173
v 0.023884 -0.003739 -0.201313
v 0.001413 -0.003739 -0.245416
v 0.014128 -0.003739 -0.206284
v -0.000300 -0.003739 -0.234600
v 0.006384 -0.003739 -0.214028
v 0.001413 -0.003739 -0.223784
vn 0.8090 -0.0000 -0.5878
vn 0.9511 -0.0002 -0.3090
vn 0.9511 0.0002 -0.3090
vn 0.5878 -0.0000 -0.8090
vn 0.3090 -0.0000 -0.9511
vn -0.0000 -0.0000 -1.0000
vn -0.3090 -0.0000 -0.9511
vn -0.5878 -0.0000 -0.8090
vn -0.8090 -0.0000 -0.5878
vn -0.9511 -0.0000 -0.3090
vn -1.0000 -0.0002 -0.0000
vn -1.0000 0.0002 -0.0000
vn -0.9511 -0.0000 0.3090
vn -0.8090 -0.0000 0.5878
vn -0.5878 -0.0000 0.8090
vn -0.3090 -0.0000 0.9511
vn -0.0000 -0.0000 1.0000
vn 0.3090 -0.0000 0.9511
vn 0.5878 -0.0000 0.8090
vn 0.8090 -0.0000 0.5878
vn 0.9511 -0.0000 0.3090
vn 1.0000 -0.0002 -0.0000
vn 1.0000 0.0002 -0.0000
vn -0.0000 -1.0000 -0.0000
vn -0.0000 1.0000 -0.0000
vt 0.200505 0.000569
vt 0.100600 0.000569
vt 0.100600 0.999546
vt 0.200505 0.999546
vt 0.300411 0.000569
vt 0.300411 0.999546
vt 0.400317 0.000569
vt 0.400317 0.999546
vt 0.500222 0.000569
vt 0.500222 0.999546
vt 0.600127 0.000569
vt 0.600127 0.999546
vt 0.700033 0.000569
vt 0.700033 0.999546
vt 0.799938 0.000569
vt 0.799938 0.999546
vt 0.899843 0.000569
vt 0.899843 0.999546
vt 0.999749 0.000569
vt 0.999749 0.999546
vt 0.100600 0.000569
vt 0.000694 0.000569
vt 0.000694 0.999546
vt 0.100599 0.999546
vt 0.200505 0.000569
vt 0.200505 0.999546
vt 0.300411 0.000569
vt 0.300411 0.999546
vt 0.400316 0.000569
vt 0.400316 0.999546
vt 0.500221 0.000569
vt 0.500221 0.999546
vt 0.600127 0.000569
vt 0.600127 0.999546
vt 0.700032 0.000569
vt 0.700032 0.999546
vt 0.799937 0.000569
vt 0.799937 0.999546
vt 0.899842 0.000569
vt 0.899843 0.999546
vt 0.999748 0.000569
vt 0.999748 0.999546
vt 0.100600 0.000569
vt 0.000694 0.000569
vt 0.000694 0.999546
vt 0.100600 0.999546
vt 0.028389 0.346748
vt 0.500224 0.500056
vt 0.098857 0.208446
vt 0.208614 0.098689
vt 0.004108 0.500056
vt 0.346915 0.028221
vt 0.028389 0.653364
vt 0.500224 0.003939
vt 0.098857 0.791665
vt 0.653533 0.028221
vt 0.208614 0.901422
vt 0.791834 0.098689
vt 0.346915 0.971890
vt 0.901591 0.208446
vt 0.500223 0.996172
vt 0.972059 0.346748
vt 0.653532 0.971891
vt 0.996340 0.500056
vt 0.791834 0.901422
vt 0.972059 0.653365
vt 0.901590 0.791666
vt 0.901591 0.208446
vt 0.500224 0.500056
vt 0.972060 0.346748
vt 0.996341 0.500056
vt 0.791835 0.098689
vt 0.972059 0.653364
vt 0.653533 0.028221
vt 0.901591 0.791666
vt 0.500224 0.003939
vt 0.791834 0.901422
vt 0.346916 0.028221
vt 0.653533 0.971891
vt 0.208614 0.098689
vt 0.500224 0.996172
vt 0.098858 0.208446
vt 0.346916 0.971891
vt 0.028390 0.346748
vt 0.208614 0.901422
vt 0.004108 0.500056
vt 0.098858 0.791666
vt 0.028390 0.653364
s 1
usemtl BlueFloor
f 1/1/1 2/2/2 3/3/3
f 4/4/1 1/1/1 3/3/3
f 5/5/4 1/1/1 4/4/1
f 6/6/4 5/5/4 4/4/1
f 7/7/5 5/5/4 6/6/4
f 8/8/5 7/7/5 6/6/4
f 9/9/6 7/7/5 8/8/5
f 10/10/6 9/9/6 8/8/5
f 11/11/7 9/9/6 10/10/6
f 12/12/7 11/11/7 10/10/6
f 13/13/8 11/11/7 12/12/7
f 14/14/8 13/13/8 12/12/7
f 15/15/9 13/13/8 14/14/8
f 16/16/9 15/15/9 14/14/8
f 17/17/10 15/15/9 16/16/9
f 18/18/10 17/17/10 16/16/9
f 19/19/11 17/17/10 18/18/10
f 20/20/12 19/19/11 18/18/10
f 21/21/13 22/22/11 23/23/12
f 24/24/13 21/21/13 23/23/12
f 25/25/14 21/21/13 24/24/13
f 26/26/14 25/25/14 24/24/13
f 27/27/15 25/25/14 26/26/14
f 28/28/15 27/27/15 26/26/14
f 29/29/16 27/27/15 28/28/15
f 30/30/16 29/29/16 28/28/15
f 31/31/17 29/29/16 30/30/16
f 32/32/17 31/31/17 30/30/16
f 33/33/18 31/31/17 32/32/17
f 34/34/18 33/33/18 32/32/17
f 35/35/19 33/33/18 34/34/18
f 36/36/19 35/35/19 34/34/18
f 37/37/20 35/35/19 36/36/19
f 38/38/20 37/37/20 36/36/19
f 39/39/21 37/37/20 38/38/20
f 40/40/21 39/39/21 38/38/20
f 41/41/22 39/39/21 40/40/21
f 42/42/23 41/41/22 40/40/21
f 43/43/2 44/44/22 45/45/23
f 46/46/3 43/43/2 45/45/23
s 0
f 47/47/24 48/48/24 49/49/24
f 49/49/24 48/48/24 50/50/24
f 51/51/24 48/48/24 47/47/24
f 50/50/24 48/48/24 52/52/24
f 53/53/24 48/48/24 51/51/24
f 52/52/24 48/48/24 54/54/24
f 55/55/24 48/48/24 53/53/24
f 54/54/24 48/48/24 56/56/24
f 57/57/24 48/48/24 55/55/24
f 56/56/24 48/48/24 58/58/24
f 59/59/24 48/48/24 57/57/24
f 58/58/24 48/48/24 60/60/24
f 61/61/24 48/48/24 59/59/24
f 60/60/24 48/48/24 62/62/24
f 63/63/24 48/48/24 61/61/24
f 62/62/24 48/48/24 64/64/24
f 65/65/24 48/48/24 63/63/24
f 64/64/24 48/48/24 66/66/24
f 67/67/24 48/48/24 65/65/24
f 66/66/24 48/48/24 67/67/24
f 68/68/25 69/69/25 70/70/25
f 70/70/25 69/69/25 71/71/25
f 72/72/25 69/69/25 68/68/25
f 71/71/25 69/69/25 73/73/25
f 74/74/25 69/69/25 72/72/25
f 73/73/25 69/69/25 75/75/25
f 76/76/25 69/69/25 74/74/25
f 75/75/25 69/69/25 77/77/25
f 78/78/25 69/69/25 76/76/25
f 77/77/25 69/69/25 79/79/25
f 80/80/25 69/69/25 78/78/25
f 79/79/25 69/69/25 81/81/25
f 82/82/25 69/69/25 80/80/25
f 81/81/25 69/69/25 83/83/25
f 84/84/25 69/69/25 82/82/25
f 83/83/25 69/69/25 85/85/25
f 86/86/25 69/69/25 84/84/25
f 85/85/25 69/69/25 87/87/25
f 88/88/25 69/69/25 86/86/25
f 87/87/25 69/69/25 88/88/25
