# Blender 4.0.2
# www.blender.org
o DungeonA.001
v -1.536000 0.032000 8.352000
v -1.536000 3.104000 8.352000
v -1.536000 0.032000 -8.544001
v -1.536000 3.104000 -8.544001
v 0.000000 0.032000 8.352000
v 0.000000 3.104000 8.352000
v 0.000000 0.032000 -8.544001
v 0.000000 3.104000 -8.544001
v -1.536000 0.032000 6.816000
v -1.536000 3.104000 6.816000
v 0.000000 0.032000 6.816000
v 0.000000 3.104000 6.816000
v 30.720001 3.104000 6.816000
v 30.720001 3.104000 8.352000
v 30.720001 0.032000 8.352000
v 30.720001 0.032000 6.816000
v 32.256001 3.104000 6.816000
v 32.256001 3.104000 8.352000
v 32.256001 0.032000 8.352000
v 32.256001 0.032000 6.816000
v 30.720001 3.104000 -8.544001
v 30.720001 0.032000 -8.544001
v 32.256001 3.104000 -8.544001
v 32.256001 0.032000 -8.544001
v -1.536000 0.032000 -10.080001
v -1.536000 3.104000 -10.080001
v 0.000000 3.104000 -10.080001
v 0.000000 0.032000 -10.080001
v 30.720001 3.104000 -10.080001
v 30.720001 0.032000 -10.080001
v 32.256001 3.104000 -10.080001
v 32.256001 0.032000 -10.080001
v -1.536000 3.104000 -0.096000
v -1.536000 3.104000 -1.632000
v 0.000000 0.032000 -0.096000
v 0.000000 0.032000 -1.632000
v -1.536000 0.032000 -1.632000
v -1.536000 0.032000 -0.096000
v 0.000000 3.104000 -1.632000
v 0.000000 3.104000 -0.096000
v -1.536000 -0.736000 1.440000
v -1.536000 0.032000 1.440000
v -1.536000 -0.736000 -3.168000
v -1.536000 0.032000 -3.168000
v 30.720001 -0.736000 1.440000
v 30.720001 0.032000 1.440000
v 30.720001 -0.736000 -3.168000
v 30.720001 0.032000 -3.168000
v 9.984000 0.032000 6.048000
v 5.376000 0.032000 6.048000
v 5.376000 -0.736000 6.048000
v 9.984000 -0.736000 6.048000
v 25.344000 0.032000 6.816000
v 20.736002 0.032000 6.816000
v 20.736002 -0.736000 6.816000
v 25.344000 -0.736000 6.816000
v 22.272001 0.032000 6.816000
v 22.272001 0.032000 8.352000
v 22.272001 3.104000 8.352000
v 22.272001 3.104000 6.816000
v 23.808002 0.032000 6.816000
v 23.808002 3.104000 8.352000
v 23.808002 0.032000 8.352000
v 23.808002 3.104000 6.816000
v 9.984000 0.032000 1.440000
v 9.984000 -0.736000 1.440000
v 5.376000 -0.736000 1.440000
v 5.376000 0.032000 1.440000
v 5.376000 -0.736000 8.352000
v 9.984000 -0.736000 8.352000
v 9.984000 0.032000 8.352000
v 5.376000 0.032000 8.352000
v 20.736002 0.032000 1.440000
v 20.736002 -0.736000 1.440000
v 25.344000 0.032000 1.440000
v 25.344000 -0.736000 1.440000
v 25.344000 0.032000 8.352000
v 20.736002 0.032000 8.352000
v 20.736002 -0.736000 8.352000
v 25.344000 -0.736000 8.352000
v 9.984001 1.352960 0.979200
v 9.984001 1.783040 0.979200
v 9.984001 1.352960 1.440000
v 9.984001 1.783040 1.440000
v 20.736002 1.352960 0.979200
v 20.736002 1.783040 0.979200
v 20.736002 1.352960 1.440000
v 20.736002 1.783040 1.440000
v 9.523202 1.352960 1.440000
v 9.523202 1.352960 0.979200
v 9.523202 1.783040 0.979200
v 9.523202 1.783040 1.440000
v 9.984001 1.783040 6.816000
v 9.984001 1.352960 6.816000
v 9.523202 1.783040 6.816000
v 9.523202 1.352960 6.816000
v 21.196804 1.783040 1.440000
v 21.196804 1.352960 1.440000
v 21.196804 1.352960 0.979200
v 21.196804 1.783040 0.979200
v 20.736002 1.783040 6.816000
v 20.736002 1.352960 6.816000
v 21.196804 1.783040 6.816000
v 21.196804 1.352960 6.816000
v 25.344000 1.352960 0.979200
v 25.344000 1.783040 0.979200
v 25.344000 1.352960 1.440000
v 25.344000 1.783040 1.440000
v 5.414402 1.783040 6.816000
v 5.414402 1.352960 6.816000
v 5.875200 1.352960 1.440000
v 5.875200 1.783040 6.816000
v 24.883202 1.352960 1.440000
v 24.883202 1.352960 0.979200
v 24.883202 1.783040 0.979200
v 24.883202 1.783040 1.440000
v 25.344000 1.783040 6.816000
v 25.344000 1.352960 6.816000
v 24.883202 1.783040 6.816000
v 24.883202 1.352960 6.816000
v 5.875200 1.352960 0.979200
v 5.875200 1.783040 0.979200
v 5.875200 1.783040 1.440000
v 5.414402 1.352960 1.440000
v 5.875200 1.352960 6.816000
v 5.414402 1.783040 1.440000
v 5.414402 1.352960 0.979200
v 5.414402 1.783040 0.979200
v 30.719995 1.352960 -2.732800
v 30.719995 1.783040 -2.732800
v 30.719995 1.352960 -3.193601
v 30.719995 1.783040 -3.193601
v -0.000006 1.352960 -2.732799
v -0.000006 1.783040 -2.732799
v -0.000006 1.352960 -3.193599
v -0.000006 1.783040 -3.193599
v 30.720001 1.783040 0.979200
v 30.720001 1.352960 0.979200
v 30.720001 1.783040 1.440000
v 30.720001 1.352960 1.440000
v 29.951996 1.783040 -8.569601
v 29.951996 1.352960 -8.569601
v 30.412794 1.783040 -8.569601
v 30.412794 1.352960 -8.569601
v 19.199995 1.783040 -8.569599
v 19.199995 1.352960 -8.569599
v 18.739195 1.783040 -8.569599
v 18.739195 1.352960 -8.569599
v 0.038401 1.352960 0.979200
v 0.038401 1.783040 0.979200
v 0.038401 1.352960 1.440000
v 0.038401 1.783040 1.440000
v 9.984001 -0.183040 1.440000
v 9.984001 -0.183040 0.979200
v 9.523202 -0.183040 1.440000
v 9.523202 -0.183040 0.979200
v 5.414402 -0.183040 0.979200
v 5.875200 -0.183040 0.979200
v 5.875200 -0.183040 1.440000
v 5.414402 -0.183040 1.440000
v 25.344000 -0.183040 1.440000
v 25.344000 -0.183040 0.979200
v 24.883202 -0.183040 1.440000
v 24.883202 -0.183040 0.979200
v 20.736002 -0.183040 0.979200
v 20.736002 -0.183040 1.440000
v 21.196804 -0.183040 0.979200
v 21.196804 -0.183040 1.440000
v 25.344000 1.352960 -3.191040
v 25.344000 1.352960 -2.730240
v 24.883202 1.352960 -2.730240
v 24.883202 1.352960 -3.191040
v 25.344000 -0.183040 -2.730240
v 25.344000 -0.183040 -3.191040
v 24.883202 -0.183040 -2.730240
v 24.883202 -0.183040 -3.191040
v 20.736002 1.352960 -3.191040
v 20.736002 1.352960 -2.730240
v 20.275202 1.352960 -2.730240
v 20.275202 1.352960 -3.191040
v 20.736002 -0.183040 -2.730240
v 20.736002 -0.183040 -3.191040
v 20.275202 -0.183040 -2.730240
v 20.275202 -0.183040 -3.191040
v 16.128000 1.352960 -3.191040
v 16.128000 1.352960 -2.730240
v 15.667201 1.352960 -2.730240
v 15.667201 1.352960 -3.191040
v 16.128000 -0.183040 -2.730240
v 16.128000 -0.183040 -3.191040
v 15.667201 -0.183040 -2.730240
v 15.667201 -0.183040 -3.191040
v 11.520000 1.352960 -3.191040
v 11.520000 1.352960 -2.730240
v 11.059202 1.352960 -2.730240
v 11.059202 1.352960 -3.191040
v 11.520000 -0.183040 -2.730240
v 11.520000 -0.183040 -3.191040
v 11.059202 -0.183040 -2.730240
v 11.059202 -0.183040 -3.191040
v 6.912000 1.352960 -3.191040
v 6.912000 1.352960 -2.730240
v 6.451202 1.352960 -2.730240
v 6.451202 1.352960 -3.191040
v 6.912000 -0.183040 -2.730240
v 6.912000 -0.183040 -3.191040
v 6.451202 -0.183040 -2.730240
v 6.451202 -0.183040 -3.191040
v 2.304000 1.352960 -3.191040
v 2.304000 1.352960 -2.730240
v 1.843201 1.352960 -2.730240
v 1.843201 1.352960 -3.191040
v 2.304000 -0.183040 -2.730240
v 2.304000 -0.183040 -3.191040
v 1.843201 -0.183040 -2.730240
v 1.843201 -0.183040 -3.191040
v 29.952002 1.352960 -3.191040
v 29.952002 1.352960 -2.730240
v 29.491201 1.352960 -2.730240
v 29.491201 1.352960 -3.191040
v 29.952002 -0.183040 -2.730240
v 29.952002 -0.183040 -3.191040
v 29.491201 -0.183040 -2.730240
v 29.491201 -0.183040 -3.191040
v 0.000000 -10.720000 -8.544001
v 0.000000 -10.720000 -10.080001
v 30.720001 -10.720000 -10.080001
v 30.720001 -10.720000 -8.544001
v -1.536000 0.032000 8.352000
v 32.256001 0.032000 8.352000
v -1.536000 0.032000 6.816000
v 32.256001 0.032000 6.816000
v -1.536000 -10.720000 8.352000
v -1.536000 -10.720000 6.816000
v 32.256001 -10.720000 6.816000
v 32.256001 -10.720000 8.352000
v 32.256001 -10.720000 6.816000
v 30.720001 -10.720000 6.816000
v 32.256001 -10.720000 -8.544001
v 30.720001 -10.720000 -8.544001
v -1.536000 0.032000 6.816000
v 0.000000 0.032000 6.816000
v -1.536000 0.032000 -8.544001
v 0.000000 0.032000 -8.544001
v 0.000000 -10.720000 6.816000
v -1.536000 -10.720000 6.816000
v 0.000000 -10.720000 -8.544001
v -1.536000 -10.720000 -8.544001
v 0.000000 -10.720000 6.816000
v 30.720001 -10.720000 6.816000
v 0.000000 -10.720000 -8.544001
v 30.720001 -10.720000 -8.544001
vn -1.0000 -0.0000 -0.0000
vn -0.0000 -1.0000 -0.0000
vn -0.0000 -0.0000 1.0000
vn -0.0000 1.0000 -0.0000
vn 1.0000 -0.0000 -0.0000
vn -0.0000 -0.0000 -1.0000
vt 0.625000 0.208333
vt 0.375000 0.250000
vt 0.375000 0.208333
vt 0.625000 0.250000
vt 0.375000 0.625000
vt 0.375000 0.750000
vt 0.625000 0.750000
vt 0.375000 1.000000
vt 0.125000 0.750000
vt 0.125000 0.625000
vt 0.875000 0.625000
vt 0.625000 0.625000
vt 0.875000 0.583333
vt 0.625000 0.583333
vt 0.375000 0.583333
vt 0.125000 0.583333
vt 0.625000 0.000000
vt 0.375000 0.125000
vt 0.375000 0.000000
vt 0.375000 0.500000
vt 0.625000 0.500000
vt 0.875000 0.500000
vt 0.125000 0.500000
vt 0.375000 0.541667
vt 0.125000 0.541667
vt 0.625000 0.541667
vt 0.625000 0.125000
vt 0.375000 0.166667
vt 0.250000 0.750000
vt 0.187500 0.750000
vt 0.687500 0.750000
vt 0.656250 0.750000
vt 0.625000 0.937500
vt 0.625000 1.000000
vt 0.375000 0.875000
vt 0.625000 0.812500
vt 0.625000 0.875000
vt 0.375000 0.937500
vt 0.812500 0.750000
vt 0.750000 0.750000
vt 0.375000 0.812500
vt 0.625000 0.781250
vt 0.343750 0.750000
vt 0.312500 0.750000
vt 0.375000 0.781250
vt 0.875000 0.750000
vt 0.750000 0.500000
vt 0.625000 0.375000
vt 0.375000 0.375000
vt 0.250000 0.500000
vt 1.000000 0.000000
vt 0.000000 1.000000
vt 0.000000 0.000000
vt 0.875000 0.541667
vt 0.625000 0.166667
vt 1.000000 1.000000
s 0
f 34/1/1 3/2/1 37/3/1
f 4/4/1 25/2/1 3/2/1
f 61/5/2 15/6/2 63/6/2
f 6/7/3 1/8/3 5/6/3
f 11/5/2 1/9/2 9/10/2
f 10/11/4 6/7/4 12/12/4
f 33/13/4 12/12/4 40/14/4
f 35/15/2 9/10/2 38/16/2
f 40/14/5 11/5/5 35/15/5
f 2/17/1 9/18/1 1/19/1
f 13/12/1 22/5/1 16/5/1
f 62/7/4 13/12/4 64/12/4
f 63/6/3 14/7/3 62/7/3
f 64/12/6 16/5/6 61/5/6
f 17/12/5 19/6/5 20/5/5
f 15/6/3 18/7/3 14/7/3
f 16/5/2 19/6/2 15/6/2
f 14/7/4 17/12/4 13/12/4
f 23/12/4 29/12/4 21/12/4
f 24/5/6 240/5/6 22/5/6
f 20/5/5 23/12/5 17/12/5
f 17/12/4 21/12/4 13/12/4
f 22/5/5 227/5/5 30/5/5
f 21/12/3 7/20/3 22/5/3
f 8/21/4 26/22/4 4/22/4
f 26/22/6 28/20/6 25/23/6
f 3/23/2 28/20/2 7/20/2
f 29/12/6 32/5/6 30/5/6
f 27/21/4 21/12/4 29/12/4
f 22/5/2 32/5/2 24/5/2
f 24/5/5 31/12/5 23/12/5
f 28/20/6 29/12/6 30/5/6
f 8/21/5 36/24/5 7/20/5
f 7/20/2 37/25/2 3/23/2
f 4/22/4 39/26/4 8/21/4
f 38/16/6 40/14/6 35/15/6
f 10/27/1 38/28/1 9/18/1
f 39/26/3 37/25/3 36/24/3
f 42/17/1 43/2/1 41/19/1
f 44/4/6 47/20/6 43/2/6
f 48/21/5 45/6/5 47/20/5
f 47/20/2 66/29/2 67/30/2
f 44/22/4 73/31/4 75/32/4
f 41/8/3 68/33/3 42/34/3
f 12/12/6 57/5/6 11/5/6
f 5/6/3 59/7/3 6/7/3
f 6/7/4 60/12/4 12/12/4
f 11/5/2 58/6/2 5/6/2
f 59/7/5 57/5/5 60/12/5
f 61/5/1 62/7/1 64/12/1
f 66/35/3 73/36/3 65/37/3
f 67/38/1 72/33/1 68/33/1
f 69/38/3 71/37/3 72/33/3
f 66/29/2 69/30/2 67/30/2
f 68/39/4 71/40/4 65/40/4
f 65/37/5 70/35/5 66/35/5
f 79/41/3 77/42/3 78/36/3
f 76/43/2 79/44/2 74/44/2
f 76/45/3 46/7/3 75/42/3
f 74/41/1 78/36/1 73/36/1
f 73/31/4 77/32/4 75/32/4
f 75/42/5 80/45/5 76/45/5
f 89/23/4 94/23/4 83/23/4
f 84/4/6 87/20/6 83/2/6
f 85/6/3 100/7/3 86/7/3
f 86/7/3 81/8/3 85/6/3
f 87/20/4 81/9/4 83/23/4
f 84/22/2 86/7/2 88/21/2
f 91/17/5 89/2/5 90/19/5
f 82/34/3 90/8/3 81/8/3
f 84/22/2 91/46/2 82/46/2
f 90/8/3 154/8/3 81/8/3
f 94/2/6 95/4/6 93/4/6
f 83/2/1 93/4/1 84/4/1
f 84/22/2 95/22/2 92/22/2
f 92/4/5 96/2/5 89/2/5
f 97/21/1 99/6/1 98/20/1
f 87/20/5 165/6/5 85/6/5
f 86/7/2 97/21/2 88/21/2
f 87/20/4 104/20/4 98/20/4
f 101/21/6 104/20/6 102/20/6
f 88/21/5 102/20/5 87/20/5
f 98/20/1 103/21/1 97/21/1
f 97/21/2 101/21/2 88/21/2
f 113/23/4 118/23/4 107/23/4
f 111/22/6 160/22/6 124/22/6
f 123/23/2 109/23/2 126/23/2
f 108/22/2 137/40/2 139/47/2
f 115/17/5 113/2/5 114/19/5
f 106/34/3 114/8/3 105/8/3
f 108/22/2 115/46/2 106/46/2
f 114/8/3 162/8/3 105/8/3
f 118/2/6 119/4/6 117/4/6
f 107/2/1 117/4/1 108/4/1
f 108/22/2 119/22/2 116/22/2
f 116/4/5 120/2/5 113/2/5
f 121/17/1 123/2/1 122/19/1
f 109/2/6 125/4/6 110/4/6
f 126/2/6 151/48/6 152/49/6
f 124/22/4 149/40/4 151/47/4
f 152/50/2 128/9/2 126/23/2
f 111/4/1 112/2/1 123/2/1
f 127/34/3 122/8/3 128/8/3
f 124/22/4 125/22/4 111/22/4
f 134/7/6 129/8/6 133/6/6
f 135/20/4 129/9/4 131/23/4
f 132/22/2 134/7/2 136/21/2
f 131/23/3 136/21/3 135/20/3
f 135/20/5 134/7/5 133/6/5
f 145/21/3 148/20/3 146/20/3
f 129/8/1 132/22/1 131/23/1
f 126/2/5 110/4/5 124/4/5
f 140/50/4 105/9/4 107/23/4
f 128/9/2 123/23/2 126/23/2
f 108/4/6 140/49/6 107/2/6
f 128/8/3 149/40/3 127/34/3
f 154/9/4 155/23/4 153/23/4
f 81/9/1 153/23/1 83/23/1
f 83/23/6 155/23/6 89/23/6
f 89/2/5 156/19/5 90/19/5
f 160/22/4 158/46/4 157/46/4
f 121/17/1 159/4/1 111/4/1
f 127/34/3 158/34/3 121/34/3
f 124/22/5 157/46/5 127/46/5
f 162/9/4 163/23/4 161/23/4
f 105/9/1 161/23/1 107/23/1
f 107/23/6 163/23/6 113/23/6
f 113/2/5 164/19/5 114/19/5
f 166/20/4 167/6/4 165/6/4
f 99/6/1 168/20/1 98/20/1
f 98/20/6 166/20/6 87/20/6
f 85/6/3 167/6/3 99/6/3
f 172/8/3 174/8/3 169/8/3
f 169/9/1 173/23/1 170/23/1
f 170/23/6 175/23/6 171/23/6
f 171/2/5 176/19/5 172/19/5
f 170/23/2 172/8/2 169/8/2
f 176/8/4 173/23/4 174/8/4
f 180/8/3 182/8/3 177/8/3
f 177/9/1 181/23/1 178/23/1
f 178/23/6 183/23/6 179/23/6
f 179/2/5 184/19/5 180/19/5
f 184/8/4 181/23/4 182/8/4
f 178/23/2 180/8/2 177/8/2
f 188/8/3 190/8/3 185/8/3
f 185/9/1 189/23/1 186/23/1
f 186/23/6 191/23/6 187/23/6
f 187/2/5 192/19/5 188/19/5
f 196/8/3 198/8/3 193/8/3
f 193/9/1 197/23/1 194/23/1
f 194/23/6 199/23/6 195/23/6
f 195/2/5 200/19/5 196/19/5
f 200/8/4 197/23/4 198/8/4
f 194/23/2 196/8/2 193/8/2
f 204/8/3 206/8/3 201/8/3
f 201/9/1 205/23/1 202/23/1
f 202/23/6 207/23/6 203/23/6
f 203/2/5 208/19/5 204/19/5
f 212/8/3 214/8/3 209/8/3
f 209/9/1 213/23/1 210/23/1
f 210/23/6 215/23/6 211/23/6
f 211/2/5 216/19/5 212/19/5
f 216/8/4 213/23/4 214/8/4
f 210/23/2 212/8/2 209/8/2
f 220/8/3 222/8/3 217/8/3
f 217/9/1 221/23/1 218/23/1
f 218/23/6 223/23/6 219/23/6
f 219/2/5 224/19/5 220/19/5
f 225/20/2 227/5/2 228/5/2
f 30/5/6 226/20/6 28/20/6
f 28/20/1 225/20/1 7/20/1
f 7/20/3 228/5/3 22/5/3
f 230/5/5 235/5/5 232/5/5
f 232/5/6 234/20/6 231/20/6
f 231/20/1 233/20/1 229/20/1
f 229/20/3 236/5/3 230/5/3
f 238/5/2 239/5/2 237/5/2
f 16/5/3 237/5/3 20/5/3
f 20/5/5 239/5/5 24/5/5
f 22/5/1 238/5/1 16/5/1
f 244/5/6 248/5/6 243/5/6
f 241/5/3 245/5/3 242/5/3
f 242/5/5 247/5/5 244/5/5
f 243/5/1 246/5/1 241/5/1
f 250/51/4 251/52/4 249/53/4
f 34/1/1 4/4/1 3/2/1
f 4/4/1 26/4/1 25/2/1
f 61/5/2 16/5/2 15/6/2
f 6/7/3 2/34/3 1/8/3
f 11/5/2 5/6/2 1/9/2
f 10/11/4 2/46/4 6/7/4
f 33/13/4 10/11/4 12/12/4
f 35/15/2 11/5/2 9/10/2
f 40/14/5 12/12/5 11/5/5
f 2/17/1 10/27/1 9/18/1
f 13/12/1 21/12/1 22/5/1
f 62/7/4 14/7/4 13/12/4
f 63/6/3 15/6/3 14/7/3
f 64/12/6 13/12/6 16/5/6
f 17/12/5 18/7/5 19/6/5
f 15/6/3 19/6/3 18/7/3
f 16/5/2 20/5/2 19/6/2
f 14/7/4 18/7/4 17/12/4
f 23/12/4 31/12/4 29/12/4
f 24/5/6 239/5/6 240/5/6
f 20/5/5 24/5/5 23/12/5
f 17/12/4 23/12/4 21/12/4
f 22/5/5 228/5/5 227/5/5
f 21/12/3 8/21/3 7/20/3
f 8/21/4 27/21/4 26/22/4
f 26/22/6 27/21/6 28/20/6
f 3/23/2 25/23/2 28/20/2
f 29/12/6 31/12/6 32/5/6
f 27/21/4 8/21/4 21/12/4
f 22/5/2 30/5/2 32/5/2
f 24/5/5 32/5/5 31/12/5
f 28/20/6 27/21/6 29/12/6
f 8/21/5 39/26/5 36/24/5
f 7/20/2 36/24/2 37/25/2
f 4/22/4 34/54/4 39/26/4
f 38/16/6 33/55/6 40/14/6
f 10/27/1 33/55/1 38/28/1
f 39/26/3 34/1/3 37/25/3
f 42/17/1 44/4/1 43/2/1
f 44/4/6 48/21/6 47/20/6
f 48/21/5 46/7/5 45/6/5
f 41/9/2 43/23/2 47/20/2
f 47/20/2 45/6/2 76/43/2
f 47/20/2 76/43/2 74/44/2
f 67/30/2 41/9/2 47/20/2
f 47/20/2 74/44/2 66/29/2
f 46/7/4 48/21/4 44/22/4
f 44/22/4 42/46/4 68/39/4
f 44/22/4 68/39/4 65/40/4
f 75/32/4 46/7/4 44/22/4
f 44/22/4 65/40/4 73/31/4
f 41/8/3 67/38/3 68/33/3
f 12/12/6 60/12/6 57/5/6
f 5/6/3 58/6/3 59/7/3
f 6/7/4 59/7/4 60/12/4
f 11/5/2 57/5/2 58/6/2
f 59/7/5 58/6/5 57/5/5
f 61/5/1 63/6/1 62/7/1
f 66/35/3 74/41/3 73/36/3
f 67/38/1 69/38/1 72/33/1
f 69/38/3 70/35/3 71/37/3
f 66/29/2 70/29/2 69/30/2
f 68/39/4 72/39/4 71/40/4
f 65/37/5 71/37/5 70/35/5
f 79/41/3 80/45/3 77/42/3
f 76/43/2 80/43/2 79/44/2
f 76/45/3 45/6/3 46/7/3
f 74/41/1 79/41/1 78/36/1
f 73/31/4 78/31/4 77/32/4
f 75/42/5 77/42/5 80/45/5
f 89/23/4 96/23/4 94/23/4
f 84/4/6 88/21/6 87/20/6
f 85/6/3 99/6/3 100/7/3
f 86/7/3 82/34/3 81/8/3
f 87/20/4 85/6/4 81/9/4
f 84/22/2 82/46/2 86/7/2
f 91/17/5 92/4/5 89/2/5
f 82/34/3 91/34/3 90/8/3
f 84/22/2 92/22/2 91/46/2
f 90/8/3 156/8/3 154/8/3
f 94/2/6 96/2/6 95/4/6
f 83/2/1 94/2/1 93/4/1
f 84/22/2 93/22/2 95/22/2
f 92/4/5 95/4/5 96/2/5
f 97/21/1 100/7/1 99/6/1
f 87/20/5 166/20/5 165/6/5
f 86/7/2 100/7/2 97/21/2
f 87/20/4 102/20/4 104/20/4
f 101/21/6 103/21/6 104/20/6
f 88/21/5 101/21/5 102/20/5
f 98/20/1 104/20/1 103/21/1
f 97/21/2 103/21/2 101/21/2
f 113/23/4 120/23/4 118/23/4
f 111/22/6 159/22/6 160/22/6
f 123/23/2 112/23/2 109/23/2
f 108/22/2 106/46/2 137/40/2
f 115/17/5 116/4/5 113/2/5
f 106/34/3 115/34/3 114/8/3
f 108/22/2 116/22/2 115/46/2
f 114/8/3 164/8/3 162/8/3
f 118/2/6 120/2/6 119/4/6
f 107/2/1 118/2/1 117/4/1
f 108/22/2 117/22/2 119/22/2
f 116/4/5 119/4/5 120/2/5
f 121/17/1 111/4/1 123/2/1
f 109/2/6 112/2/6 125/4/6
f 126/2/6 124/4/6 151/48/6
f 124/22/4 127/46/4 149/40/4
f 152/50/2 150/29/2 128/9/2
f 111/4/1 125/4/1 112/2/1
f 127/34/3 121/34/3 122/8/3
f 124/22/4 110/22/4 125/22/4
f 134/7/6 130/34/6 129/8/6
f 135/20/4 133/6/4 129/9/4
f 132/22/2 130/46/2 134/7/2
f 131/23/3 132/22/3 136/21/3
f 135/20/5 136/21/5 134/7/5
f 145/21/3 147/21/3 148/20/3
f 129/8/1 130/46/1 132/22/1
f 126/2/5 109/2/5 110/4/5
f 140/50/4 138/29/4 105/9/4
f 128/9/2 122/9/2 123/23/2
f 108/4/6 139/48/6 140/49/6
f 128/8/3 150/29/3 149/40/3
f 154/9/4 156/9/4 155/23/4
f 81/9/1 154/9/1 153/23/1
f 83/23/6 153/23/6 155/23/6
f 89/2/5 155/2/5 156/19/5
f 160/22/4 159/22/4 158/46/4
f 121/17/1 158/17/1 159/4/1
f 127/34/3 157/34/3 158/34/3
f 124/22/5 160/22/5 157/46/5
f 162/9/4 164/9/4 163/23/4
f 105/9/1 162/9/1 161/23/1
f 107/23/6 161/23/6 163/23/6
f 113/2/5 163/2/5 164/19/5
f 166/20/4 168/20/4 167/6/4
f 99/6/1 167/6/1 168/20/1
f 98/20/6 168/20/6 166/20/6
f 85/6/3 165/6/3 167/6/3
f 172/8/3 176/8/3 174/8/3
f 169/9/1 174/9/1 173/23/1
f 170/23/6 173/23/6 175/23/6
f 171/2/5 175/2/5 176/19/5
f 170/23/2 171/2/2 172/8/2
f 176/8/4 175/2/4 173/23/4
f 180/8/3 184/8/3 182/8/3
f 177/9/1 182/9/1 181/23/1
f 178/23/6 181/23/6 183/23/6
f 179/2/5 183/2/5 184/19/5
f 184/8/4 183/2/4 181/23/4
f 178/23/2 179/2/2 180/8/2
f 188/8/3 192/8/3 190/8/3
f 185/9/1 190/9/1 189/23/1
f 186/23/6 189/23/6 191/23/6
f 187/2/5 191/2/5 192/19/5
f 196/8/3 200/8/3 198/8/3
f 193/9/1 198/9/1 197/23/1
f 194/23/6 197/23/6 199/23/6
f 195/2/5 199/2/5 200/19/5
f 200/8/4 199/2/4 197/23/4
f 194/23/2 195/2/2 196/8/2
f 204/8/3 208/8/3 206/8/3
f 201/9/1 206/9/1 205/23/1
f 202/23/6 205/23/6 207/23/6
f 203/2/5 207/2/5 208/19/5
f 212/8/3 216/8/3 214/8/3
f 209/9/1 214/9/1 213/23/1
f 210/23/6 213/23/6 215/23/6
f 211/2/5 215/2/5 216/19/5
f 216/8/4 215/2/4 213/23/4
f 210/23/2 211/2/2 212/8/2
f 220/8/3 224/8/3 222/8/3
f 217/9/1 222/9/1 221/23/1
f 218/23/6 221/23/6 223/23/6
f 219/2/5 223/2/5 224/19/5
f 225/20/2 226/20/2 227/5/2
f 30/5/6 227/5/6 226/20/6
f 28/20/1 226/20/1 225/20/1
f 7/20/3 225/20/3 228/5/3
f 230/5/5 236/5/5 235/5/5
f 232/5/6 235/5/6 234/20/6
f 231/20/1 234/20/1 233/20/1
f 229/20/3 233/20/3 236/5/3
f 238/5/2 240/5/2 239/5/2
f 16/5/3 238/5/3 237/5/3
f 20/5/5 237/5/5 239/5/5
f 22/5/1 240/5/1 238/5/1
f 244/5/6 247/5/6 248/5/6
f 241/5/3 246/5/3 245/5/3
f 242/5/5 245/5/5 247/5/5
f 243/5/1 248/5/1 246/5/1
f 250/51/4 252/56/4 251/52/4
