# Blender 4.0.2
# www.blender.org
o SecureDoorFrame
v -0.532000 0.042000 1.904000
v -0.532000 3.378000 1.904000
v -0.532000 0.042000 1.376000
v -0.532000 3.538000 1.376000
v 0.532000 0.042000 1.904000
v 0.532000 3.378000 1.904000
v 0.532000 0.042000 1.376000
v 0.532000 3.538000 1.376000
v -0.532000 0.741200 1.904000
v -0.532000 1.440400 1.904000
v -0.532000 2.139600 1.904000
v -0.532000 2.838800 1.904000
v -0.532000 2.838800 1.376000
v -0.532000 2.139600 1.136000
v -0.532000 1.440400 1.136000
v -0.532000 0.741200 1.376000
v 0.532000 2.838800 1.376000
v 0.532000 2.139600 1.136000
v 0.532000 1.440400 1.136000
v 0.532000 0.741200 1.376000
v 0.532000 2.838800 1.904000
v 0.532000 2.139600 1.904000
v 0.532000 1.440400 1.904000
v 0.532000 0.741200 1.904000
v -0.532000 3.858000 1.904000
v -0.532000 3.858000 1.296000
v 0.532000 3.858000 1.296000
v 0.532000 3.858000 1.904000
v -0.532000 3.538000 -0.064000
v 0.532000 3.538000 -0.064000
v -0.532000 3.858000 -0.064000
v 0.532000 3.858000 -0.064000
v 0.417333 0.042000 1.296000
v -0.417333 0.042000 1.296000
v -0.417333 3.378000 1.296000
v 0.417333 3.378000 1.296000
v -0.417333 0.042000 1.904000
v 0.417333 0.042000 1.904000
v 0.417333 3.378000 1.904000
v -0.417333 3.378000 1.904000
v 0.417333 0.741200 1.904000
v -0.417333 0.741200 1.904000
v 0.417333 1.440400 1.904000
v -0.417333 1.440400 1.904000
v 0.417333 2.139600 1.904000
v -0.417333 2.139600 1.904000
v 0.417333 2.838800 1.904000
v -0.417333 2.838800 1.904000
v -0.417333 0.741200 1.296000
v 0.417333 0.741200 1.296000
v -0.417333 1.440400 1.056000
v 0.417333 1.440400 1.056000
v -0.417333 2.139600 1.056000
v 0.417333 2.139600 1.056000
v -0.417333 2.838800 1.296000
v 0.417333 2.838800 1.296000
v -0.417333 3.858000 1.296000
v 0.417333 3.858000 1.296000
v 0.417333 3.858000 1.904000
v -0.417333 3.858000 1.904000
v -0.417333 3.378000 -0.064000
v 0.417333 3.378000 -0.064000
v -0.417333 3.858000 -0.064000
v 0.417333 3.858000 -0.064000
v -0.532000 0.042000 -1.904000
v -0.532000 3.378000 -1.904000
v -0.532000 0.042000 -1.376000
v -0.532000 3.538000 -1.376000
v 0.532000 0.042000 -1.904000
v 0.532000 3.378000 -1.904000
v 0.532000 0.042000 -1.376000
v 0.532000 3.538000 -1.376000
v -0.532000 0.741200 -1.904000
v -0.532000 1.440400 -1.904000
v -0.532000 2.139600 -1.904000
v -0.532000 2.838800 -1.904000
v -0.532000 2.838800 -1.376000
v -0.532000 2.139600 -1.136000
v -0.532000 1.440400 -1.136000
v -0.532000 0.741200 -1.376000
v 0.532000 2.838800 -1.376000
v 0.532000 2.139600 -1.136000
v 0.532000 1.440400 -1.136000
v 0.532000 0.741200 -1.376000
v 0.532000 2.838800 -1.904000
v 0.532000 2.139600 -1.904000
v 0.532000 1.440400 -1.904000
v 0.532000 0.741200 -1.904000
v -0.532000 3.858000 -1.904000
v -0.532000 3.858000 -1.296000
v 0.532000 3.858000 -1.296000
v 0.532000 3.858000 -1.904000
v -0.532000 3.538000 0.064000
v 0.532000 3.538000 0.064000
v -0.532000 3.858000 0.064000
v 0.532000 3.858000 0.064000
v 0.417333 0.042000 -1.296000
v -0.417333 0.042000 -1.296000
v -0.417333 3.378000 -1.296000
v 0.417333 3.378000 -1.296000
v -0.417333 0.042000 -1.904000
v 0.417333 0.042000 -1.904000
v 0.417333 3.378000 -1.904000
v -0.417333 3.378000 -1.904000
v 0.417333 0.741200 -1.904000
v -0.417333 0.741200 -1.904000
v 0.417333 1.440400 -1.904000
v -0.417333 1.440400 -1.904000
v 0.417333 2.139600 -1.904000
v -0.417333 2.139600 -1.904000
v 0.417333 2.838800 -1.904000
v -0.417333 2.838800 -1.904000
v -0.417333 0.741200 -1.296000
v 0.417333 0.741200 -1.296000
v -0.417333 1.440400 -1.056000
v 0.417333 1.440400 -1.056000
v -0.417333 2.139600 -1.056000
v 0.417333 2.139600 -1.056000
v -0.417333 2.838800 -1.296000
v 0.417333 2.838800 -1.296000
v -0.417333 3.858000 -1.296000
v 0.417333 3.858000 -1.296000
v 0.417333 3.858000 -1.904000
v -0.417333 3.858000 -1.904000
v -0.417333 3.378000 0.064000
v 0.417333 3.378000 0.064000
v -0.417333 3.858000 0.064000
v 0.417333 3.858000 0.064000
vn -1.0000 -0.0000 -0.0000
vn 0.5722 -0.0000 -0.8201
vn 1.0000 -0.0000 -0.0000
vn -0.0000 -0.0000 1.0000
vn -0.0000 -1.0000 -0.0000
vn 0.5508 -0.2710 -0.7894
vn 0.5508 0.2710 -0.7894
vn -0.0000 1.0000 -0.0000
vn -0.0000 -0.0000 -1.0000
vn -0.8128 -0.5825 -0.0000
vn 0.8128 -0.5825 -0.0000
vn -0.5508 0.2710 -0.7894
vn -0.0000 0.3247 -0.9458
vn -0.5722 -0.0000 -0.8201
vn -0.5508 -0.2710 -0.7894
vn -0.0000 -0.3247 -0.9458
vn 0.5722 -0.0000 0.8201
vn 0.5508 -0.2710 0.7894
vn 0.5508 0.2710 0.7894
vn -0.5508 0.2710 0.7894
vn -0.0000 0.3247 0.9458
vn -0.5722 -0.0000 0.8201
vn -0.5508 -0.2710 0.7894
vn -0.0000 -0.3247 0.9458
vt 0.575000 0.000000
vt 0.625000 0.000000
vt 0.625000 0.250000
vt 0.575000 0.250000
vt 0.575000 0.416667
vt 0.625000 0.416667
vt 0.625000 0.500000
vt 0.575000 0.500000
vt 0.625000 0.750000
vt 0.575000 0.750000
vt 0.575000 0.916667
vt 0.625000 0.916667
vt 0.625000 1.000000
vt 0.575000 1.000000
vt 0.291667 0.500000
vt 0.375000 0.500000
vt 0.375000 0.750000
vt 0.291667 0.750000
vt 0.375000 0.916667
vt 0.425000 0.916667
vt 0.425000 1.000000
vt 0.375000 1.000000
vt 0.475000 0.916667
vt 0.475000 1.000000
vt 0.525000 0.916667
vt 0.525000 1.000000
vt 0.425000 0.500000
vt 0.425000 0.750000
vt 0.475000 0.500000
vt 0.475000 0.750000
vt 0.525000 0.500000
vt 0.525000 0.750000
vt 0.375000 0.416667
vt 0.425000 0.416667
vt 0.475000 0.416667
vt 0.525000 0.416667
vt 0.375000 0.000000
vt 0.425000 0.000000
vt 0.425000 0.250000
vt 0.375000 0.250000
vt 0.475000 0.000000
vt 0.475000 0.250000
vt 0.525000 0.000000
vt 0.525000 0.250000
vt 0.791667 0.500000
vt 0.875000 0.500000
vt 0.875000 0.750000
vt 0.791667 0.750000
vt 0.625000 0.833333
vt 0.625000 0.333333
vt 0.708333 0.500000
vt 0.708333 0.750000
vt 0.575000 0.333333
vt 0.525000 0.333333
vt 0.475000 0.333333
vt 0.425000 0.333333
vt 0.375000 0.333333
vt 0.575000 0.833333
vt 0.525000 0.833333
vt 0.475000 0.833333
vt 0.425000 0.833333
vt 0.375000 0.833333
vt 0.125000 0.500000
vt 0.208333 0.500000
vt 0.208333 0.750000
vt 0.125000 0.750000
s 0
f 12/1/1 2/2/1 4/3/1 13/4/1
f 56/5/2 36/6/2 8/7/2 17/8/2
f 17/8/3 8/7/3 6/9/3 21/10/3
f 48/11/4 40/12/4 2/13/4 12/14/4
f 33/15/5 7/16/5 5/17/5 38/18/5
f 6/9/3 8/7/3 27/7/3 28/9/3
f 37/19/4 42/20/4 9/21/4 1/22/4
f 42/20/4 44/23/4 10/24/4 9/21/4
f 44/23/4 46/25/4 11/26/4 10/24/4
f 46/25/4 48/11/4 12/14/4 11/26/4
f 7/16/3 20/27/3 24/28/3 5/17/3
f 20/27/3 19/29/3 23/30/3 24/28/3
f 19/29/3 18/31/3 22/32/3 23/30/3
f 18/31/3 17/8/3 21/10/3 22/32/3
f 33/33/2 50/34/2 20/27/2 7/16/2
f 50/34/6 52/35/6 19/29/6 20/27/6
f 52/35/2 54/36/2 18/31/2 19/29/2
f 54/36/7 56/5/7 17/8/7 18/31/7
f 1/37/1 9/38/1 16/39/1 3/40/1
f 9/38/1 10/41/1 15/42/1 16/39/1
f 10/41/1 11/43/1 14/44/1 15/42/1
f 11/43/1 12/1/1 13/4/1 14/44/1
f 57/45/8 26/46/8 25/47/8 60/48/8
f 4/3/1 2/2/1 25/2/1 26/3/1
f 39/49/4 6/9/4 28/9/4 59/49/4
f 4/3/1 26/3/1 31/3/1 29/3/1
f 61/50/9 29/3/9 31/3/9 63/50/9
f 35/50/10 4/3/10 29/3/10 61/50/10
f 58/51/8 27/7/8 32/7/8 64/51/8
f 27/7/3 8/7/3 30/7/3 32/7/3
f 26/46/8 57/45/8 63/45/8 31/46/8
f 57/45/8 58/51/8 64/51/8 63/45/8
f 8/7/11 36/6/11 62/6/11 30/7/11
f 36/6/5 35/50/5 61/50/5 62/6/5
f 30/7/9 62/6/9 64/6/9 32/7/9
f 62/6/9 61/50/9 63/50/9 64/6/9
f 2/13/4 40/12/4 60/12/4 25/13/4
f 40/12/4 39/49/4 59/49/4 60/12/4
f 27/7/8 58/51/8 59/52/8 28/9/8
f 58/51/8 57/45/8 60/48/8 59/52/8
f 14/44/12 13/4/12 55/53/12 53/54/12
f 53/54/13 55/53/13 56/5/13 54/36/13
f 15/42/14 14/44/14 53/54/14 51/55/14
f 51/55/9 53/54/9 54/36/9 52/35/9
f 16/39/15 15/42/15 51/55/15 49/56/15
f 49/56/16 51/55/16 52/35/16 50/34/16
f 3/40/14 16/39/14 49/56/14 34/57/14
f 34/57/9 49/56/9 50/34/9 33/33/9
f 22/32/4 21/10/4 47/58/4 45/59/4
f 45/59/4 47/58/4 48/11/4 46/25/4
f 23/30/4 22/32/4 45/59/4 43/60/4
f 43/60/4 45/59/4 46/25/4 44/23/4
f 24/28/4 23/30/4 43/60/4 41/61/4
f 41/61/4 43/60/4 44/23/4 42/20/4
f 5/17/4 24/28/4 41/61/4 38/62/4
f 38/62/4 41/61/4 42/20/4 37/19/4
f 3/63/5 34/64/5 37/65/5 1/66/5
f 34/64/5 33/15/5 38/18/5 37/65/5
f 21/10/4 6/9/4 39/49/4 47/58/4
f 47/58/4 39/49/4 40/12/4 48/11/4
f 13/4/14 4/3/14 35/50/14 55/53/14
f 55/53/9 35/50/9 36/6/9 56/5/9
f 76/1/1 77/4/1 68/3/1 66/2/1
f 120/5/17 81/8/17 72/7/17 100/6/17
f 81/8/3 85/10/3 70/9/3 72/7/3
f 112/11/9 76/14/9 66/13/9 104/12/9
f 97/15/5 102/18/5 69/17/5 71/16/5
f 70/9/3 92/9/3 91/7/3 72/7/3
f 101/19/9 65/22/9 73/21/9 106/20/9
f 106/20/9 73/21/9 74/24/9 108/23/9
f 108/23/9 74/24/9 75/26/9 110/25/9
f 110/25/9 75/26/9 76/14/9 112/11/9
f 71/16/3 69/17/3 88/28/3 84/27/3
f 84/27/3 88/28/3 87/30/3 83/29/3
f 83/29/3 87/30/3 86/32/3 82/31/3
f 82/31/3 86/32/3 85/10/3 81/8/3
f 97/33/17 71/16/17 84/27/17 114/34/17
f 114/34/18 84/27/18 83/29/18 116/35/18
f 116/35/17 83/29/17 82/31/17 118/36/17
f 118/36/19 82/31/19 81/8/19 120/5/19
f 65/37/1 67/40/1 80/39/1 73/38/1
f 73/38/1 80/39/1 79/42/1 74/41/1
f 74/41/1 79/42/1 78/44/1 75/43/1
f 75/43/1 78/44/1 77/4/1 76/1/1
f 121/45/8 124/48/8 89/47/8 90/46/8
f 68/3/1 90/3/1 89/2/1 66/2/1
f 103/49/9 123/49/9 92/9/9 70/9/9
f 68/3/1 93/3/1 95/3/1 90/3/1
f 125/50/4 127/50/4 95/3/4 93/3/4
f 99/50/10 125/50/10 93/3/10 68/3/10
f 122/51/8 128/51/8 96/7/8 91/7/8
f 91/7/3 96/7/3 94/7/3 72/7/3
f 90/46/8 95/46/8 127/45/8 121/45/8
f 121/45/8 127/45/8 128/51/8 122/51/8
f 72/7/11 94/7/11 126/6/11 100/6/11
f 100/6/5 126/6/5 125/50/5 99/50/5
f 94/7/4 96/7/4 128/6/4 126/6/4
f 126/6/4 128/6/4 127/50/4 125/50/4
f 66/13/9 89/13/9 124/12/9 104/12/9
f 104/12/9 124/12/9 123/49/9 103/49/9
f 91/7/8 92/9/8 123/52/8 122/51/8
f 122/51/8 123/52/8 124/48/8 121/45/8
f 78/44/20 117/54/20 119/53/20 77/4/20
f 117/54/21 118/36/21 120/5/21 119/53/21
f 79/42/22 115/55/22 117/54/22 78/44/22
f 115/55/4 116/35/4 118/36/4 117/54/4
f 80/39/23 113/56/23 115/55/23 79/42/23
f 113/56/24 114/34/24 116/35/24 115/55/24
f 67/40/22 98/57/22 113/56/22 80/39/22
f 98/57/4 97/33/4 114/34/4 113/56/4
f 86/32/9 109/59/9 111/58/9 85/10/9
f 109/59/9 110/25/9 112/11/9 111/58/9
f 87/30/9 107/60/9 109/59/9 86/32/9
f 107/60/9 108/23/9 110/25/9 109/59/9
f 88/28/9 105/61/9 107/60/9 87/30/9
f 105/61/9 106/20/9 108/23/9 107/60/9
f 69/17/9 102/62/9 105/61/9 88/28/9
f 102/62/9 101/19/9 106/20/9 105/61/9
f 67/63/5 65/66/5 101/65/5 98/64/5
f 98/64/5 101/65/5 102/18/5 97/15/5
f 85/10/9 111/58/9 103/49/9 70/9/9
f 111/58/9 112/11/9 104/12/9 103/49/9
f 77/4/22 119/53/22 99/50/22 68/3/22
f 119/53/4 120/5/4 100/6/4 99/50/4
