# Blender v3.5.0 OBJ File: ''
# www.blender.org
mtllib Glubschi 07.mtl
v -0.042797 1.172983 0.109870
v 0.003060 1.130301 0.107354
v -0.020124 1.172224 0.111428
v 0.025265 1.170674 0.114534
v 0.003060 1.130301 0.107354
v 0.047919 1.169892 0.116088
v -0.042117 1.228627 0.105800
v -0.087474 1.230133 0.102136
v 0.048704 1.225538 0.113160
v 0.093938 1.223907 0.116930
v -0.053373 1.296893 0.096378
v -0.116840 1.300534 0.093934
v 0.135206 1.291596 0.112105
v 0.063861 1.293036 0.106915
v -0.042003 1.356695 0.049888
v -0.137087 1.356939 0.051579
v 0.161004 1.351804 0.066262
v 0.065268 1.353189 0.059511
v -0.010983 1.397689 -0.020776
v -0.107896 1.401714 -0.017341
v 0.129065 1.394700 -0.005649
v 0.050813 1.396002 -0.014595
v -0.002961 1.401424 -0.071471
v -0.031559 1.401482 -0.061529
v 0.023339 1.399424 -0.049753
v 0.024308 1.400533 -0.068935
v 0.051517 1.399680 -0.066380
v 0.077205 1.397987 -0.051598
v -0.020124 1.172224 0.111428
v 0.003060 1.130301 0.107354
v 0.005144 1.119384 0.065492
v -0.017496 1.161922 0.069650
v 0.025265 1.170674 0.114534
v 0.048704 1.225538 0.113160
v 0.052101 1.216043 0.070986
v 0.028258 1.160764 0.072588
v -0.053373 1.296893 0.096378
v -0.042117 1.228627 0.105800
v -0.038799 1.219087 0.063975
v -0.049896 1.287493 0.054251
v 0.048704 1.225538 0.113160
v 0.063861 1.293036 0.106915
v 0.067338 1.283636 0.064788
v 0.052101 1.216043 0.070986
v -0.042003 1.356695 0.049888
v -0.053373 1.296893 0.096378
v -0.049896 1.287493 0.054251
v -0.038760 1.347321 0.007727
v 0.063861 1.293036 0.106915
v 0.065268 1.353189 0.059511
v 0.068687 1.343818 0.017413
v 0.067338 1.283636 0.064788
v -0.010983 1.397689 -0.020776
v -0.042003 1.356695 0.049888
v -0.038760 1.347321 0.007727
v -0.011121 1.385419 -0.024464
v 0.023339 1.399424 -0.049753
v -0.010983 1.397689 -0.020776
v -0.011121 1.385419 -0.024464
v 0.022315 1.386750 -0.053115
v 0.050813 1.396002 -0.014595
v 0.023339 1.399424 -0.049753
v 0.022315 1.386750 -0.053115
v 0.050626 1.383613 -0.018351
v 0.065268 1.353189 0.059511
v 0.050813 1.396002 -0.014595
v 0.050626 1.383613 -0.018351
v 0.068687 1.343818 0.017413
v -0.042117 1.228627 0.105800
v -0.020124 1.172224 0.111428
v -0.017496 1.161922 0.069650
v -0.038799 1.219087 0.063975
v 0.003060 1.130301 0.107354
v 0.025265 1.170674 0.114534
v 0.028258 1.160764 0.072588
v 0.005144 1.119384 0.065492
vt 0.250000 0.900000
vt 0.125000 1.000000
vt 0.125000 1.000000
vt 0.250000 0.900000
vt 0.750000 0.900000
vt 0.750000 0.800000
vt 0.750000 0.800000
vt 0.250000 0.600000
vt 0.250000 0.800000
vt 0.250000 0.800000
vt 0.250000 0.600000
vt 0.750000 0.800000
vt 0.750000 0.600000
vt 0.750000 0.600000
vt 0.750000 0.800000
vt 0.250000 0.400000
vt 0.250000 0.600000
vt 0.250000 0.600000
vt 0.250000 0.400000
vt 0.750000 0.600000
vt 0.750000 0.400000
vt 0.750000 0.400000
vt 0.750000 0.600000
vt 0.500000 0.200000
vt 0.250000 0.200000
vt 0.250000 0.200000
vt 0.500000 0.200000
vt 0.750000 0.200000
vt 0.500000 0.200000
vt 0.500000 0.200000
vt 0.750000 0.200000
vt 0.250000 0.800000
vt 0.250000 0.900000
vt 0.250000 0.900000
vt 0.250000 0.800000
vt 0.875000 1.000000
vt 0.750000 0.900000
vt 0.750000 0.900000
vt 0.875000 1.000000
vt 0.000000 0.900000
vt 0.125000 1.000000
vt 0.250000 0.900000
vt 0.750000 0.900000
vt 0.875000 1.000000
vt 1.000000 0.900000
vt 0.250000 0.800000
vt 0.000000 0.800000
vt 0.750000 0.800000
vt 1.000000 0.800000
vt 0.250000 0.600000
vt 0.000000 0.600000
vt 1.000000 0.600000
vt 0.750000 0.600000
vt 0.250000 0.400000
vt 0.000000 0.400000
vt 1.000000 0.400000
vt 0.750000 0.400000
vt 0.250000 0.200000
vt 0.000000 0.200000
vt 1.000000 0.200000
vt 0.750000 0.200000
vt 0.250000 0.000000
vt 0.000000 0.000000
vt 0.500000 0.200000
vt 0.500000 0.000000
vt 0.750000 0.000000
vt 1.000000 0.000000
vt 0.750000 0.900000
vt 0.250000 0.200000
vt 0.250000 0.400000
vt 0.250000 0.400000
vt 0.250000 0.200000
vt 0.750000 0.400000
vt 0.750000 0.200000
vt 0.750000 0.200000
vt 0.750000 0.400000
vn 0.8685 0.4885 -0.0841
vn 0.8786 0.4736 -0.0615
vn -0.9092 0.3844 -0.1598
vn 0.9850 0.1679 0.0398
vn 0.9851 0.1661 0.0442
vn -0.9703 0.2062 -0.1261
vn -0.9703 0.2073 -0.1248
vn 0.9888 -0.1061 0.1053
vn 0.9893 -0.1066 0.0998
vn -0.9967 -0.0344 -0.0733
vn -0.9966 -0.0361 -0.0742
vn 0.6347 -0.2290 0.7380
vn 0.6364 -0.2454 0.7313
vn -0.7888 -0.0973 0.6069
vn -0.7712 -0.1740 0.6123
vn 0.9323 0.3605 -0.0303
vn 0.9372 0.3487 -0.0052
vn -0.8484 0.4984 -0.1783
vn -0.8469 0.5028 -0.1733
vn -0.0705 0.0230 0.9972
vn -0.0724 -0.1361 0.9880
vn -0.0705 -0.0617 0.9956
vn -0.0706 -0.0660 0.9953
vn -0.0725 -0.1358 0.9881
vn -0.0716 0.0057 0.9974
vn -0.0757 0.0943 0.9927
vn -0.0634 0.1023 0.9927
vn -0.0764 0.0784 0.9940
vn -0.0791 0.0987 0.9920
vn -0.0235 0.3649 0.9308
vn -0.0052 0.4374 0.8993
vn -0.0570 0.4490 0.8917
vn -0.0607 0.3656 0.9288
vn 0.0147 0.7659 0.6428
vn 0.0250 0.7318 0.6811
vn -0.0395 0.7417 0.6696
vn -0.0400 0.7603 0.6483
vn 0.0356 0.9721 0.2319
vn 0.0458 0.8856 0.4622
vn -0.0241 0.9084 0.4174
vn 0.0004 0.9729 0.2311
vn 0.0316 0.9967 0.0749
vn -0.0018 1.0000 -0.0090
vn 0.0123 0.9981 0.0603
vn 0.0196 0.9978 0.0634
vn 0.0281 0.9973 0.0684
vn 0.0175 0.9977 0.0660
vn -0.9086 0.3874 -0.1563
vn 0.9012 -0.3618 0.2387
vn 0.9011 -0.3664 0.2320
vn 0.9012 -0.3661 0.2321
vn 0.9013 -0.3604 0.2405
vn -0.9557 -0.2863 0.0679
vn -0.9558 -0.2855 0.0707
vn -0.9560 -0.2850 0.0691
vn -0.9555 -0.2870 0.0675
usemtl Material_29
s off
f 29/1/1 30/2/1 31/3/1
f 29/1/2 31/3/2 32/4/2
f 33/5/3 34/6/3 35/7/3
f 37/8/4 38/9/4 39/10/4
f 37/8/5 39/10/5 40/11/5
f 41/12/6 42/13/6 43/14/6
f 41/12/7 43/14/7 44/15/7
f 45/16/8 46/17/8 47/18/8
f 45/16/9 47/18/9 48/19/9
f 49/20/10 50/21/10 51/22/10
f 49/20/11 51/22/11 52/23/11
f 57/24/12 58/25/12 59/26/12
f 57/24/13 59/26/13 60/27/13
f 61/28/14 62/29/14 63/30/14
f 61/28/15 63/30/15 64/31/15
f 69/32/16 70/33/16 71/34/16
f 69/32/17 71/34/17 72/35/17
f 73/36/18 74/37/18 75/38/18
f 73/36/19 75/38/19 76/39/19
s 1
f 1/40/20 2/41/21 3/42/22
f 4/43/23 5/44/24 6/45/25
f 1/40/20 3/42/22 7/46/26
f 1/40/20 7/46/26 8/47/27
f 9/48/28 4/43/23 6/45/25
f 9/48/28 6/45/25 10/49/29
f 8/47/27 7/46/26 11/50/30
f 8/47/27 11/50/30 12/51/31
f 9/48/28 10/49/29 13/52/32
f 9/48/28 13/52/32 14/53/33
f 12/51/31 11/50/30 15/54/34
f 12/51/31 15/54/34 16/55/35
f 14/53/33 13/52/32 17/56/36
f 14/53/33 17/56/36 18/57/37
f 16/55/35 15/54/34 19/58/38
f 16/55/35 19/58/38 20/59/39
f 18/57/37 17/56/36 21/60/40
f 18/57/37 21/60/40 22/61/41
f 20/59/39 19/58/38 23/62/42
f 20/59/39 23/62/42 24/63/43
f 19/58/38 25/64/44 26/65/45
f 19/58/38 26/65/45 23/62/42
f 25/64/44 22/61/41 27/66/46
f 25/64/44 27/66/46 26/65/45
f 22/61/41 21/60/40 28/67/47
f 22/61/41 28/67/47 27/66/46
f 33/5/48 35/7/48 36/68/48
f 53/69/49 54/70/50 55/71/51
f 53/69/49 55/71/51 56/72/52
f 65/73/53 66/74/54 67/75/55
f 65/73/53 67/75/55 68/76/56
