# Blender v3.5.0 OBJ File: 'graveyard Sketchfab3.blend'
# www.blender.org
mtllib Graveyard Grabstein 01.mtl
v -8.382399 0.596125 -28.469484
v -8.381664 0.584153 -28.481558
v -8.368645 0.594906 -28.479435
v -9.996266 0.762627 -28.732681
v -10.006147 0.763846 -28.746485
v -9.995532 0.750654 -28.744755
v -8.287745 0.596125 -29.049881
v -8.277865 0.594906 -29.036076
v -8.290885 0.584153 -29.038200
v -9.915368 0.763846 -29.303127
v -9.901613 0.762627 -29.313076
v -9.904753 0.750654 -29.301395
v -8.343031 0.849775 -28.475258
v -8.356785 0.850994 -28.465307
v -8.356049 0.839021 -28.477381
v -8.354465 0.736003 -28.477123
v -8.365076 0.749195 -28.478853
v -8.368218 0.737222 -28.467173
v -9.991967 0.904943 -28.744173
v -9.982086 0.903724 -28.730368
v -9.978949 0.915697 -28.742050
v -9.969921 1.005523 -28.740578
v -9.970653 1.017496 -28.728504
v -9.980534 1.018715 -28.742308
v -9.887433 0.903724 -29.310764
v -9.901188 0.904943 -29.300814
v -9.888169 0.915697 -29.298691
v -9.879142 1.005524 -29.297218
v -9.889754 1.018715 -29.298950
v -9.875999 1.017496 -29.308899
v -8.263685 0.736003 -29.033764
v -8.273565 0.737222 -29.047569
v -8.274297 0.749195 -29.035494
v -8.252252 0.849775 -29.031898
v -8.265269 0.839022 -29.034021
v -8.262132 0.850994 -29.045704
v -8.306748 0.764322 -29.021427
v -8.296869 0.763103 -29.007622
v -8.282382 0.749911 -29.029646
v -8.300128 0.830204 -29.020346
v -8.273355 0.839738 -29.028173
v -8.290248 0.828985 -29.006542
v -8.371002 0.828985 -28.511374
v -8.361857 0.839738 -28.485495
v -8.384756 0.830204 -28.501423
v -8.391376 0.764322 -28.502502
v -8.370884 0.749911 -28.486967
v -8.377623 0.763103 -28.512453
v -9.873218 0.925734 -29.264698
v -9.859464 0.924514 -29.274649
v -9.882362 0.914980 -29.290577
v -9.866596 0.991615 -29.263618
v -9.873335 1.004807 -29.289104
v -9.852842 0.990396 -29.273569
v -9.944092 0.924514 -28.755726
v -9.953971 0.925733 -28.769531
v -9.970864 0.914980 -28.747898
v -9.937470 0.990396 -28.754646
v -9.961837 1.004807 -28.746426
v -9.947351 0.991615 -28.768450
v -8.241627 1.055026 -29.042360
v -8.214851 1.064560 -29.050186
v -8.231747 1.053807 -29.028555
v -8.336280 1.055026 -28.461964
v -8.322526 1.053807 -28.471914
v -8.313379 1.064560 -28.446035
v -9.960030 1.222747 -28.738964
v -9.950150 1.221528 -28.725159
v -9.974516 1.235938 -28.716940
v -9.855496 1.221528 -29.305555
v -9.869250 1.222747 -29.295605
v -9.875988 1.235939 -29.321091
v -8.285263 1.152190 -28.403355
v -8.271509 1.150971 -28.413305
v -8.282123 1.164163 -28.415037
v -9.993463 1.340721 -28.694128
v -10.006481 1.329967 -28.696251
v -9.996601 1.328748 -28.682447
v -9.886705 1.340721 -29.348742
v -9.885971 1.328748 -29.360815
v -9.899725 1.329967 -29.350864
v -8.174632 1.152191 -29.081722
v -8.175366 1.164163 -29.069649
v -8.164753 1.150971 -29.067919
v -8.182496 1.073943 -29.083006
v -8.172616 1.072724 -29.069201
v -8.185637 1.061971 -29.071323
v -8.293127 1.073943 -28.404638
v -8.292393 1.061970 -28.416712
v -8.279373 1.072724 -28.414589
v -10.014345 1.251720 -28.697535
v -10.003733 1.238528 -28.695803
v -10.004465 1.250501 -28.683729
v -9.893834 1.250501 -29.362097
v -9.896976 1.238528 -29.350416
v -9.907588 1.251720 -29.352146
v -8.671696 1.029919 -28.648142
v -8.658676 1.040673 -28.646019
v -8.673641 1.042017 -28.636267
v -9.585265 1.124171 -28.797131
v -9.584787 1.136019 -28.784861
v -9.595879 1.137363 -28.798862
v -8.618815 1.029919 -28.972397
v -8.616887 1.042017 -28.984276
v -8.605795 1.040673 -28.970274
v -9.532385 1.124171 -29.121386
v -9.542998 1.137363 -29.123116
v -9.528032 1.136019 -29.132870
v -8.544267 2.179107 -28.627361
v -8.491386 2.179107 -28.951614
v -8.961958 2.840520 -29.028358
v -9.014838 2.840520 -28.704103
v -8.888983 2.827536 -28.683578
v -8.836102 2.827536 -29.007833
v -9.428590 2.275797 -29.104458
v -9.481470 2.275797 -28.780203
v -8.982324 2.833383 -29.031679
v -9.035204 2.833384 -28.707424
v -8.870455 2.816386 -28.680557
v -8.817574 2.816387 -29.004810
v -8.883601 2.814684 -28.670507
v -9.026500 2.829427 -28.693811
v -8.502527 2.180456 -28.965626
v -9.413575 2.274448 -29.114202
v -8.612949 2.498281 -28.983633
v -9.242198 2.563200 -29.086254
v -8.969745 2.829427 -29.041821
v -8.826846 2.814684 -29.018517
v -8.559282 2.180456 -28.617617
v -8.654571 2.496919 -28.645350
v -8.669704 2.498281 -28.635624
v -9.470329 2.274448 -28.766193
v -9.310213 2.564561 -28.752274
v -9.298952 2.563200 -28.738245
v -9.257333 2.564561 -29.076529
v -8.601690 2.496919 -28.969604
v -9.855840 1.336912 -29.305613
v -8.218337 1.167972 -29.038561
v -9.950493 1.336912 -28.725216
v -8.312990 1.167972 -28.458166
vt 0.889160 0.393066
vt 0.887695 0.393066
vt 0.887695 0.391602
vt 0.889160 0.573730
vt 0.887695 0.575195
vt 0.887695 0.573730
vt 0.470947 0.730469
vt 0.470947 0.731934
vt 0.469727 0.730469
vt 0.470947 0.546387
vt 0.470947 0.547607
vt 0.469727 0.547607
vt 0.932617 0.137695
vt 0.932617 0.139160
vt 0.931152 0.139160
vt 0.769531 0.982742
vt 0.770996 0.982742
vt 0.769531 0.984085
vt 0.983398 0.714600
vt 0.983398 0.713379
vt 0.984863 0.714600
vt 0.931152 0.321289
vt 0.932617 0.321289
vt 0.932617 0.322754
vt 0.983398 0.778442
vt 0.983398 0.777100
vt 0.984863 0.777100
vt 0.564453 0.592773
vt 0.565918 0.591553
vt 0.565918 0.592773
vt 0.769531 0.920227
vt 0.769531 0.918945
vt 0.770996 0.920227
vt 0.565918 0.776123
vt 0.564453 0.774780
vt 0.565918 0.774780
vt 0.071899 0.682861
vt 0.070374 0.681396
vt 0.073364 0.679688
vt 0.606445 0.396973
vt 0.604980 0.394043
vt 0.607910 0.395508
vt 0.670898 0.395508
vt 0.673828 0.394043
vt 0.672363 0.396973
vt 0.006573 0.682861
vt 0.005077 0.679688
vt 0.008064 0.681396
vt 0.070374 0.880737
vt 0.071899 0.879211
vt 0.073364 0.882202
vt 0.607910 0.596924
vt 0.604980 0.598389
vt 0.606445 0.595459
vt 0.006573 0.879211
vt 0.008064 0.880737
vt 0.005077 0.882202
vt 0.672363 0.595459
vt 0.673828 0.598389
vt 0.670898 0.596924
vt 0.671875 0.799927
vt 0.673340 0.802612
vt 0.670410 0.801270
vt 0.604980 0.799927
vt 0.606445 0.801270
vt 0.603516 0.802612
vt 0.606445 0.611816
vt 0.604980 0.613281
vt 0.603516 0.610352
vt 0.671875 0.613281
vt 0.670410 0.611816
vt 0.673340 0.610352
vt 0.992188 0.657471
vt 0.991699 0.656006
vt 0.993164 0.656006
vt 0.995117 0.270508
vt 0.993652 0.270508
vt 0.993652 0.269531
vt 0.995117 0.344727
vt 0.993652 0.346191
vt 0.993652 0.344727
vt 0.992188 0.580566
vt 0.993164 0.581787
vt 0.991699 0.581787
vt 0.476562 0.938263
vt 0.476562 0.939636
vt 0.475098 0.938263
vt 0.937988 0.374023
vt 0.936523 0.374023
vt 0.937988 0.372559
vt 0.937988 0.575195
vt 0.936523 0.573730
vt 0.937988 0.573730
vt 0.476562 0.738525
vt 0.475098 0.738525
vt 0.476562 0.737305
vt 0.595703 0.391602
vt 0.597168 0.393066
vt 0.595703 0.393066
vt 0.493652 0.391602
vt 0.493652 0.393066
vt 0.492188 0.393066
vt 0.489990 0.189941
vt 0.490234 0.191406
vt 0.488770 0.191406
vt 0.592285 0.189941
vt 0.593750 0.191406
vt 0.592285 0.191406
vt 0.825684 0.393066
vt 0.825684 0.573730
vt 0.174561 0.860229
vt 0.158936 0.680176
vt 0.174561 0.680176
vt 0.158936 0.860229
vt 0.813477 0.980560
vt 0.791016 0.918945
vt 0.813477 0.918945
vt 0.791016 0.980560
vt 0.967773 0.714600
vt 0.967773 0.777100
vt 0.753906 0.920227
vt 0.753906 0.982742
vt 0.486816 0.730469
vt 0.486816 0.547607
vt 0.922852 0.003906
vt 0.922852 0.106934
vt 0.886230 0.003906
vt 0.886230 0.106934
vt 0.982910 0.581787
vt 0.982910 0.656006
vt 0.955078 0.321289
vt 0.955078 0.139160
vt 0.174683 0.392090
vt 0.174683 0.565430
vt 0.167358 0.565430
vt 0.167358 0.392090
vt 0.783691 0.921631
vt 0.776367 0.977921
vt 0.776367 0.921631
vt 0.783691 0.977921
vt 0.878906 0.925232
vt 0.878906 0.981552
vt 0.871582 0.981552
vt 0.871582 0.925232
vt 0.588379 0.774780
vt 0.588379 0.592773
vt 0.407959 0.968948
vt 0.385498 0.907288
vt 0.407959 0.907288
vt 0.385498 0.968948
vt 0.324219 0.728271
vt 0.331543 0.555176
vt 0.331543 0.728271
vt 0.324219 0.555176
vt 0.485352 0.938263
vt 0.485352 0.738525
vt 0.984863 0.270508
vt 0.984863 0.344727
vt 0.947266 0.573730
vt 0.947266 0.374023
vt 0.894531 0.504639
vt 0.931152 0.376465
vt 0.931152 0.504639
vt 0.894531 0.376465
vt 0.114868 0.944946
vt 0.114868 0.981659
vt 0.100525 0.981659
vt 0.100525 0.944946
vt 0.925781 0.207031
vt 0.889160 0.334961
vt 0.889160 0.207031
vt 0.925781 0.334961
vt 0.825684 0.575195
vt 0.825684 0.391602
vt 0.604004 0.391602
vt 0.674805 0.391602
vt 0.674805 0.393066
vt 0.604004 0.393066
vt 0.602539 0.599365
vt 0.602539 0.393066
vt 0.604004 0.599365
vt 0.074280 0.883118
vt 0.075745 0.678955
vt 0.075745 0.883118
vt 0.074280 0.678955
vt 0.674805 0.600830
vt 0.604004 0.600830
vt 0.674805 0.599365
vt 0.676270 0.393066
vt 0.676270 0.599365
vt 0.004200 0.678955
vt 0.004200 0.883118
vt 0.002705 0.883118
vt 0.002705 0.678955
vt 0.955078 0.137695
vt 0.158936 0.678955
vt 0.174561 0.678955
vt 0.174561 0.861572
vt 0.158936 0.861572
vt 0.955078 0.322754
vt 0.486816 0.731934
vt 0.486816 0.546387
vt 0.588379 0.591553
vt 0.331543 0.729736
vt 0.324219 0.729736
vt 0.167358 0.391113
vt 0.174683 0.391113
vt 0.785156 0.980621
vt 0.785156 0.918945
vt 0.324219 0.553955
vt 0.331543 0.553955
vt 0.174683 0.566650
vt 0.167358 0.566650
vt 0.870117 0.984253
vt 0.870117 0.922546
vt 0.588379 0.776123
vt 0.956543 0.323730
vt 0.956543 0.136719
vt 0.589844 0.590088
vt 0.589844 0.777466
vt 0.948242 0.374023
vt 0.948242 0.573730
vt 0.486816 0.938263
vt 0.486816 0.738525
vt 0.485352 0.939636
vt 0.947266 0.372559
vt 0.947266 0.575195
vt 0.485352 0.737305
vt 0.601074 0.806885
vt 0.676270 0.805542
vt 0.676270 0.806885
vt 0.601074 0.805542
vt 0.601074 0.606201
vt 0.676270 0.606201
vt 0.676270 0.607422
vt 0.601074 0.607422
vt 0.923828 0.004395
vt 0.923828 0.106934
vt 0.922852 0.108398
vt 0.886230 0.108398
vt 0.886230 0.002930
vt 0.922852 0.002930
vt 0.117065 0.944946
vt 0.117065 0.981659
vt 0.098328 0.981659
vt 0.098328 0.944946
vt 0.099548 0.983002
vt 0.115845 0.983002
vt 0.490234 0.317383
vt 0.592285 0.317383
vt 0.505859 0.351074
vt 0.576660 0.351074
vt 0.549316 0.383301
vt 0.533203 0.383301
vt 0.115845 0.943604
vt 0.099548 0.943604
vt 0.597168 0.518799
vt 0.595703 0.518799
vt 0.581543 0.552246
vt 0.580078 0.552246
vt 0.553711 0.584717
vt 0.552734 0.584473
vt 0.492188 0.518799
vt 0.493652 0.518799
vt 0.507812 0.552246
vt 0.509277 0.552246
vt 0.535645 0.584717
vt 0.536621 0.584473
vt 0.593750 0.317383
vt 0.578125 0.351074
vt 0.550293 0.383301
vt 0.488770 0.317383
vt 0.504395 0.351074
vt 0.532227 0.383301
vt 0.889160 0.171875
vt 0.925781 0.171875
vt 0.925781 0.136719
vt 0.889160 0.136719
vt 0.894531 0.575195
vt 0.931152 0.540039
vt 0.931152 0.575195
vt 0.894531 0.540039
vt 0.153564 0.678955
vt 0.153564 0.869141
vt 0.149414 0.865112
vt 0.081177 0.869141
vt 0.149414 0.683105
vt 0.081177 0.678955
vt 0.085266 0.865112
vt 0.085266 0.683105
vn 0.4161 -0.6329 0.6529
vn -0.7175 -0.5159 0.4680
vn 0.6022 -0.6328 -0.4867
vn -0.5315 -0.5160 -0.6717
vn 0.4161 -0.6328 0.6530
vn 0.5316 0.5159 0.6718
vn -0.6021 0.6328 0.4869
vn -0.7176 -0.5157 0.4680
vn -0.4161 0.6329 -0.6530
vn -0.5316 -0.5159 -0.6718
vn 0.7174 0.5160 -0.4680
vn 0.6023 -0.6327 -0.4868
vn 0.4327 0.8710 -0.2327
vn 0.2515 -0.9316 -0.2623
vn 0.1553 -0.9316 0.3287
vn 0.3364 0.8710 0.3581
vn -0.1552 0.9316 -0.3286
vn -0.3363 -0.8710 -0.3582
vn -0.2514 0.9317 0.2623
vn -0.4327 -0.8709 0.2328
vn 0.2516 -0.9316 -0.2623
vn 0.1552 -0.9316 0.3286
vn -0.4326 -0.8710 0.2328
vn -0.4325 -0.8711 0.2328
vn -0.3364 -0.8709 -0.3582
vn -0.3364 -0.8710 -0.3582
vn 0.5319 0.5159 0.6715
vn -0.6021 0.6329 0.4868
vn -0.4163 0.6328 -0.6528
vn 0.7176 0.5159 -0.4679
vn 0.6019 -0.6330 -0.4868
vn 0.4163 -0.6329 0.6528
vn -0.5318 -0.5158 -0.6717
vn 0.3936 -0.6120 0.6859
vn 0.3935 -0.6120 0.6860
vn 0.3936 -0.6121 0.6859
vn -0.7028 -0.4990 0.5070
vn 0.5912 -0.6120 -0.5253
vn 0.5912 -0.6120 -0.5254
vn 0.5912 -0.6121 -0.5252
vn -0.5055 -0.4989 -0.7040
vn -0.1000 -0.9949 -0.0163
vn -0.1610 -0.0000 0.9870
vn 0.9819 -0.1013 0.1601
vn -0.9819 0.1013 -0.1601
vn 0.1610 -0.0000 -0.9870
vn 0.1609 0.0000 -0.9870
vn 0.1000 0.9949 0.0163
vn -0.1845 -0.7035 0.6864
vn -0.7649 -0.6320 -0.1247
vn -0.7649 -0.6319 -0.1247
vn 0.0431 -0.7035 -0.7094
vn 0.0431 -0.7034 -0.7094
vn 0.6236 -0.7751 0.1017
vn 0.6237 -0.7750 0.1017
vn 0.7650 0.6318 0.1248
vn 0.1845 0.7035 -0.6864
vn 0.1845 0.7035 -0.6863
vn -0.7651 -0.6318 -0.1248
vn -0.7650 -0.6319 -0.1248
vn -0.7650 -0.6318 -0.1248
vn -0.6237 0.7750 -0.1017
vn -0.0432 0.7034 0.7094
vn -0.0431 0.7035 0.7094
vn 0.5805 -0.0716 0.8111
vn 0.5804 -0.0716 0.8112
vn 0.5807 -0.0716 0.8110
vn -0.8080 0.0716 0.5848
vn -0.8081 0.0716 0.5846
vn -0.8081 0.0716 0.5847
vn 0.8082 -0.0716 -0.5846
vn 0.8081 -0.0716 -0.5847
vn -0.5804 0.0716 -0.8112
vn -0.5805 0.0716 -0.8111
vn 0.6235 -0.7751 0.1017
vn 0.5806 -0.0716 0.8110
vn 0.0432 -0.7035 -0.7094
vn 0.1845 0.7034 -0.6864
vn -0.8082 0.0716 0.5846
vn -0.6236 0.7751 -0.1017
vn -0.1845 -0.7035 0.6863
vn -0.0432 0.7035 0.7094
vn 0.8082 -0.0716 -0.5845
vn 0.8081 -0.0716 -0.5846
vn -0.1845 -0.7034 0.6864
vn -0.7651 -0.6317 -0.1248
vn 0.8080 -0.0716 -0.5848
vn 0.8080 -0.0717 -0.5848
vn 0.5805 -0.0717 0.8111
vn -0.8080 0.0716 0.5847
vn -0.8080 0.0717 0.5847
vn -0.5806 0.0716 -0.8110
vn -0.5807 0.0716 -0.8110
vn -0.3202 0.9459 -0.0522
vn -0.3203 0.9459 -0.0522
vn 0.5018 0.8611 0.0818
vn 0.5019 0.8610 0.0819
vn 0.2970 0.6469 0.7023
vn 0.4641 0.5444 0.6988
vn 0.0683 0.7275 0.6827
vn -0.3677 0.7155 0.5940
vn -0.1332 0.7483 0.6498
vn -0.5421 0.6483 0.5347
vn -0.3442 0.6481 -0.6793
vn 0.0801 0.7483 -0.6585
vn -0.1601 0.7155 -0.6801
vn 0.5049 0.6468 -0.5716
vn 0.2816 0.7275 -0.6257
vn 0.6622 0.5442 -0.5151
vn 0.5472 0.0665 0.8344
vn 0.5393 -0.0679 0.8394
vn 0.5395 -0.0680 0.8392
vn 0.5477 0.0976 0.8309
vn 0.5352 0.3045 0.7879
vn 0.5280 0.3537 0.7721
vn -0.7571 0.2014 0.6215
vn -0.7781 0.0680 0.6245
vn -0.7779 0.0679 0.6247
vn -0.7502 0.2320 0.6191
vn -0.6838 0.4303 0.5892
vn -0.6624 0.4765 0.5781
vn -0.5204 0.2014 -0.8298
vn -0.5392 0.0679 -0.8395
vn -0.5390 0.0679 -0.8396
vn -0.5147 0.2323 -0.8253
vn -0.4612 0.4304 -0.7759
vn -0.4446 0.4766 -0.7584
vn 0.7840 0.0664 -0.6173
vn 0.7777 -0.0679 -0.6249
vn 0.7778 -0.0680 -0.6248
vn 0.7835 0.0978 -0.6137
vn 0.7578 0.3045 -0.5771
vn 0.7459 0.3537 -0.5644
vn -0.7710 0.6243 -0.1257
vn -0.8460 0.5151 -0.1380
vn -0.8463 0.5145 -0.1380
vn -0.6853 0.7197 -0.1118
vn 0.8144 0.5650 0.1328
vn 0.8794 0.4540 0.1434
vn 0.8144 0.5649 0.1328
vn 0.9311 0.3317 0.1518
vn 0.0999 0.9949 0.0163
usemtl AssetMaterial_Inst_tombstones
s 1
f 1/1/1 2/2/1 3/3/1
f 4/4/2 5/5/2 6/6/2
f 7/7/3 8/8/3 9/9/3
f 10/10/4 11/11/4 12/12/4
f 13/13/5 14/14/5 15/15/5
f 16/16/6 17/17/6 18/18/6
f 19/19/7 20/20/7 21/21/7
f 22/22/8 23/23/8 24/24/8
f 25/25/9 26/26/9 27/27/9
f 28/28/10 29/29/10 30/30/10
f 31/31/11 32/32/11 33/33/11
f 34/34/12 35/35/12 36/36/12
f 37/37/13 38/38/13 39/39/13
f 40/40/14 41/41/14 42/42/14
f 43/43/15 44/44/15 45/45/15
f 46/46/16 47/47/16 48/48/16
f 49/49/17 50/50/17 51/51/17
f 52/52/18 53/53/18 54/54/18
f 55/55/19 56/56/19 57/57/19
f 58/58/20 59/59/20 60/60/20
f 61/61/21 62/62/21 63/63/21
f 64/64/22 65/65/22 66/66/22
f 67/67/23 68/68/23 69/69/24
f 70/70/25 71/71/26 72/72/26
f 73/73/27 74/74/27 75/75/27
f 76/76/28 77/77/28 78/78/28
f 79/79/29 80/80/29 81/81/29
f 82/82/30 83/83/30 84/84/30
f 85/85/31 86/86/31 87/87/31
f 88/88/32 89/89/32 90/90/32
f 91/91/2 92/92/2 93/93/2
f 94/94/33 95/95/33 96/96/33
f 97/97/34 98/98/35 99/99/36
f 100/100/37 101/101/37 102/102/37
f 103/103/38 104/104/39 105/105/40
f 106/106/41 107/107/41 108/108/41
f 2/2/42 6/6/42 9/109/42
f 9/109/42 6/6/42 12/110/42
f 20/111/43 1/112/43 18/113/43
f 1/112/43 20/111/43 4/114/43
f 65/115/44 34/116/44 63/117/44
f 34/116/44 65/115/44 13/118/44
f 26/26/45 5/119/45 19/19/45
f 5/119/45 26/26/45 10/120/45
f 16/16/44 8/121/44 31/31/44
f 8/121/44 16/16/44 3/122/44
f 32/123/46 11/11/46 25/124/46
f 11/11/46 32/123/46 7/7/46
f 97/125/42 100/126/42 103/127/42
f 103/127/42 100/126/42 106/128/42
f 74/74/44 86/129/44 84/84/44
f 86/129/44 74/74/44 90/130/44
f 68/131/43 14/14/43 64/132/43
f 14/14/43 68/131/43 23/23/43
f 45/133/43 58/134/43 55/135/43
f 45/133/43 55/135/43 46/136/43
f 48/137/44 42/138/44 43/139/44
f 42/138/44 48/137/44 38/140/44
f 60/141/45 52/142/45 49/143/45
f 60/141/45 49/143/45 56/144/45
f 61/145/46 30/30/46 70/146/46
f 30/30/46 61/145/46 36/36/46
f 71/147/45 24/148/45 67/149/45
f 24/148/45 71/147/45 29/150/45
f 37/151/46 54/152/47 40/153/46
f 54/152/47 37/151/46 50/154/47
f 82/155/46 94/94/46 80/156/46
f 94/94/46 82/155/46 85/85/46
f 81/81/45 91/157/45 77/77/45
f 91/157/45 81/81/45 96/158/45
f 78/159/43 88/88/43 73/160/43
f 88/88/43 78/159/43 93/93/43
f 109/161/44 105/162/44 110/163/44
f 105/162/44 109/161/44 98/164/44
f 111/165/48 112/166/48 113/167/48
f 111/165/48 113/167/48 114/168/48
f 115/169/45 102/170/45 116/171/45
f 102/170/45 115/169/45 107/172/45
f 1/1/49 6/6/49 2/2/49
f 6/6/49 1/1/49 4/4/49
f 12/110/50 6/6/51 5/5/51
f 12/110/50 5/5/51 10/173/50
f 11/11/52 7/7/53 9/9/53
f 11/11/52 9/9/53 12/12/52
f 8/174/54 3/3/54 2/2/54
f 8/174/54 2/2/54 9/109/54
f 34/175/54 13/176/55 15/177/55
f 34/175/54 15/177/55 35/178/54
f 33/33/56 17/17/56 16/16/56
f 33/33/56 16/16/56 31/31/56
f 35/178/52 30/179/52 36/180/52
f 30/179/52 35/178/52 28/181/52
f 27/182/57 32/183/58 25/184/57
f 32/183/58 27/182/57 33/185/58
f 24/186/59 29/187/60 28/181/61
f 24/186/59 28/181/61 22/188/59
f 21/21/62 27/27/62 26/26/62
f 21/21/62 26/26/62 19/19/62
f 22/188/49 15/177/49 14/189/49
f 14/189/49 23/190/49 22/188/49
f 17/191/63 21/192/64 20/193/64
f 20/193/64 18/194/63 17/191/63
f 13/13/65 65/195/65 64/132/65
f 64/132/65 14/14/65 13/13/65
f 18/113/66 3/196/67 16/197/66
f 3/196/67 18/113/66 1/112/67
f 4/114/68 20/111/69 19/198/69
f 19/198/69 5/199/68 4/114/68
f 23/23/68 68/131/70 67/200/70
f 67/200/70 24/24/68 23/23/68
f 31/201/71 7/7/72 32/123/71
f 7/7/72 31/201/71 8/8/72
f 10/10/73 26/202/73 25/124/73
f 25/124/73 11/11/73 10/10/73
f 29/29/74 71/203/74 70/146/74
f 70/146/74 30/30/74 29/29/74
f 42/204/72 37/151/71 40/153/72
f 37/151/71 42/204/72 38/205/71
f 43/43/54 41/41/75 44/44/54
f 41/41/75 43/43/54 42/42/75
f 48/206/76 43/207/65 45/133/65
f 45/133/65 46/136/76 48/206/76
f 39/208/56 48/137/56 47/209/56
f 48/137/56 39/208/56 38/140/56
f 54/152/74 49/210/74 52/211/74
f 49/210/74 54/152/74 50/154/74
f 53/53/77 41/41/52 40/40/52
f 53/53/77 40/40/52 54/54/77
f 39/39/78 51/51/57 50/50/57
f 39/39/78 50/50/57 37/37/78
f 60/212/69 55/135/70 58/134/79
f 55/135/70 60/212/69 56/213/68
f 53/53/61 60/60/61 59/59/61
f 60/60/61 53/53/61 52/52/61
f 51/214/80 57/215/80 56/144/80
f 51/214/80 56/144/80 49/143/80
f 44/44/81 59/59/81 58/58/81
f 44/44/81 58/58/81 45/45/81
f 57/57/82 47/47/64 46/46/64
f 57/57/82 46/46/64 55/55/82
f 63/216/83 36/36/84 61/145/83
f 36/36/84 63/216/83 34/34/84
f 65/65/54 62/62/54 66/66/54
f 62/62/54 65/65/54 63/63/54
f 69/217/85 64/132/81 66/218/81
f 64/132/81 69/217/85 68/131/85
f 72/72/86 67/67/60 69/69/60
f 67/67/60 72/72/86 71/71/86
f 61/145/52 72/219/77 62/220/52
f 72/219/77 61/145/52 70/146/77
f 78/159/64 75/221/64 76/222/64
f 75/221/64 78/159/64 73/160/64
f 79/79/80 77/77/62 76/76/62
f 77/77/62 79/79/80 81/81/80
f 83/223/57 80/156/57 79/224/57
f 80/156/57 83/223/57 82/155/57
f 83/83/56 75/75/56 74/74/56
f 83/83/56 74/74/56 84/84/56
f 84/225/71 85/85/87 82/155/71
f 85/85/87 84/225/71 86/86/88
f 90/90/67 74/226/89 73/160/65
f 73/160/65 88/88/67 90/90/67
f 93/93/90 78/159/68 77/227/68
f 77/227/68 91/91/91 93/93/90
f 96/96/92 81/228/73 80/156/73
f 80/156/73 94/94/93 96/96/92
f 90/229/54 87/230/54 86/231/54
f 87/230/54 90/229/54 89/232/54
f 93/93/49 89/89/49 88/88/49
f 89/89/49 93/93/49 92/92/49
f 91/233/60 96/234/61 95/235/61
f 91/233/60 95/235/61 92/236/60
f 94/94/53 85/85/52 87/87/52
f 94/94/53 87/87/52 95/95/53
f 99/237/85 100/126/85 97/125/85
f 100/126/85 99/237/85 101/238/85
f 102/239/60 106/128/60 100/126/60
f 106/128/60 102/239/60 107/240/60
f 108/108/52 104/104/52 103/103/52
f 108/108/52 103/103/52 106/106/52
f 105/241/54 98/242/54 97/125/54
f 105/241/54 97/125/54 103/127/54
f 117/243/94 118/244/95 112/166/95
f 117/243/94 112/166/95 111/165/94
f 119/245/96 114/168/96 113/167/96
f 114/168/96 119/245/96 120/246/97
f 121/247/98 119/245/99 113/167/100
f 122/248/101 121/247/98 113/167/100
f 122/248/101 113/167/100 112/166/102
f 122/248/101 112/166/102 118/244/103
f 108/108/46 123/249/46 104/104/46
f 123/249/46 108/108/46 124/250/46
f 124/250/46 125/251/46 123/249/46
f 125/251/46 124/250/46 126/252/46
f 125/251/46 126/252/46 127/253/46
f 125/251/46 127/253/46 128/254/47
f 117/243/104 111/165/105 127/255/106
f 128/256/107 127/255/106 111/165/105
f 128/256/107 111/165/105 114/168/108
f 128/256/107 114/168/108 120/246/109
f 109/257/110 99/99/111 98/98/112
f 99/99/111 109/257/110 129/258/113
f 130/259/114 129/258/113 109/257/110
f 129/258/113 130/259/114 131/260/115
f 119/261/99 131/260/115 130/259/114
f 131/260/115 119/261/99 121/262/98
f 116/263/116 102/102/117 101/101/118
f 101/101/118 132/264/119 116/263/116
f 133/265/120 116/263/116 132/264/119
f 132/264/119 134/266/121 133/265/120
f 118/267/103 133/265/120 134/266/121
f 134/266/121 122/268/101 118/267/103
f 115/269/122 108/108/123 107/107/124
f 108/108/123 115/269/122 124/250/125
f 135/270/126 124/250/125 115/269/122
f 124/250/125 135/270/126 126/252/127
f 117/271/104 126/252/127 135/270/126
f 126/252/127 117/271/104 127/253/106
f 110/272/128 105/105/129 104/104/130
f 104/104/130 123/249/131 110/272/128
f 136/273/132 110/272/128 123/249/131
f 123/249/131 125/251/133 136/273/132
f 120/274/109 136/273/132 125/251/133
f 125/251/133 128/254/107 120/274/109
f 133/275/134 115/169/135 116/171/136
f 133/275/134 135/276/134 115/169/135
f 133/275/134 117/277/137 135/276/134
f 117/277/137 133/275/134 118/278/137
f 99/99/43 132/264/43 101/101/43
f 132/264/43 99/99/43 129/258/43
f 132/264/43 129/258/43 131/260/43
f 132/264/43 131/260/43 134/266/43
f 131/260/43 122/268/43 134/266/43
f 122/268/43 131/260/43 121/262/43
f 119/279/138 136/280/139 120/281/140
f 136/280/139 119/279/138 130/282/139
f 136/280/139 130/282/139 109/161/141
f 136/280/139 109/161/141 110/163/141
f 72/72/42 92/236/42 95/235/42
f 87/230/42 72/72/42 95/235/42
f 72/72/42 69/69/42 92/236/42
f 72/72/42 87/230/42 62/62/42
f 89/232/42 92/236/42 69/69/42
f 89/232/42 62/62/42 87/230/42
f 89/232/42 69/69/42 66/66/42
f 62/62/42 89/232/42 66/66/42
f 33/185/48 27/182/142 51/51/142
f 21/192/48 51/51/142 27/182/142
f 33/185/48 51/51/142 39/39/48
f 51/51/142 21/192/48 57/57/48
f 17/191/48 33/185/48 39/39/48
f 21/192/48 47/47/48 57/57/48
f 17/191/48 39/39/48 47/47/48
f 21/192/48 17/191/48 47/47/48
f 15/177/42 59/59/42 44/44/42
f 41/41/42 15/177/42 44/44/42
f 15/177/42 22/188/42 59/59/42
f 15/177/42 41/41/42 35/178/42
f 22/188/42 53/53/42 59/59/42
f 28/181/42 35/178/42 41/41/42
f 22/188/42 28/181/42 53/53/42
f 28/181/42 41/41/42 53/53/42
f 83/283/48 79/284/48 137/285/48
f 76/286/48 137/285/48 79/284/48
f 83/283/48 137/285/48 138/287/48
f 138/287/48 75/288/48 83/283/48
f 137/285/48 76/286/48 139/289/48
f 138/287/48 140/290/48 75/288/48
f 137/285/48 140/290/48 138/287/48
f 76/286/48 75/288/48 140/290/48
f 140/290/48 137/285/48 139/289/48
f 76/286/48 140/290/48 139/289/48
