# Blender v3.5.0 OBJ File: ''
# www.blender.org
mtllib Säule einzeln.mtl
v -1.657726 3.711456 0.000051
v -1.580056 3.635737 0.000051
v -1.551626 3.532303 0.000051
v -1.580056 3.428870 0.000051
v -1.657726 3.353151 0.000051
v -1.688803 3.711456 0.075072
v -1.633881 3.635737 0.129991
v -1.613778 3.532303 0.150092
v -1.633881 3.428870 0.129991
v -1.688803 3.353151 0.075072
v -1.763827 3.711456 0.106146
v -1.763827 3.635737 0.183813
v -1.763827 3.532303 0.212241
v -1.763827 3.428870 0.183813
v -1.763827 3.353151 0.106146
v -1.838851 3.711456 0.075072
v -1.893773 3.635737 0.129991
v -1.913875 3.532303 0.150092
v -1.893773 3.428870 0.129991
v -1.838851 3.353151 0.075072
v -1.869927 3.711456 0.000051
v -1.947598 3.635737 0.000051
v -1.976027 3.532303 0.000051
v -1.947598 3.428870 0.000051
v -1.869927 3.353151 0.000051
v -1.763827 3.739171 0.000051
v -1.838851 3.711456 -0.074970
v -1.893773 3.635737 -0.129889
v -1.913875 3.532303 -0.149990
v -1.893773 3.428870 -0.129889
v -1.838851 3.353151 -0.074970
v -1.763827 3.711456 -0.106044
v -1.763827 3.635737 -0.183711
v -1.763827 3.532303 -0.212140
v -1.763827 3.428870 -0.183711
v -1.763827 3.353151 -0.106044
v -1.688803 3.711456 -0.074970
v -1.633881 3.635737 -0.129889
v -1.613778 3.532303 -0.149990
v -1.633881 3.428870 -0.129889
v -1.688803 3.353151 -0.074970
v -1.763827 3.353151 0.000051
v -1.415910 2.911845 0.347968
v -2.111744 2.911845 0.347968
v -1.415910 2.911845 -0.347866
v -2.111744 2.911845 -0.347866
v -2.258268 2.940135 0.494492
v -2.258268 2.940135 -0.494390
v -1.269386 2.940135 0.494492
v -1.269386 2.940135 -0.494390
v -2.258268 2.988037 0.494492
v -2.258268 2.988037 -0.494390
v -1.269386 2.988037 0.494492
v -1.269386 2.988037 -0.494390
v -2.320722 3.014982 0.556946
v -2.320722 3.014982 -0.556844
v -1.206932 3.014982 0.556946
v -1.206932 3.014982 -0.556844
v -2.340849 3.083842 0.577074
v -2.340849 3.083842 -0.576971
v -1.186805 3.083842 0.577073
v -1.186805 3.083842 -0.576971
v -2.086097 3.087819 0.267568
v -2.086097 3.087819 -0.267465
v -1.441556 3.087819 0.267567
v -1.441556 3.087819 -0.267466
v -2.091121 3.202097 0.271738
v -2.091121 3.202097 -0.271636
v -1.436532 3.202097 0.271738
v -1.436532 3.202097 -0.271636
v -1.949083 3.215126 0.157224
v -1.949083 3.215126 -0.157121
v -1.578571 3.215126 0.157224
v -1.578571 3.215126 -0.157122
v -1.916055 3.265251 0.148201
v -1.916055 3.265251 -0.148099
v -1.611598 3.265251 0.148201
v -1.611599 3.265251 -0.148099
v -1.961714 3.297708 0.197938
v -1.961714 3.297708 -0.197836
v -1.565940 3.297708 0.197938
v -1.565940 3.297708 -0.197836
v -1.861252 3.303535 0.097476
v -1.861252 3.303535 -0.097374
v -1.666402 3.303535 0.097476
v -1.666402 3.303535 -0.097374
v -1.857409 3.352921 0.093633
v -1.857409 3.352921 -0.093531
v -1.670244 3.352921 0.093633
v -1.670244 3.352921 -0.093531
v -2.117379 3.087819 0.000051
v -1.410274 3.087819 0.000051
v -2.130235 3.202097 0.000051
v -1.397418 3.202097 0.000051
v -1.994722 3.215126 0.000051
v -1.532932 3.215126 0.000051
v -1.955394 3.265251 0.000051
v -1.572259 3.265251 0.000051
v -1.993632 3.297708 0.000051
v -1.534022 3.297708 0.000051
v -1.877357 3.303535 0.000051
v -1.650296 3.303535 0.000051
v -1.869074 3.352921 0.000051
v -1.658580 3.352921 0.000051
v -1.763827 3.087819 0.293535
v -1.763827 3.087819 -0.293433
v -1.763827 3.202097 0.304206
v -1.763827 3.202097 -0.304104
v -1.763827 3.215126 0.195733
v -1.763827 3.215126 -0.195631
v -1.763827 3.265251 0.186800
v -1.763827 3.265251 -0.186698
v -1.763827 3.297708 0.229856
v -1.763827 3.297708 -0.229754
v -1.763827 3.303535 0.113582
v -1.763827 3.303535 -0.113480
v -1.763827 3.352921 0.105298
v -1.763827 3.352921 -0.105196
v -1.763827 3.352921 0.000051
v -1.415910 2.526088 0.347968
v -2.111744 2.526088 -0.347866
v -2.111744 2.526088 0.347968
v -1.415910 2.526088 -0.347866
v -2.127949 2.526088 -0.364071
v -2.127949 2.911845 -0.364071
v -2.127949 2.911845 0.364173
v -1.399705 2.911845 0.364173
v -1.399705 2.911845 -0.364071
v -1.399705 2.526088 0.364173
v -2.127949 2.526088 0.364173
v -1.399705 2.526088 -0.364071
v -1.415910 0.673887 0.347968
v -2.111744 0.673887 0.347968
v -1.415910 0.673887 -0.347866
v -2.111744 0.673887 -0.347865
v -1.380278 -0.020688 -0.383498
v -2.147376 -0.020688 -0.383498
v -1.380278 -0.020688 0.383601
v -1.380278 0.673887 0.383601
v -2.147376 0.673887 0.383601
v -2.147376 -0.020688 0.383601
v -1.380278 0.673887 -0.383498
v -2.147376 0.673887 -0.383498
vt 0.769347 0.605197
vt 0.751408 0.605198
vt 0.760378 0.626852
vt 0.782031 0.617882
vt 0.738724 0.617883
vt 0.738724 0.635822
vt 0.769347 0.648506
vt 0.782031 0.635821
vt 0.751408 0.648507
vt 0.853191 0.026890
vt 0.853191 0.180606
vt 0.856771 0.184186
vt 0.856771 0.023310
vt 0.699471 0.180606
vt 0.695891 0.184186
vt 0.673173 0.175036
vt 0.519455 0.175036
vt 0.515875 0.178616
vt 0.676753 0.178615
vt 0.519456 0.021316
vt 0.673173 0.021317
vt 0.676753 0.017737
vt 0.515876 0.017736
vt 0.738724 0.598894
vt 0.957179 0.598894
vt 0.957179 0.588312
vt 0.738724 0.588312
vt 0.204908 0.064455
vt 0.423363 0.064455
vt 0.423363 0.053873
vt 0.204908 0.053873
vt 0.509391 0.329191
vt 0.509391 0.110736
vt 0.498809 0.110736
vt 0.498809 0.329191
vt 0.928651 0.892163
vt 0.928651 0.673708
vt 0.918069 0.673708
vt 0.918069 0.892163
vt 0.188876 0.155209
vt 0.188877 0.401257
vt 0.204725 0.405703
vt 0.204725 0.150762
vt 0.209753 0.155209
vt 0.209754 0.401257
vt 0.225602 0.405703
vt 0.225602 0.150762
vt 0.230630 0.155209
vt 0.230631 0.401257
vt 0.246479 0.405703
vt 0.246479 0.150762
vt 0.897192 0.641669
vt 0.897193 0.887716
vt 0.913041 0.892163
vt 0.913041 0.637222
vt 0.257457 0.997486
vt 0.257457 0.742543
vt 0.002514 0.742543
vt 0.002514 0.997486
vt 0.232825 0.122662
vt 0.235701 0.099590
vt 0.214867 0.099590
vt 0.209753 0.119786
vt 0.229949 0.145734
vt 0.209753 0.140620
vt 0.250783 0.145734
vt 0.255897 0.125538
vt 0.255897 0.104704
vt 0.416203 0.997486
vt 0.416203 0.588312
vt 0.262485 0.588312
vt 0.262485 0.997486
vt 0.574949 0.997486
vt 0.574949 0.588312
vt 0.421231 0.588312
vt 0.421231 0.997486
vt 0.733696 0.997486
vt 0.733696 0.588312
vt 0.579978 0.588312
vt 0.579978 0.997486
vt 0.156232 0.737515
vt 0.156232 0.328341
vt 0.002514 0.328342
vt 0.002514 0.737515
vt 0.163392 0.148824
vt 0.163392 0.063605
vt 0.002514 0.063605
vt 0.002514 0.148824
vt 0.161260 0.571609
vt 0.246479 0.571609
vt 0.246479 0.410731
vt 0.161260 0.410731
vt 0.423363 0.154702
vt 0.423363 0.069483
vt 0.262485 0.069483
vt 0.262485 0.154701
vt 0.246479 0.576637
vt 0.161260 0.576637
vt 0.161260 0.737515
vt 0.246479 0.737515
vt 0.699473 0.026889
vt 0.695893 0.023309
vt 0.270357 0.167602
vt 0.424075 0.167602
vt 0.431947 0.159730
vt 0.262485 0.159730
vt 0.424075 0.321319
vt 0.270357 0.321319
vt 0.262485 0.329191
vt 0.431947 0.329191
vt 0.171976 0.323313
vt 0.171976 0.153852
vt 0.002514 0.153852
vt 0.002514 0.323313
vt 0.738724 0.997486
vt 0.892164 0.997486
vt 0.892164 0.828025
vt 0.738724 0.828025
vt 0.695891 0.358676
vt 0.849331 0.358676
vt 0.849331 0.189214
vt 0.695891 0.189214
vt 0.892164 0.653535
vt 0.738724 0.653535
vt 0.738724 0.822996
vt 0.892164 0.822996
vt 0.893817 0.413823
vt 0.740377 0.413823
vt 0.740377 0.583284
vt 0.893817 0.583284
vt 0.604765 0.269784
vt 0.603369 0.271160
vt 0.605264 0.271196
vt 0.604653 0.272462
vt 0.603379 0.273055
vt 0.601974 0.272536
vt 0.601474 0.271123
vt 0.602085 0.269858
vt 0.603360 0.269265
vt 0.690863 0.184896
vt 0.614060 0.260619
vt 0.617396 0.271428
vt 0.690863 0.273348
vt 0.608516 0.266086
vt 0.606350 0.268221
vt 0.607406 0.271185
vt 0.610610 0.271080
vt 0.608490 0.276353
vt 0.612683 0.280607
vt 0.606094 0.273923
vt 0.648421 0.316854
vt 0.603187 0.278398
vt 0.603439 0.285189
vt 0.603338 0.275196
vt 0.604319 0.358676
vt 0.598223 0.276234
vt 0.592678 0.281701
vt 0.600389 0.274099
vt 0.515875 0.357424
vt 0.596129 0.271240
vt 0.589342 0.270892
vt 0.599333 0.271134
vt 0.515875 0.268971
vt 0.598249 0.265966
vt 0.594055 0.261713
vt 0.600645 0.268396
vt 0.558318 0.225466
vt 0.603401 0.267123
vt 0.603300 0.257130
vt 0.602419 0.183644
vt 0.603552 0.263921
vt 0.702402 0.550118
vt 0.548945 0.550331
vt 0.515875 0.583284
vt 0.735349 0.583175
vt 0.548823 0.396870
vt 0.702280 0.396657
vt 0.735349 0.363704
vt 0.515875 0.363813
vt 0.495773 0.568019
vt 0.277710 0.567536
vt 0.262485 0.582576
vt 0.510847 0.583284
vt 0.277559 0.349484
vt 0.495622 0.349967
vt 0.510847 0.334927
vt 0.262485 0.334219
vt 0.462330 0.256536
vt 0.462864 0.185113
vt 0.437607 0.183880
vt 0.436975 0.256536
vt 0.913303 0.197331
vt 0.854369 0.211987
vt 0.882773 0.240760
vt 0.916304 0.227281
vt 0.493008 0.118221
vt 0.493780 0.058726
vt 0.468519 0.057590
vt 0.467603 0.118221
vt 0.924250 0.522653
vt 0.925023 0.463158
vt 0.899762 0.462022
vt 0.898845 0.522653
vt 0.493247 0.256536
vt 0.493780 0.185113
vt 0.468524 0.183880
vt 0.467892 0.256536
vt 0.161260 0.370087
vt 0.167484 0.405703
vt 0.180715 0.403519
vt 0.175335 0.370087
vt 0.988398 0.271288
vt 0.973967 0.200009
vt 0.951835 0.233840
vt 0.964360 0.273697
vt 0.854360 0.284720
vt 0.868801 0.356005
vt 0.890932 0.322168
vt 0.878400 0.282311
vt 0.929472 0.358676
vt 0.988398 0.344013
vt 0.959992 0.315247
vt 0.926470 0.328726
vt 0.906515 0.090592
vt 0.939923 0.092919
vt 0.950055 0.079272
vt 0.904426 0.079245
vt 0.436975 0.143236
vt 0.443199 0.178852
vt 0.456430 0.176668
vt 0.451050 0.143236
vt 0.898845 0.415217
vt 0.900224 0.456994
vt 0.911589 0.449878
vt 0.910093 0.415217
vt 0.916618 0.415217
vt 0.917996 0.456994
vt 0.929362 0.449878
vt 0.927865 0.415217
vt 0.997486 0.939236
vt 0.983536 0.897191
vt 0.965149 0.922664
vt 0.972092 0.943339
vt 0.874028 0.139092
vt 0.876127 0.104666
vt 0.861799 0.095522
vt 0.861799 0.141344
vt 0.954146 0.124340
vt 0.952047 0.158766
vt 0.966375 0.167909
vt 0.966375 0.122088
vt 0.921659 0.172840
vt 0.888251 0.170513
vt 0.878120 0.184160
vt 0.923749 0.184186
vt 0.773411 0.386987
vt 0.773968 0.408794
vt 0.784900 0.407816
vt 0.784473 0.386987
vt 0.939237 0.897191
vt 0.897192 0.911142
vt 0.922665 0.929528
vt 0.943340 0.922585
vt 0.955442 0.997486
vt 0.997486 0.983534
vt 0.972013 0.965148
vt 0.951339 0.972092
vt 0.897192 0.955441
vt 0.911143 0.997486
vt 0.929530 0.972013
vt 0.922587 0.951338
vt 0.756894 0.386987
vt 0.757451 0.408794
vt 0.768383 0.407816
vt 0.767957 0.386987
vt 0.787060 0.626699
vt 0.787616 0.648507
vt 0.798548 0.647528
vt 0.798122 0.626699
vt 0.740377 0.386987
vt 0.740934 0.408794
vt 0.751866 0.407816
vt 0.751440 0.386987
vt 0.740934 0.365180
vt 0.751866 0.366158
vt 0.773968 0.365180
vt 0.784900 0.366158
vt 0.443199 0.107620
vt 0.456430 0.109804
vt 0.167484 0.334471
vt 0.180715 0.336655
vt 0.925023 0.582149
vt 0.899762 0.583284
vt 0.493780 0.177716
vt 0.468519 0.178852
vt 0.787616 0.604892
vt 0.798548 0.605870
vt 0.757451 0.365180
vt 0.768383 0.366158
vt 0.917996 0.373439
vt 0.929362 0.380556
vt 0.900223 0.373439
vt 0.911589 0.380556
vt 0.493780 0.327958
vt 0.468524 0.329191
vt 0.462864 0.327958
vt 0.437607 0.329191
vn 0.0000 -1.0000 0.0000
vn 0.0000 1.0000 0.0000
vn -0.0000 -0.0000 -1.0000
vn -1.0000 0.0000 0.0000
vn 1.0000 -0.0000 -0.0000
vn 0.0000 0.0000 1.0000
vn 0.9598 -0.2805 0.0000
vn 0.9598 -0.2806 -0.0000
vn 0.0000 -0.2806 0.9598
vn -0.0000 -0.2806 -0.9598
vn -0.9598 -0.2805 0.0000
vn -0.9598 -0.2806 0.0000
vn 0.5369 0.8436 -0.0000
vn 0.3797 0.8436 0.3797
vn -0.0000 0.8436 0.5370
vn -0.3797 0.8436 0.3797
vn -0.5369 0.8436 0.0000
vn -0.3797 0.8436 -0.3797
vn 0.0000 0.8436 -0.5370
vn 0.3797 0.8436 -0.3797
vn 0.6981 -0.7160 -0.0000
vn 0.8761 -0.4821 0.0000
vn 0.6195 -0.4821 0.6195
vn 0.4936 -0.7160 0.4936
vn 0.8761 0.4821 -0.0000
vn 0.6195 0.4821 0.6195
vn 0.7071 -0.0000 0.7071
vn 0.0000 -0.4821 0.8761
vn 0.0000 0.4821 0.8761
vn 0.0000 -0.7160 0.6981
vn -0.7071 -0.0000 0.7071
vn -0.6195 -0.4821 0.6195
vn -0.6195 0.4821 0.6195
vn -0.4936 -0.7160 0.4936
vn -0.8761 -0.4821 0.0000
vn -0.8761 0.4821 0.0000
vn -0.6981 -0.7160 -0.0000
vn -0.7071 0.0000 -0.7071
vn -0.6195 -0.4821 -0.6195
vn -0.6195 0.4821 -0.6195
vn -0.4936 -0.7160 -0.4936
vn -0.0000 -0.4821 -0.8761
vn 0.0000 0.4821 -0.8761
vn -0.0000 -0.7160 -0.6981
vn 0.6195 0.4821 -0.6195
vn 0.6195 -0.4821 -0.6195
vn 0.4936 -0.7160 -0.4936
vn 0.7071 -0.0000 -0.7071
vn 0.0956 -0.9908 -0.0956
vn -0.0956 -0.9908 -0.0956
vn -0.0956 -0.9908 0.0956
vn 0.0956 -0.9908 0.0956
vn -0.2063 -0.9565 -0.2063
vn -0.2063 -0.9565 0.2063
vn 0.2063 -0.9565 0.2063
vn 0.2063 -0.9565 -0.2063
vn -0.0073 -0.0874 -0.9962
vn -0.6919 -0.0744 -0.7181
vn -0.5716 0.5451 -0.6133
vn -0.0088 0.6096 -0.7926
vn 0.7948 0.6069 -0.0068
vn 0.5858 0.5489 -0.5963
vn 0.2895 0.9176 -0.2724
vn 0.4257 0.9048 -0.0008
vn -0.9968 -0.0803 -0.0000
vn -0.6871 -0.0729 0.7229
vn -0.5935 0.5458 0.5915
vn -0.8060 0.5918 0.0093
vn 0.9945 -0.1038 -0.0100
vn 0.6915 -0.0661 -0.7193
vn 0.0131 -0.0831 0.9965
vn 0.6834 -0.0667 0.7270
vn 0.5747 0.5465 0.6091
vn 0.0114 0.6101 0.7922
vn -0.4206 0.9072 0.0084
vn -0.2867 0.9204 0.2659
vn -0.5843 -0.3945 0.7093
vn -0.9918 -0.1263 -0.0199
vn 0.2780 0.9211 0.2727
vn 0.0178 0.7689 0.6391
vn -0.2735 0.9220 -0.2740
vn -0.0131 0.7703 -0.6375
vn 0.9912 -0.1294 0.0274
vn 0.5816 -0.3927 -0.7124
vn 0.6761 0.1584 -0.7196
vn 0.9570 0.2883 0.0311
vn 0.6086 -0.4174 0.6748
vn -0.0054 -0.4063 0.9137
vn -0.6006 -0.4103 -0.6862
vn 0.0054 -0.4075 -0.9132
vn 0.0156 0.2727 -0.9620
vn -0.7042 0.1818 -0.6863
vn -0.3437 0.8743 -0.3428
vn 0.0079 0.7767 -0.6299
vn 0.7061 0.1583 0.6902
vn -0.0272 0.2638 0.9642
vn -0.6761 0.1584 0.7196
vn -0.9570 0.2883 -0.0311
vn 0.6299 0.7767 0.0079
vn 0.3387 0.8746 -0.3469
vn 0.6911 0.1237 -0.7121
vn 0.9880 0.1539 0.0141
vn -0.3443 0.8733 0.3445
vn -0.6388 0.7694 -0.0079
vn 0.3469 0.8746 0.3387
vn -0.0079 0.7767 0.6299
vn 0.7121 0.1237 0.6911
vn -0.0141 0.1539 0.9880
vn -0.7002 0.1353 -0.7010
vn 0.0141 0.1539 -0.9880
vn -0.6991 0.1312 0.7029
vn -0.9919 0.1274 -0.0000
usemtl Collum
s off
f 25/1/1 31/2/1 42/3/1
f 25/1/1 42/3/1 20/4/1
f 31/2/1 36/5/1 41/6/1
f 31/2/1 41/6/1 42/3/1
f 20/4/1 42/3/1 10/7/1
f 20/4/1 10/7/1 15/8/1
f 42/3/1 41/6/1 5/9/1
f 42/3/1 5/9/1 10/7/1
f 120/10/1 123/11/1 131/12/1
f 120/10/1 131/12/1 129/13/1
f 123/11/1 121/14/1 124/15/1
f 123/11/1 124/15/1 131/12/1
f 44/16/2 46/17/2 125/18/2
f 44/16/2 125/18/2 126/19/2
f 45/20/2 43/21/2 127/22/2
f 45/20/2 127/22/2 128/23/2
f 50/24/3 48/25/3 52/26/3
f 50/24/3 52/26/3 54/27/3
f 48/28/4 47/29/4 51/30/4
f 48/28/4 51/30/4 52/31/4
f 49/32/5 50/33/5 54/34/5
f 49/32/5 54/34/5 53/35/5
f 47/36/6 49/37/6 53/38/6
f 47/36/6 53/38/6 51/39/6
f 57/40/7 58/41/7 62/42/7
f 57/40/8 62/42/8 61/43/8
f 55/44/9 57/45/9 61/46/9
f 55/44/9 61/46/9 59/47/9
f 58/48/10 56/49/10 60/50/10
f 58/48/10 60/50/10 62/51/10
f 56/52/11 55/53/11 59/54/11
f 56/52/12 59/54/12 60/55/12
f 59/56/2 61/57/2 62/58/2
f 59/56/2 62/58/2 60/59/2
f 119/60/2 118/61/2 88/62/2
f 119/60/2 88/62/2 103/63/2
f 117/64/2 119/60/2 103/63/2
f 117/64/2 103/63/2 87/65/2
f 89/66/2 104/67/2 119/60/2
f 89/66/2 119/60/2 117/64/2
f 104/67/2 90/68/2 118/61/2
f 104/67/2 118/61/2 119/60/2
f 134/69/5 123/70/5 120/71/5
f 134/69/5 120/71/5 132/72/5
f 132/73/6 120/74/6 122/75/6
f 132/73/6 122/75/6 133/76/6
f 135/77/3 121/78/3 123/79/3
f 135/77/3 123/79/3 134/80/3
f 133/81/4 122/82/4 121/83/4
f 133/81/4 121/83/4 135/84/4
f 130/85/4 126/86/4 125/87/4
f 130/85/4 125/87/4 124/88/4
f 124/89/3 125/90/3 128/91/3
f 124/89/3 128/91/3 131/92/3
f 129/93/6 127/94/6 126/95/6
f 129/93/6 126/95/6 130/96/6
f 131/97/5 128/98/5 127/99/5
f 131/97/5 127/99/5 129/100/5
f 46/17/2 45/20/2 128/23/2
f 46/17/2 128/23/2 125/18/2
f 43/21/2 44/16/2 126/19/2
f 43/21/2 126/19/2 127/22/2
f 121/14/1 122/101/1 130/102/1
f 121/14/1 130/102/1 124/15/1
f 122/101/1 120/10/1 129/13/1
f 122/101/1 129/13/1 130/102/1
f 134/103/2 132/104/2 139/105/2
f 134/103/2 139/105/2 142/106/2
f 133/107/2 135/108/2 143/109/2
f 133/107/2 143/109/2 140/110/2
f 132/104/2 133/107/2 140/110/2
f 132/104/2 140/110/2 139/105/2
f 135/108/2 134/103/2 142/106/2
f 135/108/2 142/106/2 143/109/2
f 136/111/1 138/112/1 141/113/1
f 136/111/1 141/113/1 137/114/1
f 141/115/4 140/116/4 143/117/4
f 141/115/4 143/117/4 137/118/4
f 137/119/3 143/120/3 142/121/3
f 137/119/3 142/121/3 136/122/3
f 138/123/6 139/124/6 140/125/6
f 138/123/6 140/125/6 141/126/6
f 136/127/5 142/128/5 139/129/5
f 136/127/5 139/129/5 138/130/5
s 1
f 1/131/13 26/132/2 6/133/14
f 6/133/14 26/132/2 11/134/15
f 11/134/15 26/132/2 16/135/16
f 16/135/16 26/132/2 21/136/17
f 21/136/17 26/132/2 27/137/18
f 27/137/18 26/132/2 32/138/19
f 32/138/19 26/132/2 37/139/20
f 37/139/20 26/132/2 1/131/13
f 5/140/21 4/141/22 9/142/23
f 5/140/21 9/142/23 10/143/24
f 3/144/5 2/145/25 7/146/26
f 3/144/5 7/146/26 8/147/27
f 4/141/22 3/144/5 8/147/27
f 4/141/22 8/147/27 9/142/23
f 2/145/25 1/131/13 6/133/14
f 2/145/25 6/133/14 7/146/26
f 9/142/23 8/147/27 13/148/6
f 9/142/23 13/148/6 14/149/28
f 7/146/26 6/133/14 11/134/15
f 7/146/26 11/134/15 12/150/29
f 10/143/24 9/142/23 14/149/28
f 10/143/24 14/149/28 15/151/30
f 8/147/27 7/146/26 12/150/29
f 8/147/27 12/150/29 13/148/6
f 14/149/28 13/148/6 18/152/31
f 14/149/28 18/152/31 19/153/32
f 12/150/29 11/134/15 16/135/16
f 12/150/29 16/135/16 17/154/33
f 15/151/30 14/149/28 19/153/32
f 15/151/30 19/153/32 20/155/34
f 13/148/6 12/150/29 17/154/33
f 13/148/6 17/154/33 18/152/31
f 19/153/32 18/152/31 23/156/4
f 19/153/32 23/156/4 24/157/35
f 17/154/33 16/135/16 21/136/17
f 17/154/33 21/136/17 22/158/36
f 20/155/34 19/153/32 24/157/35
f 20/155/34 24/157/35 25/159/37
f 18/152/31 17/154/33 22/158/36
f 18/152/31 22/158/36 23/156/4
f 24/157/35 23/156/4 29/160/38
f 24/157/35 29/160/38 30/161/39
f 22/158/36 21/136/17 27/137/18
f 22/158/36 27/137/18 28/162/40
f 25/159/37 24/157/35 30/161/39
f 25/159/37 30/161/39 31/163/41
f 23/156/4 22/158/36 28/162/40
f 23/156/4 28/162/40 29/160/38
f 30/161/39 29/160/38 34/164/3
f 30/161/39 34/164/3 35/165/42
f 28/162/40 27/137/18 32/138/19
f 28/162/40 32/138/19 33/166/43
f 31/163/41 30/161/39 35/165/42
f 31/163/41 35/165/42 36/167/44
f 29/160/38 28/162/40 33/166/43
f 29/160/38 33/166/43 34/164/3
f 33/166/43 32/138/19 37/139/20
f 33/166/43 37/139/20 38/168/45
f 36/167/44 35/165/42 40/169/46
f 36/167/44 40/169/46 41/170/47
f 34/164/3 33/166/43 38/168/45
f 34/164/3 38/168/45 39/171/48
f 35/165/42 34/164/3 39/171/48
f 35/165/42 39/171/48 40/169/46
f 41/170/47 40/169/46 4/141/22
f 41/170/47 4/141/22 5/140/21
f 39/171/48 38/168/45 2/145/25
f 39/171/48 2/145/25 3/144/5
f 40/169/46 39/171/48 3/144/5
f 40/169/46 3/144/5 4/141/22
f 38/168/45 37/139/20 1/131/13
f 38/168/45 1/131/13 2/145/25
f 45/172/49 46/173/50 48/174/50
f 45/172/49 48/174/50 50/175/49
f 44/176/51 43/177/52 49/178/52
f 44/176/51 49/178/52 47/179/51
f 43/177/52 45/172/49 50/175/49
f 43/177/52 50/175/49 49/178/52
f 46/173/50 44/176/51 47/179/51
f 46/173/50 47/179/51 48/174/50
f 52/180/53 51/181/54 55/182/54
f 52/180/53 55/182/54 56/183/53
f 53/184/55 54/185/56 58/186/56
f 53/184/55 58/186/56 57/187/55
f 51/181/54 53/184/55 57/187/55
f 51/181/54 57/187/55 55/182/54
f 54/185/56 52/180/53 56/183/53
f 54/185/56 56/183/53 58/186/56
f 106/188/57 64/189/58 68/190/59
f 106/188/57 68/190/59 108/191/60
f 94/192/61 70/193/62 74/194/63
f 94/192/61 74/194/63 96/195/64
f 91/196/65 63/197/66 67/198/67
f 91/196/65 67/198/67 93/199/68
f 92/200/69 66/201/70 70/202/62
f 92/200/69 70/202/62 94/203/61
f 105/204/71 65/205/72 69/206/73
f 105/204/71 69/206/73 107/207/74
f 95/208/75 71/209/76 75/210/77
f 95/208/75 75/210/77 97/211/78
f 107/212/74 69/213/73 73/214/79
f 107/212/74 73/214/79 109/215/80
f 108/216/60 68/217/59 72/218/81
f 108/216/60 72/218/81 110/219/82
f 93/220/68 67/221/67 71/222/76
f 93/220/68 71/222/76 95/223/75
f 98/224/83 78/225/84 82/226/85
f 98/224/83 82/226/85 100/227/86
f 96/228/64 74/229/63 78/230/84
f 96/228/64 78/230/84 98/231/83
f 109/232/80 73/233/79 77/234/87
f 109/232/80 77/234/87 111/235/88
f 110/236/82 72/237/81 76/238/89
f 110/236/82 76/238/89 112/239/90
f 114/240/91 80/241/92 84/242/93
f 114/240/91 84/242/93 116/243/94
f 111/244/88 77/245/87 81/246/95
f 111/244/88 81/246/95 113/247/96
f 112/248/90 76/249/89 80/250/92
f 112/248/90 80/250/92 114/251/91
f 97/252/78 75/253/77 79/254/97
f 97/252/78 79/254/97 99/255/98
f 102/256/99 86/257/100 90/258/101
f 102/256/99 90/258/101 104/259/102
f 99/260/98 79/261/97 83/262/103
f 99/260/98 83/262/103 101/263/104
f 100/264/86 82/265/85 86/266/100
f 100/264/86 86/266/100 102/267/99
f 113/268/96 81/269/95 85/270/105
f 113/268/96 85/270/105 115/271/106
f 115/272/106 85/273/105 89/274/107
f 115/272/106 89/274/107 117/275/108
f 116/276/94 84/277/93 88/278/109
f 116/276/94 88/278/109 118/279/110
f 101/280/104 83/281/103 87/282/111
f 101/280/104 87/282/111 103/283/112
f 84/284/93 101/280/104 103/283/112
f 84/284/93 103/283/112 88/285/109
f 81/269/95 100/264/86 102/267/99
f 81/269/95 102/267/99 85/270/105
f 80/241/92 99/260/98 101/263/104
f 80/241/92 101/263/104 84/242/93
f 85/286/105 102/256/99 104/259/102
f 85/286/105 104/259/102 89/287/107
f 76/249/89 97/252/78 99/255/98
f 76/249/89 99/255/98 80/250/92
f 73/288/79 96/228/64 98/231/83
f 73/288/79 98/231/83 77/289/87
f 77/245/87 98/224/83 100/227/86
f 77/245/87 100/227/86 81/246/95
f 68/217/59 93/220/68 95/223/75
f 68/217/59 95/223/75 72/218/81
f 72/290/81 95/208/75 97/211/78
f 72/290/81 97/211/78 76/291/89
f 65/292/72 92/200/69 94/203/61
f 65/292/72 94/203/61 69/293/73
f 64/294/58 91/196/65 93/199/68
f 64/294/58 93/199/68 68/295/59
f 69/213/73 94/192/61 96/195/64
f 69/213/73 96/195/64 73/214/79
f 86/296/100 116/276/94 118/279/110
f 86/296/100 118/279/110 90/297/101
f 83/298/103 115/272/106 117/275/108
f 83/298/103 117/275/108 87/299/111
f 79/261/97 113/268/96 115/271/106
f 79/261/97 115/271/106 83/262/103
f 78/225/84 112/248/90 114/251/91
f 78/225/84 114/251/91 82/226/85
f 75/253/77 111/244/88 113/247/96
f 75/253/77 113/247/96 79/254/97
f 82/265/85 114/240/91 116/243/94
f 82/265/85 116/243/94 86/266/100
f 74/300/63 110/236/82 112/239/90
f 74/300/63 112/239/90 78/301/84
f 71/302/76 109/232/80 111/235/88
f 71/302/76 111/235/88 75/303/77
f 70/193/62 108/216/60 110/219/82
f 70/193/62 110/219/82 74/194/63
f 67/221/67 107/212/74 109/215/80
f 67/221/67 109/215/80 71/222/76
f 63/304/66 105/204/71 107/207/74
f 63/304/66 107/207/74 67/305/67
f 66/306/70 106/188/57 108/191/60
f 66/306/70 108/191/60 70/307/62
